<?xml version="1.0" encoding="UTF-8"?>
<svg id="Layer_1" data-name="Layer 1" xmlns="http://www.w3.org/2000/svg" viewBox="0 0 20.61 20.65">
  <path d="m17.47,3.12C15.55,1.2,13,.15,10.29.15S5.03,1.2,3.12,3.12C1.2,5.04.15,7.59.15,10.3s1.06,5.26,2.97,7.18c1.92,1.92,4.46,2.97,7.18,2.97s5.26-1.06,7.18-2.97c1.92-1.92,2.97-4.46,2.97-7.18s-1.06-5.26-2.97-7.18Zm-.94,13.76c-1.69,1.6-3.89,2.48-6.23,2.48-1.3,0-2.56-.27-3.72-.79l4.72-5.28s.09-.84.07-1.46c-.02-.96.03-1.4-.07-1.41-.34-.05-.77-.04-.77-.04,0,0-2.67-.55-3.52-1.5s-.7-1.03-1.03-1.06-2.93,0-2.93,0c0,0-.37-.04-.44.73-.07.77,0,3.63,0,3.63,0,0-.04.37.29.59.33.22,1.94.95,1.94.95,0,0,.29-.07.26.77-.03.65.07,2.5.12,3.33-.48-.32-.93-.7-1.35-1.11-1.71-1.71-2.65-3.99-2.65-6.41,0-1.36.3-2.67.86-3.87h2.36l3.08-2.91s.04-1.21.02-1.87c.88-.28,1.8-.42,2.75-.42,1.29,0,2.53.27,3.67.77-1.02.7-1.7,1.88-1.7,3.22,0,2.15,1.75,3.9,3.9,3.9.27,0,.54-.03.8-.08.77,2.85-.03,6.37-.44,7.84Z"/>
</svg>