<?xml version="1.0" encoding="UTF-8"?>
<svg id="Layer_1" data-name="Layer 1" xmlns="http://www.w3.org/2000/svg" viewBox="0 0 22.53 13.48">
  <path d="m22.23,3.17c-.56-.2-9.9-3-9.9-3,0,0-1.07-.3-2.41.1C8.58.67.49,3.05.49,3.05c0,0-.86.4-.14.64.72.24,9.81,3,9.81,3,0,0,1.31.32,2.41,0s9.67-2.98,9.67-2.98c0,0,.56-.34,0-.54Z"/>
  <path d="m12.26,8.4c-.18.06-.64.12-.99.12s-.95-.12-.95-.12l-5.83-1.81v5.11s1.71,1.71,6.92,1.71,6.74-1.73,6.74-1.73l-.1-5.17s-5.61,1.83-5.79,1.89Z"/>
  <path d="m2.13,10.06h0s-.05-.09-.07-.13l-.5-.86v-3.73l-.72-.24v3.85l-.55,1.06c-.08.15-.13.32-.13.49,0,.57.46,1.03,1.03,1.03s1.03-.46,1.03-1.03c0-.16-.04-.32-.1-.45h0Z"/>
</svg>