<?xml version="1.0" encoding="UTF-8"?>
<svg id="Layer_1" data-name="Layer 1" xmlns="http://www.w3.org/2000/svg" viewBox="0 0 19.66 19.84">
  <path d="m15.79.23c-.83-.05-1.69.56-1.69.56l-5.42,3.37h-4.59s-.66.88-.66.88h-1.92c-.9,0-1.18,1.86-1.18,1.86v1.71c0,1.85,1.2,2.16,1.2,2.16h1.94l.83.98-.6,5.34c-.03.15-.05.3-.05.45,0,1.15.93,2.08,2.08,2.08s2.08-.93,2.08-2.08c0-.24-.04-.46-.11-.67-.22-1.29-.68-4.05-.85-5.11h1.83l5.63,3.4s.37.32,1.64.5c1.59.22,3.47-2.57,3.47-8.25S16.62.28,15.79.23Zm.36,13.81c-1.15,0-2.09-2.7-2.09-6.04s.94-6.04,2.09-6.04,2.09,2.7,2.09,6.04-.94,6.04-2.09,6.04Z"/>
  <path d="m15.48,5.45v5.1c1.27-.16,2.25-1.24,2.25-2.55s-.98-2.39-2.25-2.55Z"/>
</svg>