<?xml version="1.0" encoding="UTF-8"?>
<svg id="Layer_1" data-name="Layer 1" xmlns="http://www.w3.org/2000/svg" viewBox="0 0 26.47 17.01">
  <path d="m3.3,14.72h19.75c.52,0,.94-.42.94-.94V1.08c0-.52-.42-.94-.94-.94H3.3c-.52,0-.94.42-.94.94v12.7c0,.52.42.94.94.94Zm.47-13.17h18.82v11.77H3.77V1.55Z"/>
  <path d="m25.62,15.44H.91c-.39,0-.7.31-.7.7s.31.7.7.7h24.71c.39,0,.7-.31.7-.7s-.31-.7-.7-.7Zm-11.28,1.01h-2.86c-.17,0-.31-.14-.31-.31s.14-.31.31-.31h2.86c.17,0,.31.14.31.31s-.14.31-.31.31Z"/>
</svg>