<?xml version="1.0" encoding="UTF-8"?>
<svg id="Layer_1" data-name="Layer 1" xmlns="http://www.w3.org/2000/svg" viewBox="0 0 30 30">
  <path d="m6.44,10.92h13.35v2.63h1.28v-4.96c0-.67-.55-1.22-1.22-1.22h-1.12v-1.8c0-.35-.29-.64-.64-.64s-.64.29-.64.64v1.8h-8.65v-1.8c0-.35-.29-.64-.64-.64s-.64.29-.64.64v1.8h-1.12c-.67,0-1.22.55-1.22,1.22v11.34c0,.67.55,1.22,1.22,1.22h7.4v-1.28h-7.34v-8.96Z"/>
  <rect x="7.54" y="12.35" width="2.41" height="2.41"/>
  <rect x="7.54" y="16.07" width="2.41" height="2.41"/>
  <rect x="11.27" y="12.35" width="2.41" height="2.41"/>
  <rect x="11.27" y="16.07" width="2.41" height="2.41"/>
  <rect x="15" y="12.35" width="2.41" height="2.41"/>
  <path d="m21.94,19.6h-1.95v-1.91c0-.35-.29-.64-.64-.64s-.64.29-.64.64v2.55c0,.35.29.64.64.64h2.59c.35,0,.64-.29.64-.64s-.29-.64-.64-.64Z"/>
  <path d="m20.02,14.7c-2.83,0-5.13,2.3-5.13,5.13s2.3,5.13,5.13,5.13,5.13-2.3,5.13-5.13-2.3-5.13-5.13-5.13Zm0,8.98c-2.12,0-3.85-1.73-3.85-3.85s1.73-3.85,3.85-3.85,3.85,1.73,3.85,3.85-1.73,3.85-3.85,3.85Z"/>
</svg>