<?xml version="1.0" encoding="UTF-8"?>
<svg id="Layer_1" data-name="Layer 1" xmlns="http://www.w3.org/2000/svg" viewBox="0 0 30 30">
  <path d="m27.45,9.8c-.4-.01-.8,0-1.2,0-.44,0-.88-.01-1.27.31-.05-.16-.09-.27-.12-.38-.5-1.62-.99-3.23-1.49-4.85-.18-.59-.45-.79-1.06-.79-4.86,0-9.71,0-14.57,0-.62,0-.89.19-1.07.78-.48,1.57-.96,3.14-1.44,4.71-.14.46-.14.46-.56.31-.08-.03-.16-.05-.25-.06-.68-.04-1.36-.07-2.04,0-.72.08-1.13.68-1.08,1.48.05.67.56,1.17,1.25,1.19.35,0,.7,0,1.06,0,.02.03.05.06.07.09-.12.1-.25.18-.36.29-.35.37-.58.81-.58,1.34,0,2.54,0,5.09,0,7.63,0,.54.23.77.79.77,1.16,0,2.31,0,3.47,0,.82,0,.99-.15.98-.98,0-.31.07-.41.4-.41,4.34.01,8.69,0,13.03,0q.64,0,.66.64c.02.51.24.74.74.74,1.25,0,2.51,0,3.76,0,.51,0,.73-.23.73-.74,0-2.56,0-5.11,0-7.67,0-.41-.14-.76-.38-1.08-.17-.22-.34-.44-.67-.64.46,0,.81,0,1.15,0,.78,0,1.32-.51,1.33-1.28.02-.83-.48-1.39-1.28-1.41Zm-19.11,5.3c-.02.76-.75,1.44-1.56,1.43-.8,0-1.54-.69-1.55-1.45-.01-.91.66-1.61,1.49-1.65.79-.03,1.65.62,1.62,1.67Zm11.4,2.12c-.37,1.08-.18,1-1.38,1-2.37,0-4.74,0-7.12,0-.61,0-.65-.03-.83-.59-.04-.13-.08-.25-.13-.38-.19-.58-.04-.8.57-.8.94,0,1.87,0,2.81,0h1.35c1.39,0,2.77,0,4.16,0,.59,0,.75.22.57.77Zm-2.92-6.27c-3.39-.01-6.79-.03-10.18.22-.66.05-.66.05-.46-.6.48-1.56.95-3.11,1.43-4.67.15-.48.28-.58.78-.58,2.2,0,4.4,0,6.61,0,2.18,0,4.36,0,6.53,0,.62,0,.72.07.9.67.48,1.58.97,3.16,1.45,4.74.15.5.15.49-.36.45-2.23-.18-4.47-.22-6.71-.23Zm6.42,5.59c-.81,0-1.55-.67-1.56-1.44-.01-.98.67-1.67,1.66-1.67.75,0,1.45.74,1.45,1.55,0,.86-.69,1.55-1.55,1.56Z"/>
</svg>