<?xml version="1.0" encoding="UTF-8"?>
<svg id="Layer_1" data-name="Layer 1" xmlns="http://www.w3.org/2000/svg" viewBox="0 0 30 30">
  <path d="m14.99,15.92c-1.9,0-3.7.83-4.95,2.27-.28.33-.25.82.08,1.11.15.13.33.19.51.19.22,0,.44-.09.59-.27.94-1.09,2.31-1.72,3.76-1.72s2.81.63,3.76,1.72c.28.33.78.36,1.11.08.33-.28.36-.78.08-1.11-1.24-1.44-3.05-2.27-4.95-2.27Z"/>
  <path d="m23.33,14.86c-2.31-2-5.28-3.1-8.34-3.1s-6.02,1.1-8.34,3.1c-.33.28-.36.78-.08,1.11.28.33.78.36,1.11.08,2.03-1.75,4.63-2.72,7.31-2.72s5.28.97,7.31,2.72c.15.13.33.19.51.19.22,0,.44-.09.59-.27.28-.33.25-.82-.08-1.11Z"/>
  <path d="m26.64,11.99c-1.5-1.54-3.26-2.75-5.22-3.6-2.03-.88-4.2-1.32-6.43-1.32s-4.33.43-6.33,1.28c-1.94.82-3.68,1.99-5.17,3.49-.31.31-.31.8,0,1.11.31.31.8.31,1.11,0,2.78-2.78,6.47-4.3,10.39-4.3,2.02,0,3.97.4,5.81,1.19,1.78.77,3.36,1.86,4.72,3.25.15.16.36.24.56.24s.39-.07.55-.22c.31-.3.32-.8.01-1.11Z"/>
  <circle cx="14.99" cy="22.17" r="2.17"/>
</svg>