<?xml version="1.0" encoding="UTF-8"?>
<svg id="Layer_1" data-name="Layer 1" xmlns="http://www.w3.org/2000/svg" viewBox="0 0 30 30">
  <defs>
    <style>
      .cls-1 {
        fill: none;
      }
    </style>
  </defs>
  <path class="cls-1" d="m23.61,11.66H6.33c-.12,0-.22.1-.22.22v.85c0,.12.1.22.22.22h2.33v1.95c0,.34.27.61.61.61h1.33c.34,0,.61-.27.61-.61v-1.95h7.57v1.95c0,.34.27.61.61.61h1.33c.34,0,.61-.27.61-.61v-1.95h2.28c.12,0,.22-.1.22-.22v-.85c0-.12-.1-.22-.22-.22Z"/>
  <path d="m23.79,7.86h-4.89v-1.07c0-.87-.71-1.59-1.59-1.59h-4.62c-.87,0-1.59.71-1.59,1.59v1.07h-4.92c-.68,0-1.23.55-1.23,1.23v11.47c0,.68.55,1.23,1.23,1.23h17.59c.68,0,1.23-.55,1.23-1.23v-11.47c0-.68-.55-1.23-1.23-1.23Zm-11.27-1.07c0-.1.08-.18.18-.18h4.62c.1,0,.18.08.18.18v1.07h-4.97v-1.07Zm11.31,5.94c0,.12-.1.22-.22.22h-2.28v1.95c0,.34-.27.61-.61.61h-1.33c-.34,0-.61-.27-.61-.61v-1.95h-7.57v1.95c0,.34-.27.61-.61.61h-1.33c-.34,0-.61-.27-.61-.61v-1.95h-2.33c-.12,0-.22-.1-.22-.22v-.85c0-.12.1-.22.22-.22h17.28c.12,0,.22.1.22.22v.85Z"/>
</svg>