<svg width="73" height="73" viewBox="0 0 73 73" fill="none" xmlns="http://www.w3.org/2000/svg">
<rect width="73" height="73" fill="#F5F5F5"/>
<g clip-path="url(#clip0_0_1)">
<rect width="1440" height="1024" transform="translate(-187 -197)" fill="white"/>
<g filter="url(#filter0_d_0_1)">
<rect x="-33" y="-19" width="1132" height="148" rx="10" fill="white"/>
</g>
<rect x="0.5" y="0.5" width="72" height="72" rx="36" fill="#F1F1F1" stroke="#E0E0E0"/>
<path d="M36.4998 55.6309C47.0658 55.6309 55.6312 47.0655 55.6312 36.4996C55.6312 25.9336 47.0658 17.3682 36.4998 17.3682C25.9338 17.3682 17.3684 25.9336 17.3684 36.4996C17.3684 47.0655 25.9338 55.6309 36.4998 55.6309Z" fill="#6E83B7"/>
<path d="M36.4997 52.054C43.9404 52.054 49.9723 48.5721 49.9723 44.277C49.9723 39.9819 43.9404 36.5 36.4997 36.5C29.059 36.5 23.0271 39.9819 23.0271 44.277C23.0271 48.5721 29.059 52.054 36.4997 52.054Z" fill="#EDEFF1"/>
<path d="M36.4999 36.4993C40.795 36.4993 44.2769 33.0174 44.2769 28.7223C44.2769 24.4272 40.795 20.9453 36.4999 20.9453C32.2048 20.9453 28.7229 24.4272 28.7229 28.7223C28.7229 33.0174 32.2048 36.4993 36.4999 36.4993Z" fill="#EDEFF1"/>
<path d="M36.4998 45.8324L42.7769 37.8191C40.857 36.9711 38.7335 36.5 36.4998 36.5C34.2661 36.5 32.1426 36.9711 30.2227 37.8191L36.4998 45.8324Z" fill="#D3D3D3"/>
</g>
<defs>
<filter id="filter0_d_0_1" x="-42" y="-24" width="1148" height="164" filterUnits="userSpaceOnUse" color-interpolation-filters="sRGB">
<feFlood flood-opacity="0" result="BackgroundImageFix"/>
<feColorMatrix in="SourceAlpha" type="matrix" values="0 0 0 0 0 0 0 0 0 0 0 0 0 0 0 0 0 0 127 0" result="hardAlpha"/>
<feOffset dx="-1" dy="3"/>
<feGaussianBlur stdDeviation="4"/>
<feComposite in2="hardAlpha" operator="out"/>
<feColorMatrix type="matrix" values="0 0 0 0 0 0 0 0 0 0 0 0 0 0 0 0 0 0 0.1 0"/>
<feBlend mode="normal" in2="BackgroundImageFix" result="effect1_dropShadow_0_1"/>
<feBlend mode="normal" in="SourceGraphic" in2="effect1_dropShadow_0_1" result="shape"/>
</filter>
<clipPath id="clip0_0_1">
<rect width="1440" height="1024" fill="white" transform="translate(-187 -197)"/>
</clipPath>
</defs>
</svg>
