<?xml version="1.0" encoding="utf-8"?>
<!-- Generator: Adobe Illustrator 22.0.0, SVG Export Plug-In . SVG Version: 6.00 Build 0)  -->
<svg version="1.1" id="Layer_1" xmlns="http://www.w3.org/2000/svg" xmlns:xlink="http://www.w3.org/1999/xlink" x="0px" y="0px"
	 viewBox="0 0 600 233.4" style="enable-background:new 0 0 600 233.4;" xml:space="preserve">
<style type="text/css">
	.st0{fill:#1C1C1A;}
	.st1{fill:#F15E61;}
	.st2{fill:#201D1E;}
	.st3{fill:#FFFFFF;}
</style>
<title>Artboard 2 copy 5</title>
<path class="st0" d="M64.7,83.9c24.9,0,38.8,18.9,38.8,18.9l-12.9,12.9c0,0-9-13.9-25.9-13.9c-15.9,0-29.9,13.9-29.9,31.9
	s13.9,31.9,29.9,31.9c16.9,0,26.9-14.9,26.9-14.9l12.9,12.9c0,0-14.9,19.9-39.8,19.9c-26.9,0-49.8-22.9-49.8-49.8
	S37.8,83.9,64.7,83.9z"/>
<path class="st0" d="M169.2,101.8c-14.9,0-24.9,10-24.9,27.9v51.8h-19.9V85.8h19.9v10c7.7-7.6,18.1-11.9,28.9-11.9h5v18.9
	C175.2,102.1,172.2,101.8,169.2,101.8z"/>
<path class="st0" d="M250.8,181.4v-10c-7.7,7.6-18.1,11.8-28.9,11.9c-19.9,0-33.8-13.9-33.8-27.9c0-15.9,10.9-26.9,27.9-29.9l34.8-6
	c0-10-8-17.9-19.9-17.9c-9.9,0-19.2,4.8-24.9,12.9l-12.9-12.9c9.3-11.4,23.2-18,37.8-17.9c23.9,0,39.8,15.9,39.8,35.8v61.7
	L250.8,181.4z M250.8,137.6v-2l-30.9,5c-7,1.2-11.9,6-11.9,12.9c0,6,6,11.9,16.9,11.9C240.9,165.5,250.8,155.5,250.8,137.6z"/>
<path class="st0" d="M320,181.4l-38.8-95.6h20.9l27.9,69.7l27.9-69.7h20.9l-42.8,105.5c-9.8,23.9-18.3,31.9-32.8,31.9
	c-9,0-13.9-2-13.9-2v-17.9c3.2,1.2,6.5,1.9,10,2c8,0,13.3-5,16.9-13.9L320,181.4z"/>
<path class="st0" d="M516.9,95.8c7.7-7.6,18.1-11.9,28.9-11.9c22.9,0,38.8,15.9,38.8,41.8v55.7h-19.9v-55.7
	c0-13.9-10-23.9-22.9-23.9c-14.9,0-24.9,10-24.9,27.9v51.8H497V85.8h19.9V95.8z"/>
<rect x="219.6" y="13.7" class="st1" width="160.3" height="19.9"/>
<circle class="st1" cx="430.8" cy="133.6" r="50"/>
<path class="st2" d="M339.7,211.2c1.8,0,3.5,0.9,4.7,2.3l-1.6,1.6c-0.7-1-1.9-1.6-3.1-1.7c-2.1,0.1-3.7,2-3.6,4.1
	c0.1,1.9,1.7,3.5,3.6,3.6c1.3-0.1,2.5-0.7,3.2-1.8l1.6,1.6c-1.2,1.5-2.9,2.3-4.8,2.4c-3.3,0-6-2.7-6-6S336.4,211.2,339.7,211.2
	L339.7,211.2z"/>
<path class="st2" d="M363.5,222.9h-2.4v-16.8h2.4V222.9z"/>
<path class="st2" d="M389.1,221.8c-0.9,0.9-2.2,1.4-3.5,1.4c-2.8,0-4.7-1.9-4.7-5v-6.7h2.4v6.7c-0.1,1.5,1.1,2.8,2.6,2.9
	c0.1,0,0.1,0,0.2,0c1.8,0,3-1.2,3-3.4v-6.2h2.4v11.5h-2.4L389.1,221.8z"/>
<path class="st2" d="M400.4,213.3c-1.8,0-3,1.2-3,3.4v6.2H395v-11.5h2.4v1.2c0.9-0.9,2.2-1.4,3.5-1.4h0.6v2.3
	C401.1,213.4,400.8,213.3,400.4,213.3z"/>
<path class="st2" d="M430.3,221.8c-0.9,0.9-2.2,1.4-3.5,1.4c-2.8,0-4.7-1.9-4.7-5v-6.7h2.4v6.7c-0.1,1.5,1.1,2.8,2.6,2.9
	c0.1,0,0.1,0,0.2,0c1.8,0,3-1.2,3-3.4v-6.2h2.4v11.5h-2.4L430.3,221.8z"/>
<path class="st2" d="M437.6,207.6h2.2v3.8h2.4v2.2h-2.4v6c0,0.8,0.5,1.4,1.3,1.5c0,0,0.1,0,0.1,0c0.4,0,0.8-0.1,1.2-0.2v2.2
	c-0.5,0.2-1.1,0.2-1.7,0.2c-2.2,0-3.4-1.2-3.4-3.6v-6h-2.2v-2.2h1.2c0.7,0,1.2-0.5,1.2-1.4L437.6,207.6z"/>
<path class="st2" d="M451.1,214.3c-0.6-0.6-1.3-0.9-2.2-1c-1.1,0-1.7,0.6-1.7,1.2c0,2.2,5.9,1,5.9,5c0,1.9-1.7,3.6-4.3,3.6
	c-1.7,0-3.4-0.7-4.4-2l1.6-1.6c0.7,0.9,1.8,1.4,2.9,1.4c1.3,0,1.9-0.6,1.9-1.4c0-2.2-5.9-1-5.9-5c0-1.7,1.7-3.4,4.1-3.4
	c1.4-0.1,2.8,0.5,3.7,1.6L451.1,214.3z"/>
<path class="st2" d="M457.1,209.3c-0.8,0-1.4-0.6-1.4-1.4s0.6-1.4,1.4-1.4s1.4,0.6,1.4,1.4c0,0,0,0,0,0c0,0.8-0.6,1.4-1.3,1.4
	C457.1,209.3,457.1,209.3,457.1,209.3z M458.3,223h-2.4v-11.5h2.4V223z"/>
<path class="st2" d="M478.1,218c0.3,1.7,1.8,3,3.6,3c1.4,0,2.7-0.7,3.5-1.8l1.6,1.6c-1.2,1.5-3.1,2.4-5,2.4c-3.3-0.1-6-2.8-6-6.1
	c0-3.2,2.6-5.9,5.9-5.9c3.1,0,5.7,2.6,5.6,5.7c0,0.4,0,0.8-0.1,1.1L478.1,218z M478.2,216h6.7c-0.2-1.6-1.7-2.8-3.3-2.8
	C479.9,213.2,478.5,214.4,478.2,216L478.2,216z"/>
<path class="st2" d="M496.1,207.6h2.2v3.8h2.4v2.2h-2.4v6c0,0.8,0.6,1.4,1.3,1.5c0,0,0.1,0,0.1,0c0.4,0,0.8-0.1,1.2-0.2v2.2
	c-0.5,0.2-1.1,0.2-1.7,0.2c-2.2,0-3.4-1.2-3.4-3.6v-6h-2.2v-2.2h1.2c0.7,0,1.2-0.5,1.2-1.4L496.1,207.6z"/>
<path class="st2" d="M506.4,212.6c0.9-0.9,2.2-1.4,3.5-1.4c2.8,0,4.7,1.9,4.7,5v6.7h-2.4v-6.7c0.1-1.5-1.1-2.8-2.6-2.9
	c-0.1,0-0.1,0-0.2,0c-1.8,0-3,1.2-3,3.4v6.2H504v-16.8h2.4V212.6z"/>
<path class="st2" d="M519.6,218c0.3,1.7,1.8,3,3.6,3c1.4,0,2.7-0.7,3.5-1.8l1.6,1.6c-1.2,1.5-3.1,2.4-5,2.4c-3.3-0.1-6-2.8-6-6.1
	c0-3.2,2.6-5.9,5.9-5.9c3.1,0,5.7,2.6,5.6,5.7c0,0.4,0,0.8-0.1,1.1L519.6,218z M519.7,216h6.7c-0.2-1.6-1.7-2.8-3.3-2.8
	C521.4,213.2,520,214.4,519.7,216L519.7,216z"/>
<path class="st2" d="M538.8,222.9h-2.4v-16.8h2.4V222.9z"/>
<path class="st2" d="M543.7,209.3c-0.8,0-1.4-0.6-1.4-1.4s0.6-1.4,1.4-1.4c0.8,0,1.4,0.6,1.4,1.4c0,0,0,0,0,0c0,0.8-0.6,1.4-1.3,1.4
	C543.8,209.3,543.7,209.3,543.7,209.3z M544.9,223h-2.4v-11.5h2.4V223z"/>
<path class="st2" d="M550.8,212.6c0.9-0.9,2.2-1.4,3.5-1.4c2.8,0,4.7,1.9,4.7,5v6.7h-2.4v-6.7c0.1-1.5-1.1-2.8-2.6-2.9
	c-0.1,0-0.1,0-0.2,0c-1.8,0-3,1.2-3,3.4v6.2h-2.4v-11.5h2.4L550.8,212.6z"/>
<path class="st2" d="M564,218c0.3,1.7,1.8,3,3.6,3c1.4,0,2.7-0.7,3.5-1.8l1.6,1.6c-1.2,1.5-3.1,2.4-5,2.4c-3.3-0.1-6-2.8-6-6.1
	c0-3.2,2.6-5.9,5.9-5.9c3.1,0,5.7,2.6,5.6,5.7c0,0.4,0,0.8-0.1,1.1L564,218z M564.1,216h6.7c-0.2-1.6-1.7-2.8-3.3-2.8
	C565.8,213.2,564.4,214.4,564.1,216L564.1,216z"/>
<path class="st2" d="M581.5,214.3c-0.6-0.6-1.3-0.9-2.2-1c-1.1,0-1.7,0.6-1.7,1.2c0,2.2,5.9,1,5.9,5c0,1.9-1.7,3.6-4.3,3.6
	c-1.7,0-3.4-0.7-4.4-2l1.6-1.6c0.7,0.9,1.8,1.4,2.9,1.4c1.3,0,1.9-0.6,1.9-1.4c0-2.2-5.9-1-5.9-5c0-1.7,1.7-3.4,4.1-3.4
	c1.4-0.1,2.8,0.5,3.7,1.6L581.5,214.3z"/>
<path class="st3" d="M392.6,122.1h4.8V148c0,4.8-2.4,7.2-6.7,7.2c-1.1,0-2.3-0.2-3.4-0.5v-4.3c0.8,0.3,1.6,0.5,2.4,0.5
	c1.5,0.1,2.8-1.1,2.9-2.7c0-0.1,0-0.2,0-0.2L392.6,122.1z M395,117.8c-1.6,0-2.9-1.3-2.9-2.9c0-1.6,1.3-2.9,2.9-2.9
	c1.6,0,2.9,1.3,2.9,2.9c0,0,0,0,0,0c0.1,1.5-1.1,2.8-2.7,2.9C395.2,117.8,395.1,117.8,395,117.8z"/>
<path class="st3" d="M454.6,133.6c0,6.7-5.3,12-11.3,12c-2.8,0-5.5-1.2-7.4-3.1v2.6H431v-33.6h4.8v13.2c2-2,4.7-3.1,7.4-3.1
	C449.3,121.6,454.6,126.9,454.6,133.6z M449.8,133.6c0-4.3-3.4-7.7-7-7.7s-7,3.4-7,7.7s3.4,7.7,7,7.7S449.8,137.9,449.8,133.6z"/>
<path class="st3" d="M470.6,127.8c-1.1-1.2-2.7-1.9-4.3-1.9c-2.2,0-3.4,1.2-3.4,2.4c0,4.3,11.8,1.9,11.8,10.1c0,3.8-3.4,7.2-8.6,7.2
	c-3.4,0.1-6.7-1.4-8.9-4.1l3.1-3.1c1.4,1.7,3.5,2.8,5.8,2.9c2.6,0,3.8-1.2,3.8-2.9c0-4.3-11.8-1.9-11.8-10.1c0-3.4,3.4-6.7,8.2-6.7
	c2.8-0.1,5.5,1,7.4,3.1L470.6,127.8z"/>
<path class="st3" d="M414.1,121.6c6.5,0,12,5.5,12,12c0,6.5-5.5,12-12,12c-6.5,0-12-5.5-12-12C402.1,127.1,407.6,121.6,414.1,121.6z
	 M414.1,125.9c-3.8,0-7.2,3.4-7.2,7.7c0,4.3,3.4,7.7,7.2,7.7c3.8,0,7.2-3.4,7.2-7.7C421.3,129.3,417.9,125.9,414.1,125.9z"/>
<path class="st2" d="M352.2,211.2c3.2,0,6,2.8,6,6s-2.8,6-6,6c-3.2,0-6-2.8-6-6S348.9,211.2,352.2,211.2z M352.2,213.3
	c-1.9,0-3.6,1.7-3.6,3.8s1.7,3.8,3.6,3.8c1.9,0,3.6-1.7,3.6-3.8S354.1,213.3,352.2,213.3z"/>
<path class="st2" d="M372.3,211.2c3.2,0,6,2.8,6,6s-2.8,6-6,6c-3.2,0-6-2.8-6-6S369.1,211.2,372.3,211.2z M372.3,213.3
	c-1.9,0-3.6,1.7-3.6,3.8s1.7,3.8,3.6,3.8c1.9,0,3.6-1.7,3.6-3.8S374.3,213.3,372.3,213.3z"/>
<path class="st2" d="M413.5,211.2c3.2,0,6,2.8,6,6s-2.8,6-6,6c-3.2,0-6-2.8-6-6S410.3,211.2,413.5,211.2z M413.5,213.3
	c-1.9,0-3.6,1.7-3.6,3.8s1.7,3.8,3.6,3.8c1.9,0,3.6-1.7,3.6-3.8S415.4,213.3,413.5,213.3z"/>
<path class="st2" d="M470.4,212.7v-6.6h2.4v16.8h-2.4v-1.3c0,0-1.4,1.6-3.7,1.6c-3,0-5.6-2.6-5.6-6s2.6-6,5.6-6
	C468.9,211.2,470.4,212.7,470.4,212.7z M470.4,217.2c0-2.2-1.7-3.8-3.5-3.8s-3.5,1.7-3.5,3.8s1.7,3.8,3.5,3.8
	S470.4,219.3,470.4,217.2z"/>
</svg>
