<svg width="24" height="24" viewBox="0 0 24 24" fill="none" xmlns="http://www.w3.org/2000/svg">
<rect width="24" height="24" fill="#F5F5F5"/>
<rect x="-415" y="-275" width="2839" height="956" fill="#F7F9FA"/>
<g filter="url(#filter0_d_0_1)">
<rect x="-307" y="-38" width="296" height="285" rx="10" fill="#52CBDC" fill-opacity="0.15" shape-rendering="crispEdges"/>
</g>
<g filter="url(#filter1_d_0_1)">
<rect y="-30" width="280" height="83" rx="10" fill="white"/>
</g>
<g clip-path="url(#clip0_0_1)">
<mask id="mask0_0_1" style="mask-type:luminance" maskUnits="userSpaceOnUse" x="0" y="0" width="24" height="24">
<path d="M0 0H24V24H0V0Z" fill="white"/>
</mask>
<g mask="url(#mask0_0_1)">
<path d="M11 18C11 19.1 10.1 20 9 20C7.9 20 7 19.1 7 18C7 16.9 7.9 16 9 16C10.1 16 11 16.9 11 18ZM9 10C7.9 10 7 10.9 7 12C7 13.1 7.9 14 9 14C10.1 14 11 13.1 11 12C11 10.9 10.1 10 9 10ZM9 4C7.9 4 7 4.9 7 6C7 7.1 7.9 8 9 8C10.1 8 11 7.1 11 6C11 4.9 10.1 4 9 4ZM15 8C16.1 8 17 7.1 17 6C17 4.9 16.1 4 15 4C13.9 4 13 4.9 13 6C13 7.1 13.9 8 15 8ZM15 10C13.9 10 13 10.9 13 12C13 13.1 13.9 14 15 14C16.1 14 17 13.1 17 12C17 10.9 16.1 10 15 10ZM15 16C13.9 16 13 16.9 13 18C13 19.1 13.9 20 15 20C16.1 20 17 19.1 17 18C17 16.9 16.1 16 15 16Z" fill="black" fill-opacity="0.2"/>
</g>
</g>
<defs>
<filter id="filter0_d_0_1" x="-319" y="-50" width="320" height="309" filterUnits="userSpaceOnUse" color-interpolation-filters="sRGB">
<feFlood flood-opacity="0" result="BackgroundImageFix"/>
<feColorMatrix in="SourceAlpha" type="matrix" values="0 0 0 0 0 0 0 0 0 0 0 0 0 0 0 0 0 0 127 0" result="hardAlpha"/>
<feOffset/>
<feGaussianBlur stdDeviation="6"/>
<feComposite in2="hardAlpha" operator="out"/>
<feColorMatrix type="matrix" values="0 0 0 0 0 0 0 0 0 0 0 0 0 0 0 0 0 0 0.03 0"/>
<feBlend mode="normal" in2="BackgroundImageFix" result="effect1_dropShadow_0_1"/>
<feBlend mode="normal" in="SourceGraphic" in2="effect1_dropShadow_0_1" result="shape"/>
</filter>
<filter id="filter1_d_0_1" x="-12" y="-42" width="304" height="107" filterUnits="userSpaceOnUse" color-interpolation-filters="sRGB">
<feFlood flood-opacity="0" result="BackgroundImageFix"/>
<feColorMatrix in="SourceAlpha" type="matrix" values="0 0 0 0 0 0 0 0 0 0 0 0 0 0 0 0 0 0 127 0" result="hardAlpha"/>
<feOffset/>
<feGaussianBlur stdDeviation="6"/>
<feComposite in2="hardAlpha" operator="out"/>
<feColorMatrix type="matrix" values="0 0 0 0 0 0 0 0 0 0 0 0 0 0 0 0 0 0 0.03 0"/>
<feBlend mode="normal" in2="BackgroundImageFix" result="effect1_dropShadow_0_1"/>
<feBlend mode="normal" in="SourceGraphic" in2="effect1_dropShadow_0_1" result="shape"/>
</filter>
<clipPath id="clip0_0_1">
<rect width="24" height="24" fill="white"/>
</clipPath>
</defs>
</svg>
