<svg width="48" height="48" viewBox="0 0 48 48" fill="none" xmlns="http://www.w3.org/2000/svg">
<rect width="48" height="48" rx="24" fill="#F1F3F4"/>
<path d="M34.807 31.0812L31.7893 30.6522L30.458 28.019L29.1268 30.6522L26.9425 30.9628L24.7584 30.6522L23.427 28.019L22.0957 30.6522L19.9114 30.9628L17.7274 30.6522L16.396 28.019L15.0646 30.6522L12.0469 31.0812L14.2317 33.1604L13.72 36L16.3959 34.6985L19.0717 35.9993L18.5601 33.1604L19.9114 31.8746L21.2627 33.1604L20.7511 36L23.4269 34.6985L26.1028 35.9993L25.5912 33.1604L26.9425 31.8746L28.2938 33.1604L27.7822 36L30.458 34.6985L33.1338 35.9993L32.6222 33.1604L34.807 31.0812ZM28.3487 23.9528C28.3487 21.2392 26.1405 19.0311 23.4269 19.0311C20.7135 19.0311 18.5052 21.2392 18.5052 23.9528V27.4684H28.3487V23.9528ZM26.9425 15.5154C26.9425 13.5771 25.3652 12 23.4269 12C21.4885 12 19.9114 13.5771 19.9114 15.5154C19.9114 17.4538 21.4885 19.0311 23.4269 19.0311C25.3652 19.0311 26.9425 17.4538 26.9425 15.5154Z" fill="#78909C"/>
</svg>
