<svg width="9" height="20" viewBox="0 0 9 20" fill="none" xmlns="http://www.w3.org/2000/svg">
<rect width="9" height="20" fill="#F5F5F5"/>
<g id="crayon.jobs/talentdashboard (post login)" clip-path="url(#clip0_0_1)">
<rect width="1440" height="1024" transform="translate(-896 -318)" fill="white"/>
<rect id="-background" x="-742" y="-218" width="1132" height="748" rx="10" fill="white"/>
<g id="human-male">
<path id="Vector" d="M4.5 0C5.03043 0 5.53914 0.210714 5.91421 0.585786C6.28929 0.960859 6.5 1.46957 6.5 2C6.5 2.53043 6.28929 3.03914 5.91421 3.41421C5.53914 3.78929 5.03043 4 4.5 4C3.96957 4 3.46086 3.78929 3.08579 3.41421C2.71071 3.03914 2.5 2.53043 2.5 2C2.5 1.46957 2.71071 0.960859 3.08579 0.585786C3.46086 0.210714 3.96957 0 4.5 0ZM3 5H6C6.53043 5 7.03914 5.21071 7.41421 5.58579C7.78929 5.96086 8 6.46957 8 7V12.5H6.5V20H2.5V12.5H1V7C1 6.46957 1.21071 5.96086 1.58579 5.58579C1.96086 5.21071 2.46957 5 3 5Z" fill="#FF934A"/>
</g>
<g id="human-female">
<path id="Vector_2" d="M4.5 0C5.03043 0 5.53914 0.210714 5.91421 0.585786C6.28929 0.960859 6.5 1.46957 6.5 2C6.5 2.53043 6.28929 3.03914 5.91421 3.41421C5.53914 3.78929 5.03043 4 4.5 4C3.96957 4 3.46086 3.78929 3.08579 3.41421C2.71071 3.03914 2.5 2.53043 2.5 2C2.5 1.46957 2.71071 0.960859 3.08579 0.585786C3.46086 0.210714 3.96957 0 4.5 0ZM3 20V14H0L2.59 6.41C2.84 5.59 3.6 5 4.5 5C5.4 5 6.16 5.59 6.41 6.41L9 14H6V20H3Z" fill="#FF934A"/>
</g>
</g>
<defs>
<clipPath id="clip0_0_1">
<rect width="1440" height="1024" fill="white" transform="translate(-896 -318)"/>
</clipPath>
</defs>
</svg>
