<svg width="43" height="43" viewBox="0 0 43 43" fill="none" xmlns="http://www.w3.org/2000/svg">
<rect x="0.5" y="0.5" width="42" height="42" rx="7.5" fill="#F1F1F1" fill-opacity="0.2" stroke="#F1F1F1"/>
<g clip-path="url(#clip0_2709_10301)">
<path d="M21 34C24.1826 34 27.2348 32.7357 29.4853 30.4853C31.7357 28.2348 33 25.1826 33 22C33 18.8174 31.7357 15.7652 29.4853 13.5147C27.2348 11.2643 24.1826 10 21 10C17.8174 10 14.7652 11.2643 12.5147 13.5147C10.2643 15.7652 9 18.8174 9 22C9 25.1826 10.2643 28.2348 12.5147 30.4853C14.7652 32.7357 17.8174 34 21 34ZM22.395 19.882L20.895 26.9395C20.79 27.4495 20.9385 27.739 21.351 27.739C21.642 27.739 22.0815 27.634 22.38 27.37L22.248 27.994C21.8175 28.513 20.868 28.891 20.0505 28.891C18.996 28.891 18.5475 28.258 18.8385 26.9125L19.9455 21.7105C20.0415 21.271 19.9545 21.112 19.515 21.0055L18.8385 20.884L18.9615 20.3125L22.395 19.882ZM21 18.25C20.6022 18.25 20.2206 18.092 19.9393 17.8107C19.658 17.5294 19.5 17.1478 19.5 16.75C19.5 16.3522 19.658 15.9706 19.9393 15.6893C20.2206 15.408 20.6022 15.25 21 15.25C21.3978 15.25 21.7794 15.408 22.0607 15.6893C22.342 15.9706 22.5 16.3522 22.5 16.75C22.5 17.1478 22.342 17.5294 22.0607 17.8107C21.7794 18.092 21.3978 18.25 21 18.25Z" fill="black" fill-opacity="0.75"/>
</g>
<defs>
<clipPath id="clip0_2709_10301">
<rect width="24" height="24" fill="white" transform="translate(9 10)"/>
</clipPath>
</defs>
</svg>
