<svg width="43" height="43" viewBox="0 0 43 43" fill="none" xmlns="http://www.w3.org/2000/svg">
<rect x="0.5" y="0.5" width="42" height="42" rx="7.5" fill="#F8B318" fill-opacity="0.2" stroke="#F8B318"/>
<g clip-path="url(#clip0_16_3709)">
<path d="M31.7223 20.7206C31.9597 20.5437 32.1359 20.2969 32.226 20.0148C32.3161 19.7328 32.3157 19.4296 32.2248 19.1478C32.1339 18.866 31.9571 18.6197 31.7192 18.4435C31.4813 18.2672 31.1942 18.1698 30.8981 18.165L25.1481 17.9478C25.1198 17.9458 25.0927 17.9357 25.0701 17.9187C25.0474 17.9017 25.0301 17.8785 25.0203 17.8519L23.0334 12.4853C22.9336 12.2122 22.7522 11.9765 22.514 11.8099C22.2757 11.6433 21.992 11.554 21.7013 11.554C21.4106 11.554 21.1269 11.6433 20.8886 11.8099C20.6504 11.9765 20.4691 12.2122 20.3692 12.4853L18.3887 17.8711C18.3789 17.8977 18.3616 17.9209 18.3389 17.9379C18.3163 17.9549 18.2892 17.965 18.2609 17.9669L12.5109 18.1842C12.2148 18.189 11.9277 18.2864 11.6898 18.4626C11.4519 18.6389 11.2751 18.8852 11.1842 19.167C11.0933 19.4488 11.0929 19.752 11.183 20.034C11.2731 20.3161 11.4493 20.5628 11.6867 20.7397L16.1973 24.2856C16.2199 24.3033 16.2367 24.3273 16.2458 24.3546C16.2549 24.3818 16.2558 24.4111 16.2484 24.4389L14.6959 29.9397C14.6154 30.2198 14.6232 30.5179 14.7182 30.7935C14.8132 31.069 14.9907 31.3086 15.2267 31.4796C15.4627 31.6507 15.7456 31.7449 16.037 31.7494C16.3284 31.7539 16.6142 31.6686 16.8553 31.505L21.6215 28.3106C21.6449 28.2943 21.6728 28.2857 21.7013 28.2857C21.7298 28.2857 21.7577 28.2943 21.7812 28.3106L26.5473 31.505C26.7852 31.6742 27.0699 31.7651 27.3619 31.7651C27.6538 31.7651 27.9385 31.6742 28.1765 31.505C28.4125 31.3356 28.5902 31.0972 28.6852 30.8226C28.7801 30.548 28.7877 30.2507 28.7067 29.9717L27.1415 24.4517C27.1332 24.424 27.1336 24.3944 27.1428 24.3669C27.1519 24.3395 27.1693 24.3155 27.1926 24.2983L31.7223 20.7206Z" fill="#F8B318"/>
</g>
<defs>
<clipPath id="clip0_16_3709">
<rect width="23" height="23" fill="white" transform="translate(10 10)"/>
</clipPath>
</defs>
</svg>
