<svg width="43" height="43" viewBox="0 0 43 43" fill="none" xmlns="http://www.w3.org/2000/svg">
<rect width="43" height="43" fill="#F5F5F5"/>
<rect width="1440" height="1326" transform="translate(-459 -191)" fill="#FAFAFA"/>
<g filter="url(#filter0_d_0_1)">
<rect x="-305" y="-12" width="360" height="530" rx="25" fill="white"/>
<rect x="-304.5" y="-11.5" width="359" height="529" rx="24.5" stroke="#E0E0E0" stroke-opacity="0.75"/>
</g>
<rect x="0.5" y="0.5" width="42" height="42" rx="7.5" fill="#F1F1F1" fill-opacity="0.2" stroke="#F1F1F1"/>
<g clip-path="url(#clip0_0_1)">
<path d="M31.7222 20.7206C31.9597 20.5437 32.1358 20.2969 32.2259 20.0148C32.3161 19.7328 32.3156 19.4296 32.2248 19.1478C32.1339 18.866 31.9571 18.6197 31.7192 18.4435C31.4812 18.2672 31.1941 18.1698 30.8981 18.165L25.1481 17.9478C25.1198 17.9458 25.0927 17.9357 25.07 17.9187C25.0473 17.9017 25.0301 17.8785 25.0203 17.8519L23.0333 12.4853C22.9335 12.2122 22.7522 11.9765 22.5139 11.8099C22.2757 11.6433 21.992 11.554 21.7013 11.554C21.4105 11.554 21.1268 11.6433 20.8886 11.8099C20.6503 11.9765 20.469 12.2122 20.3692 12.4853L18.3886 17.8711C18.3788 17.8977 18.3616 17.9209 18.3389 17.9379C18.3162 17.9549 18.2891 17.965 18.2608 17.9669L12.5108 18.1842C12.2148 18.189 11.9277 18.2864 11.6897 18.4626C11.4518 18.6389 11.275 18.8852 11.1841 19.167C11.0932 19.4488 11.0928 19.752 11.183 20.034C11.2731 20.3161 11.4492 20.5628 11.6867 20.7397L16.1972 24.2856C16.2198 24.3033 16.2367 24.3273 16.2458 24.3546C16.2548 24.3818 16.2557 24.4111 16.2483 24.4389L14.6958 29.9397C14.6154 30.2198 14.6232 30.5179 14.7182 30.7935C14.8131 31.069 14.9907 31.3086 15.2267 31.4796C15.4626 31.6507 15.7456 31.7449 16.037 31.7494C16.3284 31.7539 16.6141 31.6686 16.8553 31.505L21.6214 28.3106C21.6449 28.2943 21.6727 28.2857 21.7013 28.2857C21.7298 28.2857 21.7576 28.2943 21.7811 28.3106L26.5472 31.505C26.7851 31.6742 27.0699 31.7651 27.3618 31.7651C27.6538 31.7651 27.9385 31.6742 28.1764 31.505C28.4124 31.3356 28.5901 31.0972 28.6851 30.8226C28.7801 30.548 28.7876 30.2507 28.7067 29.9717L27.1414 24.4517C27.1331 24.424 27.1336 24.3944 27.1427 24.3669C27.1518 24.3395 27.1692 24.3155 27.1925 24.2983L31.7222 20.7206Z" fill="black" fill-opacity="0.2"/>
</g>
<defs>
<filter id="filter0_d_0_1" x="-317" y="-24" width="384" height="554" filterUnits="userSpaceOnUse" color-interpolation-filters="sRGB">
<feFlood flood-opacity="0" result="BackgroundImageFix"/>
<feColorMatrix in="SourceAlpha" type="matrix" values="0 0 0 0 0 0 0 0 0 0 0 0 0 0 0 0 0 0 127 0" result="hardAlpha"/>
<feOffset/>
<feGaussianBlur stdDeviation="6"/>
<feComposite in2="hardAlpha" operator="out"/>
<feColorMatrix type="matrix" values="0 0 0 0 0 0 0 0 0 0 0 0 0 0 0 0 0 0 0.03 0"/>
<feBlend mode="normal" in2="BackgroundImageFix" result="effect1_dropShadow_0_1"/>
<feBlend mode="normal" in="SourceGraphic" in2="effect1_dropShadow_0_1" result="shape"/>
</filter>
<clipPath id="clip0_0_1">
<rect width="23" height="23" fill="white" transform="translate(10 10)"/>
</clipPath>
</defs>
</svg>
