<svg width="21" height="21" viewBox="0 0 21 21" fill="none" xmlns="http://www.w3.org/2000/svg">
<path d="M17.8929 17.8933H14.7813V13.0204C14.7813 11.8584 14.7606 10.3626 13.163 10.3626C11.5424 10.3626 11.2944 11.6286 11.2944 12.9358V17.893H8.18299V7.87234H11.17V9.24177H11.2118C11.5108 8.73064 11.9427 8.31015 12.4617 8.0251C12.9807 7.74004 13.5673 7.6011 14.159 7.62305C17.3127 7.62305 17.8942 9.69746 17.8942 12.3961L17.8929 17.8933ZM4.67205 6.50267C3.6748 6.50283 2.86621 5.6945 2.86605 4.69724C2.86589 3.69999 3.67414 2.89141 4.67139 2.89124C5.66865 2.891 6.47723 3.69933 6.47739 4.69659C6.47748 5.17549 6.28733 5.63481 5.94876 5.97352C5.6102 6.31222 5.15095 6.50256 4.67205 6.50267ZM6.22785 17.8934H3.11305V7.87234H6.22777V17.8933L6.22785 17.8934ZM19.4441 0.0015284H1.54953C0.703788 -0.00798723 0.0102139 0.669509 -0.00012207 1.51525V19.4844C0.00988574 20.3306 0.703378 21.0087 1.54945 20.9999H19.4441C20.2919 21.0104 20.9881 20.3322 20.9999 19.4844V1.51386C20.9878 0.666474 20.2915 -0.0109404 19.4441 0.000133866" fill="#0A66C2"/>
</svg>
