<svg width="25" height="25" viewBox="0 0 25 25" fill="none" xmlns="http://www.w3.org/2000/svg">
<g clip-path="url(#clip0_3143_4221)">
<path d="M6.64062 22.0703C6.23584 22.0703 5.9082 22.3979 5.9082 22.8027V24.2676C5.9082 24.6724 6.23584 25 6.64062 25C7.04541 25 7.37305 24.6724 7.37305 24.2676V22.8027C7.37305 22.3979 7.04541 22.0703 6.64062 22.0703ZM10.0881 20.8201C9.80205 20.5339 9.33857 20.5339 9.05249 20.8201C8.76641 21.1062 8.76636 21.5696 9.05249 21.8557L10.5173 23.3206C10.5852 23.3887 10.666 23.4427 10.7548 23.4795C10.8437 23.5164 10.939 23.5353 11.0352 23.5352C11.2225 23.5352 11.41 23.4636 11.553 23.3206C11.8391 23.0345 11.8391 22.571 11.553 22.2849L10.0881 20.8201ZM3.19311 20.8201L1.72827 22.2849C1.44214 22.571 1.44214 23.0345 1.72827 23.3206C2.0144 23.6066 2.47783 23.6067 2.76392 23.3206L4.22876 21.8557C4.51489 21.5696 4.51489 21.1062 4.22876 20.8201C3.94263 20.534 3.4792 20.5339 3.19311 20.8201ZM18.3594 2.92969C18.7642 2.92969 19.0918 2.60205 19.0918 2.19727V0.732422C19.0918 0.327637 18.7642 0 18.3594 0C17.9546 0 17.627 0.327637 17.627 0.732422V2.19727C17.627 2.60205 17.9546 2.92969 18.3594 2.92969ZM21.8069 4.22876L23.2717 2.76392C23.5579 2.47783 23.5579 2.01436 23.2717 1.72827C22.9856 1.44219 22.5222 1.44214 22.2361 1.72827L20.7712 3.19311C20.4851 3.4792 20.4851 3.94268 20.7712 4.22876C21.0574 4.51484 21.5208 4.51489 21.8069 4.22876ZM14.9119 4.22876C15.1979 4.51489 15.6614 4.51489 15.9475 4.22876C16.2336 3.94263 16.2336 3.4792 15.9475 3.19311L14.4827 1.72827C14.1966 1.44214 13.7331 1.44214 13.447 1.72827C13.1609 2.0144 13.1609 2.47783 13.447 2.76392L14.9119 4.22876ZM14.6973 12.5C14.6973 11.6909 14.0415 11.0352 13.2324 11.0352H12.5C12.0955 11.0352 11.7676 10.7073 11.7676 10.3027V5.9082H8.10547V5.17578C8.10547 3.96421 7.11973 2.97852 5.9082 2.97852C4.69668 2.97852 3.71094 3.96426 3.71094 5.17578V5.9082H0.732422C0.327637 5.9082 0 6.23584 0 6.64062V10.3027C0 10.7073 0.327881 11.0352 0.732422 11.0352H1.51367C2.32275 11.0352 2.97852 11.6909 2.97852 12.5C2.97852 13.3091 2.32275 13.9648 1.51367 13.9648H0.732422C0.327881 13.9648 0 14.2927 0 14.6973V18.3594C0 18.7642 0.327637 19.0918 0.732422 19.0918H3.71094C4.11548 19.0918 4.44336 18.7639 4.44336 18.3594V17.627C4.44336 16.8179 5.09912 16.1621 5.9082 16.1621C6.71729 16.1621 7.37305 16.8179 7.37305 17.627V18.3594C7.37305 18.7642 7.70068 19.0918 8.10547 19.0918H11.7676V14.6973C11.7676 14.2927 12.0955 13.9648 12.5 13.9648H13.2324C14.0415 13.9648 14.6973 13.3091 14.6973 12.5Z" fill="#F05D61"/>
<path d="M23.4863 11.0352H24.2676C24.6721 11.0352 25 10.7073 25 10.3027V6.64062C25 6.23584 24.6724 5.9082 24.2676 5.9082H21.2891C20.8845 5.9082 20.5566 6.23608 20.5566 6.64062V7.37305C20.5566 8.18213 19.9009 8.83789 19.0918 8.83789C18.2827 8.83789 17.627 8.18213 17.627 7.37305V6.64062C17.627 6.23584 17.2993 5.9082 16.8945 5.9082H13.2324V9.57031C14.8972 9.57031 16.1621 10.9585 16.1621 12.5C16.1621 14.0417 14.8974 15.4297 13.2324 15.4297V19.0918H16.8945V19.8242C16.8945 21.0358 17.8803 22.0215 19.0918 22.0215C20.3033 22.0215 21.2891 21.0357 21.2891 19.8242V19.0918H24.2676C24.6724 19.0918 25 18.7642 25 18.3594V14.6973C25 14.2927 24.6721 13.9648 24.2676 13.9648H23.4863C22.6772 13.9648 22.0215 13.3091 22.0215 12.5C22.0215 11.6909 22.6772 11.0352 23.4863 11.0352Z" fill="#F05D61"/>
</g>
<defs>
<clipPath id="clip0_3143_4221">
<rect width="25" height="25" fill="white"/>
</clipPath>
</defs>
</svg>
