<svg width="43" height="43" viewBox="0 0 43 43" fill="none" xmlns="http://www.w3.org/2000/svg">
<rect width="43" height="43" fill="#F5F5F5"/>
<rect width="1440" height="1580" transform="translate(-1182 -905)" fill="#FAFAFA"/>
<g filter="url(#filter0_d_0_1)">
<rect x="-840" y="-469" width="986" height="1061" rx="10" fill="white"/>
<rect x="-839.5" y="-468.5" width="985" height="1060" rx="9.5" stroke="#E0E0E0" stroke-opacity="0.5"/>
</g>
<rect x="0.5" y="0.5" width="42" height="42" rx="7.5" fill="#F1F1F1" fill-opacity="0.2" stroke="#F1F1F1"/>
<g clip-path="url(#clip0_0_1)">
<path d="M14.6406 31.0703C14.2358 31.0703 13.9082 31.3979 13.9082 31.8027V33.2676C13.9082 33.6724 14.2358 34 14.6406 34C15.0454 34 15.373 33.6724 15.373 33.2676V31.8027C15.373 31.3979 15.0454 31.0703 14.6406 31.0703ZM18.0881 29.8201C17.8021 29.5339 17.3386 29.5339 17.0525 29.8201C16.7664 30.1062 16.7664 30.5696 17.0525 30.8557L18.5173 32.3206C18.5852 32.3887 18.666 32.4427 18.7548 32.4795C18.8437 32.5164 18.939 32.5353 19.0352 32.5352C19.2225 32.5352 19.41 32.4636 19.553 32.3206C19.8391 32.0345 19.8391 31.571 19.553 31.2849L18.0881 29.8201ZM11.1931 29.8201L9.72827 31.2849C9.44214 31.571 9.44214 32.0345 9.72827 32.3206C10.0144 32.6066 10.4778 32.6067 10.7639 32.3206L12.2288 30.8557C12.5149 30.5696 12.5149 30.1062 12.2288 29.8201C11.9426 29.534 11.4792 29.5339 11.1931 29.8201ZM26.3594 11.9297C26.7642 11.9297 27.0918 11.6021 27.0918 11.1973V9.73242C27.0918 9.32764 26.7642 9 26.3594 9C25.9546 9 25.627 9.32764 25.627 9.73242V11.1973C25.627 11.6021 25.9546 11.9297 26.3594 11.9297ZM29.8069 13.2288L31.2717 11.7639C31.5579 11.4778 31.5579 11.0144 31.2717 10.7283C30.9856 10.4422 30.5222 10.4421 30.2361 10.7283L28.7712 12.1931C28.4851 12.4792 28.4851 12.9427 28.7712 13.2288C29.0574 13.5148 29.5208 13.5149 29.8069 13.2288ZM22.9119 13.2288C23.1979 13.5149 23.6614 13.5149 23.9475 13.2288C24.2336 12.9426 24.2336 12.4792 23.9475 12.1931L22.4827 10.7283C22.1966 10.4421 21.7331 10.4421 21.447 10.7283C21.1609 11.0144 21.1609 11.4778 21.447 11.7639L22.9119 13.2288ZM22.6973 21.5C22.6973 20.6909 22.0415 20.0352 21.2324 20.0352H20.5C20.0955 20.0352 19.7676 19.7073 19.7676 19.3027V14.9082H16.1055V14.1758C16.1055 12.9642 15.1197 11.9785 13.9082 11.9785C12.6967 11.9785 11.7109 12.9643 11.7109 14.1758V14.9082H8.73242C8.32764 14.9082 8 15.2358 8 15.6406V19.3027C8 19.7073 8.32788 20.0352 8.73242 20.0352H9.51367C10.3228 20.0352 10.9785 20.6909 10.9785 21.5C10.9785 22.3091 10.3228 22.9648 9.51367 22.9648H8.73242C8.32788 22.9648 8 23.2927 8 23.6973V27.3594C8 27.7642 8.32764 28.0918 8.73242 28.0918H11.7109C12.1155 28.0918 12.4434 27.7639 12.4434 27.3594V26.627C12.4434 25.8179 13.0991 25.1621 13.9082 25.1621C14.7173 25.1621 15.373 25.8179 15.373 26.627V27.3594C15.373 27.7642 15.7007 28.0918 16.1055 28.0918H19.7676V23.6973C19.7676 23.2927 20.0955 22.9648 20.5 22.9648H21.2324C22.0415 22.9648 22.6973 22.3091 22.6973 21.5Z" fill="#F05D61"/>
<path d="M31.4863 20.0352H32.2676C32.6721 20.0352 33 19.7073 33 19.3027V15.6406C33 15.2358 32.6724 14.9082 32.2676 14.9082H29.2891C28.8845 14.9082 28.5566 15.2361 28.5566 15.6406V16.373C28.5566 17.1821 27.9009 17.8379 27.0918 17.8379C26.2827 17.8379 25.627 17.1821 25.627 16.373V15.6406C25.627 15.2358 25.2993 14.9082 24.8945 14.9082H21.2324V18.5703C22.8972 18.5703 24.1621 19.9585 24.1621 21.5C24.1621 23.0417 22.8974 24.4297 21.2324 24.4297V28.0918H24.8945V28.8242C24.8945 30.0358 25.8803 31.0215 27.0918 31.0215C28.3033 31.0215 29.2891 30.0357 29.2891 28.8242V28.0918H32.2676C32.6724 28.0918 33 27.7642 33 27.3594V23.6973C33 23.2927 32.6721 22.9648 32.2676 22.9648H31.4863C30.6772 22.9648 30.0215 22.3091 30.0215 21.5C30.0215 20.6909 30.6772 20.0352 31.4863 20.0352Z" fill="#F05D61"/>
</g>
<defs>
<filter id="filter0_d_0_1" x="-852" y="-481" width="1010" height="1085" filterUnits="userSpaceOnUse" color-interpolation-filters="sRGB">
<feFlood flood-opacity="0" result="BackgroundImageFix"/>
<feColorMatrix in="SourceAlpha" type="matrix" values="0 0 0 0 0 0 0 0 0 0 0 0 0 0 0 0 0 0 127 0" result="hardAlpha"/>
<feOffset/>
<feGaussianBlur stdDeviation="6"/>
<feComposite in2="hardAlpha" operator="out"/>
<feColorMatrix type="matrix" values="0 0 0 0 0 0 0 0 0 0 0 0 0 0 0 0 0 0 0.03 0"/>
<feBlend mode="normal" in2="BackgroundImageFix" result="effect1_dropShadow_0_1"/>
<feBlend mode="normal" in="SourceGraphic" in2="effect1_dropShadow_0_1" result="shape"/>
</filter>
<clipPath id="clip0_0_1">
<rect width="25" height="25" fill="white" transform="translate(8 9)"/>
</clipPath>
</defs>
</svg>
