<svg width="48" height="48" viewBox="0 0 48 48" fill="none" xmlns="http://www.w3.org/2000/svg">
<rect width="48" height="48" rx="24" fill="#F1F3F4"/>
<path d="M24 17.625C25.5533 17.625 26.8125 16.3658 26.8125 14.8125C26.8125 13.2592 25.5533 12 24 12C22.4467 12 21.1875 13.2592 21.1875 14.8125C21.1875 16.3658 22.4467 17.625 24 17.625Z" fill="#78909C"/>
<path d="M33.1143 14.8878L33.1113 14.8846C32.9368 14.6985 32.7071 14.5734 32.456 14.5279C32.2049 14.4823 31.9459 14.5188 31.7171 14.6318L24.0002 18.4692L16.2853 14.6374C16.0562 14.5229 15.7963 14.4854 15.5442 14.5305C15.2921 14.5756 15.0613 14.7009 14.8861 14.8878C14.3902 15.4167 14.4791 16.2625 15.0741 16.6769L20.9065 20.7379L19.4967 34.6478C19.4233 35.3717 19.9915 36.0004 20.7192 36.0004C20.9935 36.0004 21.2599 35.9087 21.476 35.7397C21.6921 35.5708 21.8455 35.3343 21.9116 35.0681L24.0002 26.6676L26.0887 35.0681C26.2249 35.6159 26.7167 36.0004 27.2812 36.0004C28.0089 36.0004 28.5771 35.3717 28.5037 34.6478L27.094 20.7379L32.9263 16.6769C33.5213 16.2626 33.6102 15.4167 33.1143 14.8878Z" fill="#78909C"/>
</svg>
