<?xml version="1.0" encoding="UTF-8"?>
<svg id="Layer_1" data-name="Layer 1" xmlns="http://www.w3.org/2000/svg" viewBox="0 0 95 95">
  <defs>
    <style>
      .cls-1 {
        fill: #fff;
      }

      .cls-2 {
        fill: #e31e26;
      }
    </style>
  </defs>
  <g>
    <path d="m19.57,16.99c-.24.22-.51.36-.82.43-.31.07-.61.06-.91-.02s-.57-.25-.79-.49c-.21-.22-.34-.49-.41-.79-.07-.3-.06-.61.03-.92.09-.31.26-.58.51-.81.24-.21.51-.36.81-.43.31-.07.61-.07.92.02.3.09.57.25.8.5.22.24.36.51.42.82.06.31.04.61-.05.91-.09.3-.26.56-.51.79Z"/>
    <path class="cls-2" d="m27.65,12.32c-.61.35-1.2.53-1.77.54-.58,0-1.11-.15-1.6-.46-.49-.31-.92-.78-1.28-1.39-.27-.46-.44-.91-.52-1.35-.08-.44-.08-.87.02-1.28.1-.41.28-.79.56-1.14.28-.35.64-.66,1.1-.92.3-.18.62-.31.96-.41.34-.09.66-.13.96-.12.16,0,.28.05.38.13.1.08.16.17.2.28.03.11.04.22,0,.32-.03.11-.09.19-.19.26-.1.07-.23.1-.4.09-.23-.01-.47.02-.69.08-.23.07-.44.16-.65.28-.39.23-.67.5-.85.82-.18.32-.25.67-.21,1.05.04.38.19.8.44,1.24.25.44.54.77.86,1,.32.23.66.34,1.02.35.36,0,.74-.11,1.13-.34.21-.12.4-.27.57-.44.17-.17.32-.37.44-.58.08-.14.17-.24.27-.29.1-.05.2-.06.3-.04s.19.07.26.15c.08.08.12.17.15.29.02.12,0,.24-.05.37-.13.29-.32.56-.57.83-.26.26-.54.49-.86.67Z"/>
    <path class="cls-2" d="m31.04,10.57c-.18.07-.33.08-.47.02-.13-.06-.24-.18-.31-.36l-2.1-5.28c-.07-.18-.08-.34-.02-.48.06-.13.17-.23.35-.3s.33-.08.47-.02c.14.06.24.18.31.36l.92,2.3-.12.05c0-.37.11-.69.32-.96.21-.27.49-.48.84-.62.35-.14.66-.19.94-.15.28.04.53.17.74.39.22.22.41.53.57.93l.86,2.15c.07.18.08.34.03.48-.06.14-.17.24-.35.31s-.33.08-.47.02c-.14-.06-.24-.18-.32-.36l-.83-2.1c-.13-.34-.3-.56-.49-.66-.19-.1-.42-.1-.68,0-.33.13-.54.33-.66.62-.11.28-.1.59.03.93l.77,1.95c.15.38.04.64-.33.79Z"/>
    <path class="cls-2" d="m37.24,8.45c-.33.08-.64.09-.92.03-.29-.06-.53-.18-.73-.36-.2-.18-.33-.41-.4-.68-.08-.33-.06-.62.06-.86.12-.24.37-.45.74-.63.37-.18.88-.36,1.54-.52l.46-.12.17.67-.46.11c-.38.1-.69.19-.9.29-.22.1-.37.2-.44.31-.07.11-.09.25-.05.41.05.21.16.35.34.45.17.09.39.11.64.05.21-.05.37-.15.51-.28.13-.14.23-.3.28-.49.05-.19.05-.39,0-.61l-.27-1.07c-.08-.31-.2-.52-.37-.62s-.42-.11-.74-.03c-.18.04-.37.11-.56.21-.2.1-.4.22-.6.39-.1.08-.2.13-.3.12-.1,0-.18-.04-.25-.1-.07-.06-.11-.14-.14-.24-.02-.09-.02-.19,0-.29.03-.1.09-.19.2-.26.26-.19.51-.34.76-.46.25-.12.48-.2.7-.25.45-.11.83-.14,1.15-.07.32.06.59.21.8.45.21.24.37.58.48,1.01l.56,2.23c.05.19.04.35-.03.48-.07.13-.19.21-.36.25-.17.04-.32.03-.44-.05-.12-.08-.21-.21-.25-.41l-.11-.45.07-.02c.01.23-.03.44-.11.62-.09.19-.22.35-.39.49-.17.13-.38.23-.63.29Z"/>
    <path class="cls-2" d="m42.5,7.42c-.52.07-.94-.02-1.25-.28-.31-.26-.5-.68-.59-1.27l-.64-4.48c-.03-.2,0-.35.09-.47.09-.12.22-.19.41-.22.19-.03.34,0,.46.09.12.09.19.23.22.42l.63,4.43c.04.29.13.5.28.62.14.12.33.17.56.13.05,0,.1-.01.14-.02.04,0,.09-.02.13-.03.09-.03.15,0,.19.05.04.06.07.17.1.36.02.16,0,.29-.04.38-.05.1-.15.17-.29.21-.06.02-.13.03-.2.05-.07.02-.14.03-.21.04Z"/>
    <path class="cls-2" d="m45.66,7.15c-.53.03-.94-.09-1.22-.38-.29-.29-.45-.72-.49-1.31l-.29-4.52c-.01-.2.03-.35.12-.46.1-.11.24-.17.43-.18.19-.01.34.03.45.12.11.1.17.24.19.44l.29,4.46c.02.29.09.51.23.64.13.13.31.19.54.18.05,0,.1,0,.14-.01.04,0,.09-.01.13-.02.09-.02.15,0,.19.06.04.06.06.18.07.36.01.16-.01.28-.07.38-.06.09-.16.15-.3.18-.06.01-.13.02-.2.03-.07.01-.14.02-.21.02Z"/>
    <path class="cls-2" d="m49.45,7.16c-.53-.02-.98-.14-1.36-.35-.38-.21-.66-.5-.85-.88-.19-.37-.28-.81-.26-1.3.02-.48.14-.91.35-1.26.21-.36.5-.63.87-.82.36-.19.77-.28,1.22-.26.33.01.63.08.89.2.26.12.48.28.66.5.18.21.31.46.4.76.09.29.12.62.11.99,0,.11-.05.2-.13.26s-.2.08-.34.08l-3.07-.12.03-.69,2.69.11-.16.14c.01-.29-.02-.54-.1-.74-.08-.2-.2-.36-.35-.47-.16-.11-.36-.17-.6-.18-.27-.01-.5.04-.69.16-.19.12-.34.29-.45.51-.11.22-.17.49-.18.8v.07c-.02.52.08.92.32,1.19.24.27.59.41,1.07.43.17,0,.35,0,.56-.04.21-.03.41-.1.6-.19.14-.07.26-.1.36-.09s.18.05.24.12c.06.07.09.15.1.24,0,.09-.01.19-.06.28-.05.09-.14.17-.25.24-.23.13-.49.23-.78.28-.29.06-.56.08-.81.07Z"/>
    <path class="cls-2" d="m52.92,7.43c-.19-.03-.32-.11-.41-.23-.08-.12-.11-.28-.07-.47l.63-3.56c.03-.19.11-.33.23-.42.12-.08.27-.11.45-.08.18.03.31.11.4.23s.11.27.07.47l-.11.64-.06-.25c.2-.31.46-.52.78-.65.32-.12.67-.15,1.04-.08.37.06.66.19.88.37.21.18.36.42.43.72.07.3.07.66,0,1.09l-.4,2.28c-.03.19-.11.33-.23.42-.12.09-.27.11-.46.08-.19-.03-.33-.11-.41-.23-.08-.12-.11-.28-.08-.47l.39-2.22c.06-.36.04-.63-.06-.82-.11-.19-.3-.31-.58-.36-.35-.06-.64,0-.88.18-.24.18-.4.45-.46.81l-.36,2.06c-.07.4-.3.57-.7.5Z"/>
    <path class="cls-2" d="m59.36,10.71c-.33-.11-.64-.24-.92-.4-.29-.16-.53-.34-.74-.55-.1-.1-.15-.2-.16-.29-.01-.1,0-.19.05-.27.04-.08.11-.15.18-.2.08-.05.17-.07.26-.07.09,0,.18.04.25.12.22.22.45.39.68.51s.42.2.6.26c.41.13.74.13,1.01,0,.27-.13.46-.39.59-.78l.27-.82.08.03c-.19.28-.46.46-.81.56-.35.09-.71.08-1.07-.04-.4-.13-.72-.34-.96-.62-.24-.28-.38-.62-.44-1-.06-.39-.01-.8.13-1.24.11-.33.25-.62.44-.86.18-.24.39-.43.63-.57.24-.14.49-.22.77-.25.28-.02.57,0,.87.11.38.12.68.32.9.6.22.28.33.58.31.91l-.16.2.21-.65c.06-.19.16-.31.29-.38.13-.06.29-.07.46-.01.18.06.31.15.37.28.06.13.07.29,0,.48l-1.14,3.5c-.24.72-.6,1.2-1.1,1.44s-1.12.24-1.84,0Zm.85-2.71c.24.08.46.09.66.03.21-.05.39-.17.55-.34.16-.17.29-.4.38-.68.14-.42.14-.78.01-1.09-.13-.31-.37-.52-.72-.63-.24-.08-.46-.09-.66-.03s-.39.17-.55.33c-.16.17-.28.39-.38.67-.14.42-.14.78-.01,1.09s.37.52.72.64Z"/>
    <path class="cls-2" d="m65.37,11.29c-.48-.23-.84-.52-1.1-.86-.26-.34-.4-.73-.43-1.14-.03-.42.07-.85.28-1.3.21-.44.49-.77.83-1.01.34-.24.71-.38,1.12-.41.41-.03.82.05,1.23.25.3.14.54.32.73.54.19.21.33.45.41.72.08.27.1.55.06.86s-.13.62-.29.95c-.05.1-.12.16-.22.18-.1.02-.21,0-.35-.07l-2.77-1.34.3-.62,2.42,1.17-.2.06c.13-.26.2-.5.2-.72,0-.22-.04-.41-.14-.57-.1-.16-.26-.3-.48-.41-.24-.12-.47-.16-.7-.13-.22.03-.43.13-.62.29-.19.16-.35.38-.48.66l-.03.06c-.23.47-.29.88-.18,1.22.11.34.38.61.81.82.15.07.33.13.53.19.21.05.41.07.62.06.15-.01.27,0,.36.06.09.05.15.12.17.21s.03.17,0,.26c-.03.09-.09.17-.17.23-.08.07-.19.1-.33.12-.26.03-.54.01-.83-.05-.29-.07-.55-.15-.77-.26Z"/>
    <path class="cls-2" d="m68.5,12.99c-.17-.1-.27-.23-.3-.38-.03-.15,0-.3.11-.47l1.93-3.06c.11-.17.23-.27.37-.3.14-.03.29,0,.45.1.16.1.25.22.28.36.03.14,0,.3-.11.46l-.32.51-.08-.05c.28-.28.58-.43.91-.46.33-.03.68.06,1.07.26.12.06.19.15.22.26.02.11,0,.24-.08.39-.07.14-.17.23-.3.27-.13.04-.27.02-.42-.06l-.19-.1c-.35-.17-.66-.23-.94-.17-.27.06-.51.25-.7.56l-1.06,1.68c-.1.17-.23.27-.37.3-.14.03-.3,0-.47-.11Z"/>
    <path d="m75.35,16.98c-.23-.21-.39-.46-.49-.75-.09-.29-.11-.58-.06-.87.05-.3.19-.56.4-.8.2-.22.44-.37.72-.46.29-.09.58-.11.88-.05.3.06.58.19.82.42.23.21.39.45.48.74.1.29.12.58.06.88-.06.3-.19.57-.41.81-.21.23-.46.39-.75.47-.29.08-.58.09-.88.03s-.56-.2-.8-.42Z"/>
    <path d="m80.57,24.3c-.39-.54-.61-1.08-.66-1.63-.05-.55.06-1.07.33-1.58.27-.51.7-.97,1.28-1.39.43-.31.87-.54,1.29-.67.43-.13.84-.17,1.24-.13.4.05.78.18,1.14.41.36.23.69.54.98.93.23.32.41.66.53,1.01.12.35.17.7.14,1.04,0,.1-.03.19-.08.26-.05.07-.11.12-.18.14-.07.02-.14.03-.21.01-.07-.02-.13-.05-.17-.12-.05-.06-.07-.15-.07-.27.02-.29-.02-.58-.11-.85-.09-.27-.23-.54-.41-.8-.29-.41-.63-.69-1.01-.85-.38-.16-.79-.19-1.22-.1-.44.09-.89.31-1.36.65s-.82.7-1.05,1.09c-.23.38-.33.78-.3,1.19.03.41.2.82.49,1.23.18.25.39.47.63.64.24.17.5.3.79.39.11.04.18.09.23.16.04.06.06.13.05.2,0,.07-.03.13-.08.19-.04.06-.1.1-.18.13-.08.03-.16.03-.25,0-.34-.08-.67-.24-.97-.46-.31-.22-.58-.5-.82-.83Z"/>
    <path d="m83.19,28.59c-.21-.4-.31-.79-.29-1.18.02-.39.15-.74.38-1.07s.57-.61,1-.84c.33-.17.65-.28.96-.33.31-.05.6-.03.88.04.28.08.53.21.76.4.23.19.42.43.58.73.21.4.31.79.29,1.18-.02.39-.15.74-.38,1.07-.23.33-.57.61-1,.84-.33.17-.64.28-.95.33-.31.05-.6.03-.88-.04-.28-.07-.53-.21-.76-.39-.23-.19-.42-.43-.58-.73Zm.55-.29c.13.25.31.44.54.57.23.13.48.18.78.16.29-.02.6-.12.94-.29.51-.27.85-.59,1-.97.15-.37.12-.75-.08-1.14-.14-.26-.32-.45-.54-.58-.22-.12-.48-.18-.77-.16-.29.02-.61.12-.95.3-.51.27-.84.59-.99.97-.15.38-.13.76.08,1.14Z"/>
    <path d="m84.91,31.92c-.04-.12-.04-.22,0-.31.05-.08.13-.14.25-.18l3.79-1.26c.12-.04.22-.04.31,0,.08.04.14.12.18.23s.04.22,0,.3c-.04.08-.12.15-.25.19l-.8.26.09-.14c.38,0,.7.1.97.3.27.19.46.47.58.83.12.38.14.71.04,1-.1.29-.33.54-.68.74l-.04-.14c.38,0,.71.1,1,.32.29.22.5.51.62.89.11.33.14.63.08.88-.06.26-.19.48-.42.68-.22.2-.53.36-.92.49l-2.43.81c-.12.04-.23.04-.31,0-.09-.04-.15-.12-.19-.24s-.03-.22.01-.3c.05-.09.13-.15.25-.19l2.4-.8c.41-.13.68-.3.83-.51.15-.2.16-.47.05-.8-.12-.36-.34-.61-.66-.73-.32-.13-.7-.12-1.13.03l-2.18.72c-.12.04-.23.04-.31,0s-.15-.12-.19-.24c-.04-.11-.04-.22.01-.3.05-.09.13-.15.25-.19l2.4-.8c.41-.13.68-.31.82-.51.14-.21.16-.47.05-.8-.12-.36-.34-.61-.66-.73-.32-.13-.7-.12-1.13.03l-2.18.72c-.25.08-.42,0-.5-.25Z"/>
    <path d="m85.49,39.99c-.02-.13,0-.23.06-.3.06-.07.15-.12.27-.14l5.66-.87c.13-.02.23,0,.3.05.08.05.12.14.14.26.02.13,0,.23-.06.3-.06.08-.15.12-.27.14l-.9.14.12-.13c.38.05.69.2.95.47.26.27.42.61.48,1.03.06.41.02.78-.12,1.12-.15.34-.38.61-.71.84-.33.22-.74.37-1.23.45-.49.07-.92.06-1.3-.06-.38-.11-.69-.3-.94-.58-.24-.27-.4-.62-.46-1.03-.06-.42-.01-.79.15-1.12.17-.33.42-.57.75-.74l.02.11-2.46.38c-.13.02-.23,0-.3-.06-.08-.06-.12-.15-.14-.27Zm2.58,1.43c.04.29.15.53.32.72.17.19.4.32.68.4.28.08.61.08.98.03.57-.09.99-.28,1.26-.59.26-.3.36-.67.29-1.11-.04-.28-.15-.52-.32-.72-.17-.19-.39-.33-.67-.4-.28-.08-.61-.08-1-.03-.57.09-.98.28-1.25.59-.27.31-.37.67-.3,1.1Z"/>
    <path d="m87.9,47c-.01-.49.08-.92.27-1.27.19-.36.46-.64.81-.84.35-.2.78-.31,1.28-.32.48,0,.91.08,1.27.26.36.18.65.44.86.77.21.33.32.72.33,1.16,0,.31-.04.59-.14.84-.1.25-.25.47-.44.65-.19.18-.43.32-.71.42-.28.1-.59.15-.95.16-.1,0-.18-.02-.23-.08-.05-.06-.07-.14-.08-.25l-.07-3.33h.51s.06,3.14.06,3.14l-.13-.15c.34,0,.64-.06.87-.17.24-.11.42-.26.54-.46.12-.2.18-.44.18-.74,0-.33-.09-.6-.24-.82-.15-.22-.37-.39-.63-.5-.27-.11-.58-.16-.93-.15h-.06c-.59.01-1.03.16-1.33.45-.3.29-.45.7-.43,1.22,0,.22.04.43.1.64.06.21.16.42.3.62.06.09.09.17.09.24,0,.07-.02.13-.06.18-.04.05-.09.08-.15.09-.06.02-.13.01-.2-.01-.07-.03-.13-.08-.19-.16-.16-.21-.28-.45-.37-.74-.09-.29-.14-.57-.14-.85Z"/>
    <path d="m87.67,51.92c.03-.36.12-.66.27-.89.15-.23.36-.4.62-.5.26-.1.57-.13.94-.1l2.43.21.06-.64c0-.11.04-.19.1-.24.06-.05.14-.08.23-.07.1,0,.17.04.21.11.05.06.06.15.05.25l-.06.64,1.1.1c.13.01.22.06.28.13.06.08.09.17.07.29-.01.12-.05.21-.12.27-.07.06-.17.09-.3.08l-1.1-.1-.1,1.2c0,.11-.04.19-.1.24s-.13.07-.23.07c-.1,0-.17-.04-.22-.1-.05-.06-.07-.15-.06-.26l.1-1.2-2.36-.21c-.36-.03-.64.02-.84.16-.2.14-.32.38-.35.72-.01.12,0,.22.01.31.02.09.02.16.02.22,0,.06-.02.1-.07.14-.05.03-.13.05-.23.04-.08,0-.15-.03-.21-.06-.06-.03-.1-.09-.12-.16-.02-.08-.03-.18-.04-.31-.01-.13-.01-.24,0-.34Z"/>
    <path d="m87.11,55.44c.09-.48.27-.88.53-1.19.26-.31.58-.53.97-.65.39-.12.83-.14,1.31-.04.48.09.87.27,1.19.52.32.26.54.57.68.94.14.37.16.77.08,1.2-.06.31-.16.57-.32.8-.15.22-.34.4-.57.54-.23.14-.49.22-.78.26-.29.04-.61.02-.96-.04-.1-.02-.17-.06-.21-.13-.04-.07-.04-.15-.02-.26l.63-3.27.5.1-.6,3.09-.09-.17c.34.07.63.07.89.02.25-.06.46-.17.62-.33.16-.17.27-.39.33-.68.06-.32.04-.61-.06-.85-.1-.25-.28-.46-.51-.62-.24-.16-.53-.28-.87-.34h-.06c-.58-.12-1.04-.07-1.4.15s-.58.59-.68,1.1c-.04.21-.05.43-.04.65s.07.44.16.67c.04.1.05.18.03.25-.02.07-.05.12-.1.16-.05.04-.11.06-.17.06-.06,0-.13-.01-.19-.06-.06-.04-.11-.11-.15-.2-.11-.24-.18-.5-.21-.8-.03-.3-.01-.58.04-.86Z"/>
    <path d="m86.34,58.78c.04-.12.1-.2.19-.24.09-.04.19-.04.31,0l3.78,1.27c.12.04.2.1.25.18.04.08.05.18,0,.29-.04.11-.1.19-.18.24-.08.04-.19.04-.31,0l-.78-.26.14-.06c.31.24.5.54.59.89.08.35.06.71-.06,1.08-.12.35-.28.62-.48.81-.21.19-.46.3-.75.33-.3.03-.64-.02-1.03-.15l-2.43-.82c-.12-.04-.2-.1-.25-.19-.04-.09-.05-.19,0-.3.04-.12.1-.2.19-.24.09-.04.19-.04.31,0l2.39.8c.41.14.74.16.98.06.24-.1.43-.32.54-.67.14-.4.12-.77-.05-1.09-.17-.32-.47-.56-.88-.7l-2.2-.74c-.25-.08-.34-.25-.26-.5Z"/>
    <path d="m83.79,65.25c.15-.33.34-.58.56-.75.22-.17.47-.26.75-.26.28,0,.58.07.92.22l2.22,1.02.27-.58c.05-.1.11-.16.18-.19.07-.03.15-.02.24.02.09.04.14.1.16.17.02.07.01.16-.04.26l-.27.58,1,.46c.12.05.19.13.22.22.03.09.02.19-.03.3-.05.11-.12.18-.21.21-.09.03-.19.02-.31-.03l-1-.46-.51,1.1c-.05.1-.1.16-.17.19-.07.03-.15.02-.24-.01-.09-.04-.14-.1-.17-.17-.02-.08-.02-.16.03-.26l.51-1.09-2.15-.99c-.33-.15-.61-.2-.85-.14-.23.06-.42.25-.57.56-.05.11-.08.21-.1.3-.01.09-.03.16-.05.21-.02.06-.06.09-.11.11-.06.02-.13,0-.23-.04-.07-.03-.13-.07-.17-.13-.05-.05-.07-.12-.06-.19,0-.08.03-.18.06-.3.03-.12.07-.23.11-.32Z"/>
    <path d="m82.04,66.8c-.04-.1-.05-.18-.03-.25.02-.07.06-.12.12-.14.06-.02.12-.02.18,0s.12.09.16.19c.07.15.15.28.25.38.1.1.2.18.3.23l-.19-.06c.08-.15.19-.24.32-.28s.27-.02.4.05c.13.07.22.18.26.31.04.13.02.26-.05.39-.08.15-.19.23-.34.26-.14.03-.31,0-.49-.11-.12-.06-.23-.14-.34-.23-.11-.09-.22-.2-.32-.33-.1-.13-.18-.27-.24-.43Z"/>
    <path d="m80.18,71.3c.07-.1.16-.16.26-.17.1,0,.2.03.31.1l3.17,2.3c.11.08.17.17.19.26.02.09,0,.19-.08.29-.07.1-.16.16-.25.17-.1.02-.2-.02-.31-.09l-3.17-2.3c-.11-.08-.17-.17-.19-.26-.02-.1,0-.2.08-.3Zm4.71,3.42c.09-.13.2-.2.32-.23.12-.02.24.01.36.1.12.09.19.19.2.31.01.12-.03.24-.12.37-.1.13-.2.21-.32.24-.11.02-.23-.01-.36-.1-.12-.09-.19-.19-.21-.31-.02-.12.02-.25.12-.38Z"/>
    <path d="m78.78,73.13c.08-.1.17-.14.27-.14.09,0,.19.04.29.13l2.99,2.65c.1.08.15.17.16.27,0,.09-.03.18-.11.27-.08.09-.17.14-.26.15-.09,0-.19-.03-.29-.12l-.62-.55h.16c.19.34.25.69.19,1.04-.06.35-.22.67-.48.97-.25.28-.5.46-.76.56-.26.1-.54.1-.82,0-.28-.09-.58-.27-.89-.55l-1.92-1.7c-.1-.09-.15-.18-.16-.27,0-.1.03-.19.11-.28.08-.1.18-.15.27-.15.1,0,.19.04.29.12l1.88,1.67c.32.29.62.44.88.44.26,0,.52-.13.76-.41.28-.32.41-.66.38-1.03-.03-.36-.21-.69-.54-.98l-1.73-1.54c-.2-.18-.21-.36-.04-.56Z"/>
    <path d="m71.86,79.82c.35-.3.71-.42,1.08-.36.37.06.72.28,1.06.68l3.16,3.72c.08.1.12.19.12.28,0,.09-.06.18-.15.26-.09.08-.19.11-.28.11-.1,0-.19-.06-.27-.15l-3.12-3.68c-.22-.26-.44-.41-.66-.45-.21-.04-.42.03-.63.2-.04.04-.08.07-.11.11-.03.03-.06.06-.1.09-.05.05-.1.07-.14.06-.05-.01-.11-.06-.18-.15-.07-.09-.11-.17-.11-.25,0-.08.04-.16.12-.25.03-.04.07-.08.11-.12.04-.04.08-.08.12-.11Zm3.04-2.56c.09-.08.19-.11.28-.1.1.01.19.06.27.16l2.4,2.83.47-.4c.08-.07.16-.1.24-.1.08,0,.15.04.21.11.06.07.09.15.07.23-.01.08-.06.15-.14.22l-.63.53.03-.29.24.28c.39.46.58.91.56,1.35-.02.44-.23.86-.64,1.27l-.19.2c-.06.06-.13.1-.2.1-.07,0-.12,0-.17-.04-.05-.03-.09-.08-.12-.13s-.04-.11-.04-.18c0-.06.03-.12.07-.16l.16-.16c.28-.28.42-.55.42-.82,0-.27-.13-.55-.38-.86l-.26-.31.18.04-.88.74c-.08.07-.16.1-.24.1-.08,0-.15-.04-.21-.11-.06-.07-.09-.15-.08-.23,0-.08.05-.15.14-.22l.79-.67-2.4-2.83c-.17-.21-.16-.39.04-.56Z"/>
    <path d="m69.3,81.52c.32-.2.62-.31.9-.32.28-.01.55.06.8.23s.49.42.7.77l1.37,2.17c.07.11.1.21.07.3-.02.09-.08.17-.19.23-.11.07-.21.09-.3.07-.09-.02-.17-.08-.24-.2l-1.36-2.16c-.22-.35-.45-.56-.7-.64-.25-.08-.53-.02-.84.17-.34.21-.54.5-.6.86-.07.36.01.72.25,1.09l1.23,1.96c.07.11.1.22.07.31-.02.09-.09.17-.2.24-.1.06-.2.09-.29.07-.09-.02-.17-.08-.24-.2l-2.13-3.38c-.14-.23-.11-.41.1-.54.1-.06.2-.08.3-.06.09.02.17.09.24.2l.46.74-.18-.05c-.09-.39-.07-.74.07-1.06.14-.32.37-.59.7-.79Z"/>
    <path d="m64.16,84.3c.45-.21.87-.29,1.27-.26.4.03.77.17,1.09.41.33.24.59.59.8,1.04.2.44.29.86.27,1.27-.02.41-.15.77-.36,1.1-.22.32-.53.58-.93.76-.28.13-.56.2-.83.21-.27,0-.53-.04-.77-.15-.24-.11-.46-.27-.67-.49-.2-.22-.38-.48-.52-.8-.04-.09-.05-.17-.02-.24.03-.07.1-.12.2-.17l3.03-1.39.21.46-2.86,1.31.09-.18c.14.31.31.56.5.73.19.17.4.28.63.31.23.03.48,0,.75-.13.3-.14.52-.32.66-.55.14-.23.21-.49.21-.78,0-.29-.08-.59-.23-.91l-.02-.05c-.25-.53-.56-.88-.95-1.04-.39-.16-.82-.13-1.29.09-.2.09-.38.21-.55.35-.17.14-.32.31-.45.52-.06.09-.12.15-.19.18-.07.03-.13.03-.19.01-.06-.02-.11-.05-.15-.1-.04-.05-.06-.11-.06-.19,0-.08.02-.15.08-.23.13-.23.3-.44.53-.63.23-.2.47-.35.72-.47Z"/>
    <path d="m61.03,85.61c.12-.04.22-.03.31.02.08.05.14.13.18.25l1.18,3.81c.04.12.04.22,0,.31-.04.08-.12.14-.24.18-.12.04-.21.03-.3-.01-.08-.04-.14-.13-.18-.25l-.24-.79.14.08c-.02.39-.14.72-.38.99-.23.27-.54.46-.92.58-.35.11-.67.14-.94.08-.27-.05-.51-.19-.71-.42s-.35-.53-.48-.93l-.76-2.45c-.04-.12-.04-.23,0-.31.04-.09.12-.15.24-.18.12-.04.23-.03.31.01.08.05.15.13.18.25l.75,2.4c.13.41.3.69.52.83.22.14.51.16.86.05.41-.13.69-.35.86-.68.16-.33.18-.7.05-1.12l-.69-2.21c-.08-.25,0-.42.26-.5Z"/>
    <path d="m54.19,87.34c.46-.08.87-.05,1.24.09.37.14.68.38.92.7.25.33.41.73.5,1.21.07.36.07.7.03,1.01-.05.31-.15.58-.31.82-.16.24-.36.44-.62.59-.25.16-.55.27-.9.33-.23.04-.47.05-.73.02-.26-.02-.5-.1-.73-.24-.07-.03-.12-.08-.15-.14-.03-.06-.04-.12-.03-.18,0-.06.03-.12.07-.17.04-.05.09-.08.15-.1.06-.02.14,0,.21.03.19.1.37.15.55.17.18.02.35.01.5-.01.24-.05.45-.12.62-.23.17-.11.3-.25.4-.42.1-.17.16-.37.19-.59.03-.23.02-.48-.04-.76-.1-.55-.31-.95-.62-1.23-.32-.27-.71-.36-1.19-.27-.16.03-.31.08-.47.16-.16.08-.31.2-.46.36-.06.06-.12.1-.19.1-.06,0-.12,0-.17-.04-.05-.03-.09-.08-.12-.14-.03-.06-.04-.12-.03-.19,0-.06.04-.12.09-.18.17-.2.37-.36.6-.47.23-.12.45-.19.68-.23Z"/>
    <path d="m51.27,87.76c.13-.01.23.02.3.08.07.07.11.17.13.3l.37,3.9c.01.13,0,.24-.07.31-.06.07-.15.12-.28.13-.12.01-.22-.01-.3-.08-.08-.06-.12-.16-.13-.3l-.37-3.9c-.01-.13.01-.24.07-.32.06-.08.15-.13.28-.14Zm.55,5.79c.16-.01.29.02.38.09.1.08.15.19.17.34.01.15-.02.27-.1.36-.08.09-.2.14-.36.15-.17.02-.29-.01-.39-.08-.09-.07-.15-.18-.16-.34-.01-.15.02-.27.1-.36.08-.09.2-.15.36-.16Z"/>
    <path d="m47.88,87.9c.32,0,.6.06.86.19.25.12.45.29.6.51.15.22.22.46.22.73,0,.34-.09.62-.26.81-.18.2-.46.34-.87.42-.4.08-.96.13-1.66.13h-.43v-.51s.42,0,.42,0c.52,0,.92-.03,1.22-.07.3-.05.5-.13.62-.25.12-.11.18-.28.18-.49,0-.26-.09-.47-.27-.64-.18-.17-.43-.25-.74-.25-.26,0-.48.06-.67.18-.2.12-.35.29-.46.5s-.17.45-.17.73v1.09c0,.39.08.68.24.85.16.18.42.26.79.26.22,0,.45-.03.67-.09.22-.06.46-.15.71-.28.09-.04.17-.06.23-.04.06.02.12.05.15.1.04.05.06.11.07.18,0,.07,0,.13-.04.2-.03.06-.09.11-.17.15-.28.14-.56.24-.83.31-.27.06-.54.1-.78.1-.4,0-.73-.06-1-.19-.26-.13-.46-.33-.58-.59-.13-.26-.19-.6-.19-1.02v-2.59c0-.13.03-.23.09-.3.06-.07.15-.11.26-.11.12,0,.21.04.28.11.06.07.1.17.1.3v.75s-.09,0-.09,0c.05-.24.15-.45.29-.62.14-.17.32-.31.53-.4s.45-.14.71-.14Z"/>
    <path d="m42.81,87.63c.46.04.79.22,1.01.52s.29.72.24,1.24l-.48,4.86c-.01.13-.05.22-.12.28-.07.06-.17.08-.3.07-.12-.01-.21-.05-.28-.13-.06-.07-.09-.17-.08-.3l.47-4.8c.03-.34,0-.6-.13-.79-.12-.18-.31-.29-.58-.31-.06,0-.11,0-.15,0-.04,0-.09,0-.13,0-.07,0-.12-.02-.14-.06-.02-.04-.03-.12-.02-.23.01-.11.04-.2.1-.25.06-.05.14-.08.26-.09.05,0,.11,0,.16,0,.06,0,.11,0,.16,0Z"/>
    <path d="m40.87,86.52c.08-.07.15-.11.22-.11.07,0,.13.02.17.07.04.05.06.1.05.17,0,.07-.05.14-.13.21-.12.12-.21.24-.28.37-.06.13-.1.25-.12.36v-.2c.16.03.28.1.36.21.08.11.11.25.08.4-.03.15-.09.27-.2.35-.11.08-.24.11-.39.08-.16-.03-.28-.1-.36-.23-.08-.13-.1-.29-.06-.5.02-.13.06-.27.11-.4.05-.14.12-.27.2-.41.09-.13.2-.26.33-.37Z"/>
    <path d="m36.61,84.67c.12.04.2.1.24.19.04.08.04.19,0,.31l-1.85,5.42c-.04.12-.1.2-.19.25-.08.04-.18.04-.29,0-.12-.04-.2-.1-.24-.19-.04-.08-.04-.19,0-.31l.29-.86.06.16c-.21.31-.5.52-.85.62-.36.1-.73.09-1.13-.05-.39-.13-.7-.34-.93-.63-.23-.28-.37-.62-.41-1.02-.04-.4.01-.83.18-1.3.16-.46.38-.84.65-1.13.28-.29.59-.47.95-.56.35-.09.73-.06,1.13.07.4.14.71.35.92.65s.32.64.3,1.01l-.11-.04.81-2.35c.04-.12.11-.2.19-.24.09-.04.19-.04.3,0Zm-2.46,1.62c-.28-.1-.54-.11-.79-.05-.25.06-.47.2-.67.42-.2.22-.36.5-.48.86-.19.55-.21,1.01-.06,1.38.15.37.43.63.84.77.27.09.53.11.78.05.25-.06.47-.2.67-.41.2-.21.36-.5.48-.87.19-.54.21-1,.06-1.38-.15-.38-.43-.64-.84-.78Z"/>
    <path d="m29.44,83.63c.41.2.71.47.92.79.21.32.31.69.31,1.09,0,.4-.11.83-.33,1.27-.17.33-.36.61-.58.83-.22.22-.47.38-.74.48-.27.1-.55.14-.85.12-.29-.02-.59-.11-.89-.26-.4-.2-.71-.47-.92-.79-.21-.33-.31-.69-.31-1.09,0-.4.11-.83.33-1.26.17-.33.36-.6.58-.82.22-.22.47-.38.74-.48.27-.1.56-.14.85-.12.29.02.59.11.89.26Zm-.28.56c-.26-.13-.51-.18-.77-.15-.26.03-.5.14-.72.32-.23.19-.42.45-.59.78-.26.52-.34.97-.25,1.36.09.39.34.68.73.88.26.13.52.18.77.16.25-.03.49-.13.71-.32.22-.18.42-.45.6-.8.26-.51.34-.97.24-1.36-.1-.39-.34-.69-.73-.88Z"/>
    <path d="m25.18,81.23c.09.06.15.14.18.24.03.09.03.21,0,.34l-1.11,3.98c-.03.11-.08.19-.14.25-.06.06-.13.09-.21.08-.08,0-.16-.03-.23-.09s-.13-.12-.15-.19c-.02-.07-.01-.17.03-.29l1.16-3.89.19.14-3.36,2.3c-.1.07-.2.1-.28.1s-.17-.03-.26-.1c-.08-.06-.14-.13-.16-.21-.03-.08-.02-.18,0-.29l1.15-3.89.18.13-3.35,2.32c-.1.07-.19.1-.27.09s-.15-.03-.22-.08c-.08-.06-.13-.13-.15-.2-.01-.07,0-.15.04-.22.04-.07.11-.13.2-.19l3.43-2.31c.11-.07.21-.11.32-.11.11,0,.2.03.29.1.09.06.15.14.18.24.03.1.03.21,0,.33l-1.13,3.98-.33-.24,3.42-2.33c.11-.07.21-.11.32-.11.1,0,.2.03.29.1Z"/>
    <path d="m18.71,75.84c.35.35.58.72.69,1.1.11.39.11.78,0,1.17-.12.39-.35.76-.7,1.11-.34.34-.71.57-1.1.69-.39.12-.78.13-1.16.04-.38-.09-.73-.3-1.04-.61-.22-.22-.38-.46-.48-.71-.1-.25-.14-.51-.13-.77.02-.26.09-.53.22-.79.13-.26.32-.52.57-.77.07-.07.15-.1.22-.1.07,0,.15.05.23.13l2.35,2.35-.36.36-2.23-2.23.2.02c-.24.24-.41.49-.51.73-.1.24-.12.48-.08.7.05.23.18.45.38.65.23.23.48.37.74.43.27.05.53.03.8-.08s.53-.28.77-.53l.04-.04c.42-.42.63-.83.65-1.25.02-.42-.16-.81-.53-1.18-.15-.15-.33-.29-.52-.4-.19-.11-.41-.19-.65-.24-.1-.02-.18-.06-.23-.12-.05-.05-.08-.11-.08-.17,0-.06.01-.12.04-.17.03-.05.08-.1.15-.13s.15-.03.25,0c.26.04.52.13.78.28.26.14.49.32.69.52Z"/>
    <path d="m16.36,73.28c.08.1.11.2.1.29-.01.1-.07.18-.17.26l-3.11,2.5c-.1.08-.19.12-.29.11s-.18-.06-.25-.15c-.08-.09-.11-.19-.1-.28.01-.09.07-.18.17-.26l.6-.49.06.07c-.36.16-.71.19-1.04.09-.34-.09-.65-.3-.92-.62-.07-.07-.1-.14-.09-.22,0-.08.04-.15.13-.23.08-.07.16-.11.25-.1.09,0,.17.05.26.14l.11.11c.3.31.62.49.95.52.33.03.66-.08.98-.34l1.81-1.45c.1-.08.2-.12.29-.11s.18.06.27.16Z"/>
    <path d="m13.97,70.07c.07.1.09.2.07.29-.02.09-.08.18-.19.25l-3.09,2.05.34.51c.06.09.08.17.07.25-.01.08-.06.15-.14.2s-.16.07-.23.05c-.08-.02-.14-.08-.2-.16l-.46-.69.28.06-.3.2c-.5.34-.97.47-1.4.4-.43-.07-.83-.33-1.19-.78l-.18-.22c-.05-.07-.08-.14-.08-.21,0-.07.02-.12.06-.17.04-.04.09-.08.15-.1.06-.02.12-.03.18-.02.06.01.11.04.15.09l.14.17c.24.31.5.48.76.51.27.03.57-.06.9-.28l.33-.22-.06.18-.64-.96c-.06-.09-.08-.17-.07-.25s.06-.14.14-.19c.08-.05.16-.07.24-.05.08.02.15.07.21.16l.57.86,3.09-2.06c.22-.15.41-.11.55.1Z"/>
    <path d="m11.8,66.42c.17.33.26.64.25.92,0,.28-.11.54-.29.78-.19.24-.46.45-.82.64l-2.28,1.18c-.12.06-.22.08-.31.05-.09-.03-.16-.1-.22-.21-.06-.11-.07-.21-.05-.3.03-.09.1-.16.22-.23l2.27-1.18c.36-.19.59-.4.69-.65.1-.24.07-.53-.1-.85-.18-.35-.45-.57-.8-.67s-.72-.05-1.11.15l-2.06,1.07c-.12.06-.22.08-.31.05-.09-.03-.16-.1-.22-.22-.06-.11-.07-.21-.04-.29.03-.09.1-.16.22-.23l3.54-1.84c.24-.12.41-.07.53.15.06.11.07.21.04.3-.03.09-.1.17-.22.22l-.77.4.06-.17c.39-.06.74,0,1.05.16.31.17.55.42.73.76Z"/>
    <path d="m9.66,61.66c.17.43.17.81,0,1.13-.17.33-.5.59-.99.78l-4.54,1.79c-.12.05-.22.05-.31.02-.09-.03-.15-.11-.2-.23-.04-.11-.05-.21-.01-.3.04-.09.11-.16.23-.2l4.49-1.77c.32-.13.53-.29.64-.47.11-.19.11-.41.01-.66-.02-.05-.04-.1-.07-.14-.02-.04-.04-.08-.06-.12-.03-.06-.04-.12-.01-.16.03-.04.09-.08.2-.12.11-.04.2-.05.27-.02.07.03.14.09.2.19.02.04.05.09.08.14.03.05.05.1.07.15Z"/>
    <path d="m7.97,55.83c.09.44.09.83.01,1.18-.08.35-.23.63-.44.84-.22.22-.49.36-.82.42-.21.04-.41.05-.6.03-.19-.02-.38-.07-.56-.16-.18-.08-.37-.2-.55-.35-.18-.15-.38-.32-.58-.52l-.26-.26.18.07c-.27.37-.51.63-.72.8-.22.17-.45.28-.71.33-.29.06-.56.04-.8-.05-.25-.09-.46-.24-.63-.47-.17-.22-.29-.5-.35-.82-.09-.44-.04-.82.15-1.14.19-.32.49-.53.9-.61.23-.04.45-.04.66,0,.21.05.44.16.68.33.24.17.5.41.79.74l-.2.02,1.63-2.15.03.17c-.17-.06-.35-.1-.56-.13-.21-.03-.43-.04-.67-.04-.24,0-.49.01-.75.04-.11,0-.2,0-.26-.05-.07-.04-.11-.12-.13-.23-.02-.11,0-.19.04-.26.05-.07.14-.11.26-.12.32-.04.62-.05.92-.04.29,0,.57.04.83.09.26.05.5.12.73.21l-.22.05.84-1.13c.07-.1.14-.15.22-.16.08-.01.15,0,.21.06.06.05.1.12.12.23.02.09.01.16,0,.23-.02.06-.06.14-.12.23l-.67.87-.04-.2c.38.2.69.47.95.8.25.33.42.72.51,1.15Zm-6.25.94c.05.27.17.47.36.61.19.14.41.18.67.13.14-.03.26-.07.37-.14s.22-.16.34-.3c.12-.13.27-.32.45-.55l.05.2c-.25-.26-.47-.47-.65-.61-.18-.15-.35-.24-.5-.29-.15-.05-.31-.06-.46-.03-.24.05-.42.16-.53.34-.11.18-.14.39-.09.63Zm5.62-.85c-.07-.36-.21-.66-.41-.91-.21-.25-.47-.45-.8-.6l.24-.04-1.79,2.42-.03-.31.25.25c.23.23.44.42.62.55s.37.21.54.25c.18.04.37.04.57,0,.34-.07.59-.24.74-.52.15-.28.18-.64.09-1.1Z"/>
    <path d="m7.1,46.71c0,.47-.11.87-.31,1.2-.21.34-.49.59-.86.77-.37.18-.79.27-1.28.26-.37,0-.7-.06-.99-.16-.29-.1-.54-.26-.75-.46-.21-.2-.36-.44-.47-.72-.11-.28-.16-.59-.16-.94,0-.23.04-.47.11-.72.07-.25.19-.47.37-.68.05-.06.1-.1.16-.12.06-.02.13-.02.19,0,.06.02.11.05.15.1.04.05.06.1.07.17,0,.07-.02.14-.07.2-.13.17-.22.33-.27.51-.05.17-.08.34-.08.5,0,.25.04.47.11.65.08.19.19.34.34.47.15.13.33.23.54.3.22.07.47.1.75.11.55,0,1-.12,1.32-.38.32-.26.49-.63.49-1.12,0-.16-.02-.32-.07-.49-.05-.17-.14-.34-.26-.51-.05-.07-.07-.14-.07-.2,0-.06.03-.12.07-.16.04-.04.09-.07.16-.09.06-.02.13-.01.19,0,.06.02.11.06.16.13.16.21.28.43.35.67.07.24.11.48.1.71Z"/>
    <path d="m7.43,42.38c-.06.45-.21.83-.44,1.13-.24.3-.55.52-.93.66-.38.13-.81.17-1.3.11-.37-.05-.69-.14-.97-.28-.28-.14-.51-.32-.7-.54-.18-.22-.31-.48-.39-.76-.08-.28-.09-.59-.05-.93.06-.45.21-.83.44-1.13.24-.3.55-.52.93-.66.38-.13.81-.17,1.3-.11.37.05.69.14.97.28.28.14.51.32.7.54.19.22.32.48.39.76s.09.59.05.93Zm-.62-.08c.04-.29,0-.54-.11-.78s-.29-.42-.54-.58c-.25-.15-.56-.25-.94-.3-.58-.07-1.03,0-1.37.22-.34.22-.53.54-.59.98-.04.29,0,.55.11.78.11.23.29.42.54.57.25.15.56.25.95.3.57.07,1.02,0,1.36-.22.34-.22.54-.55.59-.98Z"/>
    <path d="m8.03,38.64c-.03.12-.09.21-.18.25-.08.04-.19.05-.31.02l-3.86-1.03c-.12-.03-.21-.09-.26-.17-.05-.08-.06-.18-.03-.29s.09-.2.17-.25c.08-.05.19-.06.31-.02l.79.21-.14.07c-.32-.23-.54-.51-.64-.85-.1-.34-.1-.7,0-1.08.1-.36.24-.64.43-.84.19-.2.44-.33.73-.37.29-.05.64-.02,1.04.09l2.48.66c.12.03.21.09.26.17.05.08.06.18.03.3-.03.12-.09.21-.18.25-.09.05-.19.05-.31.02l-2.43-.65c-.42-.11-.75-.11-.99,0-.24.11-.41.35-.5.7-.11.41-.07.78.12,1.09.19.31.5.52.92.64l2.24.6c.26.07.35.23.29.48Z"/>
    <path d="m10.18,32.02c-.13.34-.3.6-.51.78s-.46.28-.73.3c-.28.02-.59-.03-.93-.17l-2.27-.89-.23.6c-.04.1-.09.17-.17.2-.07.03-.15.03-.24,0s-.15-.09-.17-.16c-.03-.07-.02-.16.02-.26l.23-.6-1.03-.4c-.12-.05-.2-.11-.23-.2-.04-.09-.03-.19.01-.3.04-.11.11-.19.2-.23.09-.04.19-.03.31.01l1.03.4.44-1.12c.04-.1.09-.17.16-.2.07-.04.15-.04.24,0,.09.03.15.09.18.16.03.07.03.16-.01.26l-.44,1.12,2.2.86c.34.13.62.16.86.09.23-.07.41-.27.53-.59.04-.11.07-.22.08-.3,0-.09.02-.16.04-.21.02-.06.05-.09.11-.11.06-.02.13,0,.24.03.07.03.13.07.18.12s.07.11.07.19c0,.08-.02.18-.04.31-.02.12-.05.23-.09.33Z"/>
    <path d="m10.97,30.21c-.06.12-.13.19-.22.22-.09.03-.2.02-.31-.04l-3.58-1.76c-.11-.06-.19-.13-.22-.22-.03-.09-.02-.18.03-.29.05-.11.12-.18.21-.21.09-.03.19-.02.31.04l.7.34-.04.09c-.29-.26-.47-.56-.52-.91-.06-.35,0-.71.18-1.1.04-.09.09-.15.16-.18.07-.03.15-.02.26.02.1.04.17.1.2.18.03.08.03.18-.02.29l-.05.15c-.16.41-.18.77-.07,1.08.11.32.35.56.73.75l2.08,1.02c.11.06.19.13.22.22.03.09.02.19-.03.31Z"/>
    <path d="m13.38,25.88c-.24.38-.54.66-.88.84s-.72.24-1.12.2-.81-.19-1.23-.45c-.31-.2-.57-.42-.76-.66-.2-.24-.33-.51-.4-.79-.07-.28-.08-.56-.03-.85.05-.29.17-.58.35-.86.24-.38.54-.66.88-.84.34-.17.72-.24,1.12-.2.4.04.81.19,1.23.45.31.2.57.42.76.66.19.24.33.51.4.79.08.28.09.57.04.85-.05.29-.17.58-.35.86Zm-.53-.33c.15-.24.23-.49.23-.75s-.09-.51-.25-.75c-.16-.24-.4-.47-.72-.67-.49-.31-.93-.44-1.33-.38-.4.06-.71.27-.95.64-.16.25-.23.5-.23.75,0,.25.08.5.24.74.16.24.41.47.73.68.49.31.93.43,1.33.38.4-.06.72-.27.95-.63Z"/>
    <path d="m16.23,21.92c-.28.36-.61.55-.98.57-.37.02-.76-.14-1.17-.46l-3.84-3.02c-.1-.08-.16-.16-.17-.26-.01-.09.02-.19.1-.29.07-.09.16-.15.26-.16.1-.01.19.02.29.1l3.79,2.98c.27.21.51.32.73.31.22,0,.41-.11.58-.32.03-.05.06-.09.09-.13.02-.04.05-.08.08-.11.04-.06.08-.09.13-.09.05,0,.12.04.21.11.09.07.14.14.16.22.01.08,0,.16-.06.27-.03.04-.06.09-.09.14-.03.05-.06.09-.09.13Z"/>
  </g>
  <path d="m76.21,63.08c-.35-.21-.81-.1-1.03.25-2.26,3.7-5.34,3.47-5.55,3.45H24.49c-1.73,0-3.98-2.34-4.7-3.25-.26-.32-.73-.38-1.05-.12-.32.26-.38.73-.12,1.05.31.39,3.11,3.81,5.87,3.81h4.21c-.6.7-.98,1.6-.98,2.59,0,2.2,1.79,3.99,3.99,3.99s3.99-1.79,3.99-3.99c0-1-.38-1.9-.98-2.59h25.54c-.61.7-.99,1.6-.99,2.59,0,2.2,1.79,3.99,3.99,3.99s3.99-1.79,3.99-3.99c0-1-.38-1.9-.99-2.6h3.31s.14.01.32.01c1.02,0,4.23-.33,6.58-4.18.22-.35.1-.81-.25-1.03Zm-44.51,10.28c-1.37,0-2.49-1.12-2.49-2.49s1.12-2.49,2.49-2.49,2.49,1.12,2.49,2.49-1.12,2.49-2.49,2.49Zm31.54,0c-1.37,0-2.49-1.12-2.49-2.49s1.12-2.49,2.49-2.49,2.49,1.12,2.49,2.49-1.12,2.49-2.49,2.49Z"/>
  <circle class="cls-2" cx="47.69" cy="42.76" r="24.1"/>
  <path d="m38.39,25.48c-.18,0-.36-.07-.5-.21-.28-.28-.28-.72,0-1l8.41-8.41c.28-.28.72-.28,1,0,.28.28.28.72,0,1l-8.41,8.41c-.14.14-.32.21-.5.21Z"/>
  <path d="m43.18,25.48c-.18,0-.36-.07-.5-.21-.28-.28-.28-.72,0-1l8.41-8.41c.28-.28.72-.28,1,0,.28.28.28.72,0,1l-8.41,8.41c-.14.14-.32.21-.5.21Z"/>
  <path d="m48.58,25.48c-.18,0-.36-.07-.5-.21-.28-.28-.28-.72,0-1l8.41-8.41c.28-.28.72-.28,1,0,.28.28.28.72,0,1l-8.41,8.41c-.14.14-.32.21-.5.21Z"/>
  <circle class="cls-1" cx="32.48" cy="43.43" r="8.19" transform="translate(-12.18 12.66) rotate(-18.64)"/>
  <circle class="cls-1" cx="45.86" cy="43.43" r="8.19" transform="translate(-11.47 16.93) rotate(-18.64)"/>
  <path d="m31.5,43.36c0,1.09-.89,1.98-1.98,1.98s-1.98-.89-1.98-1.98.89-1.98,1.98-1.98,1.98.89,1.98,1.98Z"/>
  <path d="m44.88,43.36c0,1.09-.89,1.98-1.98,1.98s-1.98-.89-1.98-1.98.89-1.98,1.98-1.98,1.98.89,1.98,1.98Z"/>
  <path d="m57.39,50.5c-6,6-12.1,4.28-12.39,4.2-.4-.12-.63-.54-.51-.95.12-.4.54-.63.95-.51.28.08,6.95,1.9,12.89-6.17.25-.34.73-.41,1.07-.16.34.25.41.73.16,1.07-.71.97-1.44,1.81-2.16,2.53Z"/>
</svg>