<?xml version="1.0" encoding="UTF-8"?>
<svg id="Layer_1" data-name="Layer 1" xmlns="http://www.w3.org/2000/svg" viewBox="0 0 95 95">
  <defs>
    <style>
      .cls-1 {
        fill: #f1b31b;
      }
    </style>
  </defs>
  <path class="cls-1" d="m72.9,22.06H22.41c-2.46,0-4.45,1.99-4.45,4.45v40.59c0,2.46,1.99,4.45,4.45,4.45h50.49c2.46,0,4.45-1.99,4.45-4.45V26.51c0-2.46-1.99-4.45-4.45-4.45Zm-33.29,28.72c-4.8,0-8.69-3.89-8.69-8.69s3.89-8.69,8.69-8.69,8.69,3.89,8.69,8.69-3.89,8.69-8.69,8.69Z"/>
  <path d="m47.1,59.19c-6.28,0-12.34-2.32-17.07-6.54-.31-.28-.34-.75-.06-1.06.28-.31.75-.34,1.06-.06,4.46,3.97,10.16,6.16,16.07,6.16s11.92-2.3,16.43-6.49c.3-.28.78-.26,1.06.04.28.3.26.78-.04,1.06-4.78,4.44-10.98,6.89-17.45,6.89Z"/>
  <path d="m61.5,42.71l-4.67-.44,4.68-.8c.41-.07.68-.46.61-.87-.07-.41-.45-.68-.87-.61l-9.48,1.63c-.34.06-.57.34-.61.66-.03.06-.05.13-.06.2-.04.41.26.78.68.82l9.58.9s.05,0,.07,0c.38,0,.71-.29.75-.68.04-.41-.26-.78-.68-.82Z"/>
  <path d="m41.72,42.1c0,1.16-.94,2.1-2.1,2.1s-2.1-.94-2.1-2.1.94-2.1,2.1-2.1,2.1.94,2.1,2.1Z"/>
  <g>
    <path d="m23.1,12.5c-.27.19-.56.3-.88.32s-.62-.02-.91-.14c-.29-.12-.53-.32-.73-.6-.18-.25-.28-.54-.3-.85-.03-.31.02-.62.15-.92.13-.3.34-.55.62-.75.26-.18.56-.29.87-.33.32-.03.62.01.92.14.29.13.54.33.73.61.19.27.29.56.31.88.02.31-.04.62-.17.91-.13.29-.34.53-.61.72Z"/>
    <path class="cls-1" d="m31.18,9.16c-.65.28-1.26.4-1.84.34-.58-.06-1.1-.28-1.56-.65-.46-.37-.83-.89-1.12-1.54-.21-.49-.34-.96-.37-1.42-.03-.45.03-.88.17-1.28.14-.4.38-.76.7-1.08.32-.32.72-.59,1.21-.8.32-.14.66-.24,1.01-.3.35-.05.68-.06.98,0,.16.02.28.08.37.17.09.09.14.19.17.31.02.11.01.22-.03.33-.04.1-.12.18-.22.24-.11.06-.24.07-.41.05-.24-.04-.47-.04-.71,0-.24.04-.46.11-.68.2-.42.18-.74.42-.95.72-.21.3-.32.64-.33,1.03,0,.39.1.82.3,1.29.2.47.45.83.75,1.1.29.27.62.42.99.47.36.04.76-.03,1.18-.21.22-.1.43-.22.63-.38.19-.15.36-.33.51-.53.1-.13.2-.22.31-.26.11-.04.21-.04.31,0,.1.03.18.09.25.18s.1.19.11.31-.02.24-.09.36c-.16.28-.39.53-.67.77-.29.24-.6.43-.94.57Z"/>
    <path class="cls-1" d="m34.49,7.89c-.19.05-.34.04-.47-.03-.13-.08-.22-.21-.27-.4l-1.54-5.54c-.05-.19-.04-.35.03-.48.07-.13.2-.22.39-.27.19-.05.34-.04.47.03.13.07.22.2.28.4l.67,2.42-.13.04c.05-.37.19-.68.43-.93.24-.25.55-.43.91-.53.37-.1.69-.12.96-.05s.51.23.7.47c.19.24.35.58.47,1l.63,2.26c.05.19.04.35-.03.48-.07.13-.2.22-.39.27-.19.05-.35.04-.48-.03-.13-.07-.22-.21-.28-.4l-.61-2.2c-.1-.35-.24-.59-.41-.72-.18-.12-.41-.15-.69-.07-.34.09-.58.28-.73.55s-.16.58-.07.94l.57,2.04c.11.4-.03.65-.42.76Z"/>
    <path class="cls-1" d="m40.62,6.49c-.34.05-.65.03-.93-.06-.28-.09-.52-.24-.7-.44s-.29-.44-.34-.72c-.05-.34,0-.63.15-.86.15-.23.42-.41.81-.56.39-.15.92-.27,1.6-.37l.48-.07.1.69-.47.07c-.4.06-.71.12-.94.2-.23.07-.39.16-.47.27-.09.11-.12.24-.09.41.03.21.13.37.3.48.17.11.38.15.64.11.21-.03.39-.11.54-.23.15-.12.26-.28.33-.46.07-.19.09-.39.06-.61l-.16-1.1c-.05-.32-.15-.54-.31-.66-.16-.12-.41-.16-.74-.11-.19.03-.38.08-.59.15-.21.08-.42.19-.64.33-.11.08-.22.11-.31.09-.1-.01-.18-.05-.24-.13-.06-.07-.1-.16-.11-.25-.01-.1,0-.19.04-.29.04-.1.11-.18.23-.24.28-.16.55-.29.81-.38s.51-.15.73-.19c.46-.07.85-.05,1.17.04.32.1.57.28.76.54.19.26.31.62.38,1.06l.34,2.3c.03.2,0,.36-.08.48-.08.12-.21.19-.39.22-.18.03-.33,0-.44-.1-.11-.09-.19-.24-.21-.43l-.07-.46h.08c-.01.22-.07.42-.18.61-.11.18-.25.33-.44.45-.19.12-.41.2-.66.23Z"/>
    <path class="cls-1" d="m44.67,6.03c-.2,0-.36-.04-.47-.14-.11-.1-.17-.25-.18-.45l-.15-3.65c0-.2.04-.35.14-.46.1-.11.24-.17.43-.17.19,0,.33.04.44.14.11.1.17.25.17.45l.03.61h-.1c.07-.39.24-.69.49-.9.26-.21.6-.35,1.04-.4.13-.02.24.01.33.09.08.08.14.2.16.37.02.16-.01.29-.09.4-.08.1-.21.17-.38.2l-.21.03c-.39.06-.68.19-.87.4-.19.21-.28.5-.26.87l.08,2c0,.2-.04.35-.14.47-.1.11-.25.17-.45.18Z"/>
    <path class="cls-1" d="m49.07,6.03c-.34-.02-.64-.11-.9-.25s-.46-.34-.6-.57c-.14-.23-.2-.49-.18-.78.02-.35.13-.62.32-.81.19-.19.49-.32.91-.39.41-.07.96-.08,1.64-.04l.48.03-.04.7-.47-.03c-.4-.02-.72-.02-.96,0-.24.02-.41.08-.52.17s-.16.21-.17.38c-.01.21.05.39.19.54.14.14.34.22.61.24.21.01.4-.03.57-.12.17-.09.31-.22.42-.39.11-.17.17-.36.18-.59l.07-1.11c.02-.32-.04-.56-.17-.71-.13-.15-.37-.24-.7-.26-.19-.01-.39,0-.61.03-.22.03-.45.1-.7.19-.13.05-.23.06-.33.03-.09-.03-.16-.09-.21-.17-.05-.08-.07-.17-.06-.27,0-.1.04-.19.09-.28.06-.09.15-.15.27-.19.3-.1.59-.17.87-.21.28-.03.53-.05.75-.03.46.03.84.12,1.13.28.29.16.5.39.63.68.13.3.18.67.15,1.12l-.14,2.32c-.01.2-.07.35-.17.45-.1.1-.24.14-.43.13-.18-.01-.32-.07-.41-.18-.09-.11-.13-.27-.12-.47l.03-.46h.08c-.06.23-.16.42-.3.57-.14.16-.32.27-.52.35-.21.08-.44.11-.69.09Z"/>
    <path class="cls-1" d="m54.65,6.7c-.49-.09-.9-.26-1.22-.53-.33-.26-.56-.6-.69-1-.13-.4-.15-.85-.07-1.35.07-.37.18-.7.34-.98.16-.28.37-.5.61-.67.25-.17.53-.28.85-.34.32-.06.66-.05,1.03.01.21.04.43.11.67.21.23.1.45.24.64.41.09.08.14.17.16.26.02.09,0,.19-.03.28s-.09.16-.16.22-.15.08-.25.08c-.09,0-.19-.04-.28-.11-.13-.11-.26-.19-.4-.26-.14-.07-.27-.11-.41-.14-.21-.04-.4-.04-.57,0-.17.04-.32.11-.46.21-.13.1-.24.24-.33.42-.09.17-.16.38-.2.62-.08.47-.04.86.14,1.17.18.31.47.5.89.57.13.02.27.03.42.02.15-.01.3-.05.47-.1.12-.04.22-.04.3,0s.15.09.19.17.07.16.06.26c0,.09-.03.18-.08.27-.05.08-.13.14-.23.18-.23.09-.47.14-.72.16-.25.02-.47,0-.68-.03Z"/>
    <path class="cls-1" d="m58.82,7.72c-.4-.11-.72-.27-.95-.49s-.38-.47-.43-.77c-.06-.3-.03-.65.08-1.04l.55-1.99-.49-.13c-.15-.04-.25-.11-.31-.21-.06-.1-.07-.22-.03-.36.04-.14.11-.24.21-.29.1-.05.23-.06.38-.02l.49.13.24-.85c.05-.19.15-.32.28-.4.13-.07.29-.08.47-.03.19.05.32.14.39.27.07.13.08.29.03.48l-.24.85.99.27c.15.04.25.11.31.21.06.1.07.22.03.36-.04.14-.11.23-.21.29s-.23.06-.38.02l-.99-.28-.53,1.92c-.08.3-.08.54,0,.73.09.19.28.32.57.4.11.03.2.05.29.05.09,0,.16.01.22.02.08.01.13.05.17.12.03.07.03.18-.02.34-.03.12-.09.23-.15.31-.07.09-.16.13-.28.14-.09,0-.2,0-.34-.02-.14-.01-.25-.04-.35-.06Z"/>
    <path class="cls-1" d="m62.17,8.91c-.5-.2-.89-.46-1.18-.78s-.46-.7-.52-1.12c-.06-.42,0-.86.18-1.33.18-.46.43-.82.75-1.09.32-.27.69-.43,1.1-.5.41-.06.83-.01,1.25.15.31.12.57.28.78.48.21.2.36.43.47.69.1.26.15.55.13.86-.01.31-.09.64-.22.98-.04.11-.11.18-.21.2-.1.03-.22.01-.35-.04l-2.89-1.13.25-.65,2.53.99-.2.08c.11-.28.16-.52.15-.74,0-.22-.07-.41-.18-.57-.11-.16-.29-.28-.51-.37-.25-.1-.49-.12-.71-.08-.22.05-.42.16-.6.34-.18.18-.32.41-.44.71l-.02.06c-.19.49-.22.91-.09,1.24.14.33.43.59.88.77.16.06.34.11.55.15.21.04.42.04.63.01.15-.02.28-.01.37.04s.16.11.19.19c.03.08.04.17.02.26-.02.09-.07.17-.15.25s-.19.12-.32.14c-.26.05-.54.05-.84,0-.3-.04-.56-.11-.8-.2Z"/>
    <path class="cls-1" d="m65.14,10.21c-.18-.09-.29-.21-.33-.35-.05-.14-.02-.3.07-.48l1.68-3.25c.09-.18.21-.29.35-.33s.29-.02.46.06c.17.09.27.2.32.34.04.14.02.3-.07.48l-.28.54-.09-.04c.26-.3.55-.48.88-.54.33-.06.69,0,1.1.17.13.05.21.13.24.24s.02.24-.05.4c-.06.15-.16.25-.28.3-.12.05-.27.04-.43-.02l-.2-.08c-.37-.15-.69-.18-.96-.09s-.49.3-.66.62l-.92,1.78c-.09.18-.21.29-.35.34-.14.05-.3.02-.48-.07Z"/>
    <path d="m71.85,13.24c-.25-.19-.44-.42-.56-.7-.12-.28-.17-.57-.15-.87.02-.3.13-.58.32-.84.18-.24.4-.42.68-.54.28-.12.57-.17.88-.14.31.03.6.14.87.34.25.18.44.42.56.69.13.28.18.57.15.88-.03.31-.14.59-.33.86-.19.25-.42.44-.7.55-.28.11-.57.15-.88.12-.31-.03-.59-.15-.85-.34Z"/>
    <path d="m74.35,18.8c-.09-.09-.13-.19-.12-.28,0-.09.05-.18.15-.27l4.22-3.96c.09-.09.19-.13.28-.13.09,0,.18.05.27.13.09.09.13.19.13.28,0,.1-.05.19-.15.28l-.67.63.03-.17c.34-.18.69-.23,1.06-.15.37.08.7.27.99.58.29.31.47.64.54,1,.07.36.03.73-.12,1.11-.15.37-.41.73-.77,1.08-.36.34-.73.57-1.12.7-.38.13-.75.14-1.11.05-.36-.09-.68-.29-.97-.6-.29-.31-.46-.65-.51-1.02-.05-.37.02-.72.21-1.04l.08.08-1.83,1.72c-.09.09-.19.13-.29.12-.1,0-.19-.05-.27-.14Zm2.97-.28c.2.22.43.35.68.41.25.06.52.04.8-.06.28-.1.56-.28.83-.54.43-.4.66-.8.71-1.21.05-.4-.08-.77-.39-1.09-.2-.21-.42-.35-.67-.41-.25-.06-.52-.05-.79.05-.28.1-.56.28-.85.55-.42.4-.66.8-.7,1.21-.05.41.08.77.38,1.09Z"/>
    <path d="m80.17,22.99c-.29-.4-.47-.8-.52-1.21-.05-.41,0-.79.19-1.17s.47-.71.87-1c.4-.29.8-.46,1.21-.52.41-.06.8-.01,1.16.14.37.15.68.41.94.77.19.25.31.52.37.78.06.27.06.53,0,.79-.06.26-.17.51-.35.76-.17.24-.4.47-.69.68-.08.06-.16.08-.24.06-.07-.02-.14-.07-.21-.16l-1.99-2.72.41-.3,1.88,2.57-.19-.05c.28-.21.49-.42.62-.65s.2-.46.18-.69c-.01-.24-.11-.47-.28-.71-.19-.27-.42-.45-.68-.54s-.53-.11-.81-.05c-.28.06-.57.2-.86.41l-.05.03c-.48.35-.76.73-.84,1.15s.04.84.35,1.26c.13.18.28.34.46.48.17.14.38.25.61.34.1.04.17.09.21.15.04.06.06.12.05.18,0,.06-.03.12-.07.17-.04.05-.1.08-.17.1-.07.02-.16,0-.25-.03-.25-.08-.49-.21-.73-.4-.24-.19-.44-.39-.61-.62Z"/>
    <path d="m81.93,25.61c-.07-.11-.08-.21-.06-.31.03-.09.1-.17.21-.24l3.48-2.04c.11-.07.21-.09.3-.07.09.02.17.09.23.19.06.11.08.21.06.3-.02.09-.09.17-.2.24l-.68.4-.05-.08c.38-.1.73-.08,1.06.06.32.15.6.4.83.76.05.08.08.16.06.23-.01.07-.07.14-.16.21-.09.06-.18.08-.26.07-.08-.02-.16-.08-.24-.17l-.1-.12c-.26-.36-.55-.58-.87-.66s-.67-.01-1.03.2l-2.02,1.19c-.11.07-.21.09-.31.06-.1-.02-.18-.09-.24-.2Z"/>
    <path d="m83.97,29.45c-.12-.26-.22-.54-.28-.84s-.06-.59-.01-.9c.01-.08.04-.14.09-.19.04-.05.1-.08.16-.1.06-.02.12-.02.18,0,.06.02.11.05.14.11.04.05.05.12.05.21-.03.29-.03.56.02.8.04.24.12.46.21.67.16.33.34.55.54.67.2.11.41.12.62.02.16-.08.27-.19.31-.35.04-.16.04-.37-.02-.63l-.2-.88c-.1-.4-.09-.74,0-1,.1-.27.3-.47.6-.61.26-.12.52-.16.78-.11.25.05.49.17.72.38.22.2.41.47.57.8.12.26.2.52.24.78.04.26.03.52-.03.78-.01.08-.04.14-.09.19-.05.05-.1.08-.16.09-.06.01-.12,0-.18-.02s-.1-.06-.14-.12c-.03-.06-.04-.13-.03-.21.03-.23.04-.45,0-.66-.03-.21-.09-.4-.17-.57-.15-.33-.33-.55-.54-.65s-.42-.11-.63-.02c-.16.08-.27.19-.33.35-.06.15-.06.35,0,.6l.21.88c.1.42.1.76.01,1.04-.09.27-.29.48-.59.62-.39.18-.76.17-1.14-.03-.37-.2-.68-.56-.92-1.08Z"/>
    <path d="m85.62,33.55c-.12-.36-.15-.68-.1-.96.05-.28.19-.52.41-.73.22-.21.53-.38.92-.51l2.46-.82c.13-.04.23-.04.32,0,.08.04.14.12.18.24.04.12.04.23,0,.31-.04.08-.12.15-.25.19l-2.45.82c-.39.13-.66.31-.8.54-.14.23-.15.51-.03.86.13.38.36.65.69.8.34.15.71.16,1.13.02l2.22-.74c.13-.04.23-.04.32,0,.08.04.14.13.19.25.04.12.04.22,0,.3-.04.08-.12.15-.25.19l-3.83,1.28c-.26.09-.43,0-.5-.23-.04-.12-.03-.22.01-.3s.13-.15.25-.19l.84-.28-.09.16c-.4,0-.74-.11-1.03-.33-.28-.22-.49-.51-.61-.87Z"/>
    <path d="m86.93,38.29c-.06-.32-.06-.61.01-.89.07-.27.2-.51.39-.7.19-.19.41-.31.68-.36.34-.07.63-.04.86.1.23.13.43.39.59.78.16.38.32.92.46,1.62l.09.43-.5.1-.09-.42c-.1-.51-.21-.91-.32-1.19-.11-.28-.23-.47-.37-.57-.14-.09-.31-.12-.52-.08-.26.05-.45.19-.58.4-.13.21-.16.48-.1.78.05.25.16.46.32.63.16.17.35.29.59.36s.48.07.75.02l1.08-.22c.39-.08.66-.22.8-.41.14-.19.18-.47.1-.83-.05-.22-.12-.44-.22-.65-.1-.21-.24-.43-.42-.65-.06-.08-.09-.15-.09-.22,0-.07.03-.12.07-.17.04-.05.1-.08.16-.1.06-.02.13-.02.2,0,.07.02.13.07.19.14.2.25.35.5.47.76.12.26.2.51.25.76.08.4.08.74,0,1.03-.08.29-.23.52-.47.7-.24.18-.56.31-.97.39l-2.57.52c-.13.03-.23.02-.31-.03-.08-.05-.13-.13-.16-.24-.02-.12,0-.22.05-.3.06-.08.15-.13.27-.15l.74-.15.02.09c-.25,0-.48-.06-.67-.16-.2-.11-.37-.26-.51-.45-.14-.19-.23-.41-.28-.67Z"/>
    <path d="m87.67,43.18c-.03-.29-.02-.58.03-.88.04-.3.14-.58.29-.85.04-.07.09-.12.15-.15.06-.03.12-.04.18-.04.06,0,.12.03.17.06s.08.09.1.15c.01.06,0,.13-.02.21-.13.26-.22.52-.26.76-.04.24-.05.48-.03.71.03.37.12.64.28.81.15.17.34.25.57.23.18-.02.32-.09.41-.22.1-.13.16-.33.19-.6l.11-.89c.05-.41.16-.73.35-.94.19-.21.45-.34.77-.37.29-.03.54.03.77.16.22.13.4.33.54.6s.23.58.26.95c.03.28.01.55-.04.81-.05.26-.15.5-.29.72-.04.07-.09.12-.15.14-.06.03-.12.04-.18.03-.06-.01-.12-.04-.16-.08-.05-.04-.08-.09-.09-.16-.01-.06,0-.13.04-.21.11-.2.19-.41.23-.61.04-.2.06-.4.04-.6-.03-.36-.13-.63-.29-.8-.16-.17-.35-.25-.58-.23-.18.02-.32.09-.43.21-.11.13-.17.31-.2.56l-.1.89c-.05.43-.17.75-.34.98-.18.23-.43.35-.77.38-.42.04-.78-.1-1.06-.42-.28-.32-.45-.76-.5-1.33Z"/>
    <path d="m87.87,46.39c0-.13.04-.23.11-.29.07-.07.18-.1.31-.1l3.96-.05c.14,0,.24.03.31.09.07.06.11.16.11.29,0,.12-.03.22-.1.29-.07.07-.17.11-.31.11l-3.96.05c-.14,0-.24-.03-.32-.1-.07-.07-.11-.16-.11-.29Zm5.88-.07c0-.16.04-.29.13-.38.09-.09.2-.14.35-.14.16,0,.27.04.35.13.08.09.12.21.13.38,0,.17-.04.3-.12.38-.08.09-.2.13-.35.13-.15,0-.27-.04-.35-.13-.09-.09-.13-.21-.13-.38Z"/>
    <path d="m87.75,49.76c0-.11.05-.2.11-.28.07-.08.17-.14.3-.19l4.02-1.39c.1-.04.19-.05.27-.03.08.02.15.06.19.13.05.07.07.16.06.28,0,.1-.04.18-.08.24-.05.05-.13.1-.25.14l-3.98,1.31.02-.26,3.76,1.89c.11.05.19.11.23.17.04.06.06.15.05.26,0,.1-.04.18-.09.23-.06.05-.12.08-.2.08-.08,0-.17-.02-.26-.06l-3.79-1.97c-.13-.05-.22-.13-.27-.22s-.08-.19-.07-.31Z"/>
    <path d="m87.07,54.7c.09-.49.27-.89.53-1.2.26-.32.59-.54.98-.66.39-.13.83-.14,1.33-.05.48.09.88.27,1.21.52.32.26.55.57.69.94.14.37.17.78.09,1.21-.06.31-.16.58-.32.81-.15.23-.34.41-.57.55-.23.14-.49.22-.79.26-.3.04-.62.03-.97-.04-.1-.02-.17-.06-.21-.13-.04-.07-.04-.15-.02-.26l.63-3.31.5.1-.59,3.13-.09-.18c.34.06.64.07.9.01.26-.06.47-.17.63-.34.16-.17.27-.4.33-.69.06-.32.04-.61-.07-.86-.11-.25-.28-.46-.52-.63-.24-.16-.54-.28-.89-.34h-.06c-.58-.12-1.05-.06-1.41.16s-.59.6-.68,1.12c-.04.22-.05.43-.04.66.02.22.07.45.17.68.04.1.05.19.03.26s-.05.13-.1.16c-.05.04-.11.06-.17.06-.06,0-.13-.01-.19-.06-.06-.04-.11-.11-.15-.2-.11-.24-.18-.51-.21-.81-.03-.3-.02-.59.04-.87Z"/>
    <path d="m85.52,57.62c-.06-.08-.09-.16-.09-.23,0-.07.04-.13.09-.17.05-.04.11-.05.18-.04.07.02.14.07.2.15.1.14.22.24.34.32.12.07.24.13.35.16l-.21-.02c.05-.16.13-.28.25-.35.12-.07.26-.08.41-.04.15.04.26.12.33.24.07.12.09.25.04.4-.04.16-.14.27-.27.34-.14.06-.3.07-.51,0-.13-.04-.26-.09-.4-.15-.13-.06-.26-.15-.39-.25-.13-.1-.24-.22-.34-.37Z"/>
    <path d="m85.01,61.83c.05-.12.12-.19.21-.22.09-.03.19-.02.31.03l5.65,2.45c.12.05.2.12.23.21.04.09.03.19-.02.31-.05.11-.12.19-.21.23-.09.04-.2.03-.31-.02l-3.56-1.54v.02s.94,2.57.94,2.57c.04.12.07.21.08.29.01.08,0,.17-.05.28-.04.09-.1.16-.17.19-.07.03-.15.03-.22,0-.07-.04-.14-.11-.19-.21l-1-2.73.39.17-2.89,1.25c-.12.05-.22.05-.29.02-.08-.03-.13-.09-.16-.17-.03-.08-.02-.16.01-.25.05-.11.11-.18.18-.23.07-.05.17-.1.3-.15l2.67-1.18v-.02s-1.71-.74-1.71-.74c-.25-.11-.32-.28-.21-.53Z"/>
    <path d="m83.08,66c.06-.11.14-.18.23-.2.1-.02.2,0,.32.06l3.49,1.86c.12.06.2.14.23.23.03.09.02.19-.04.31-.06.11-.13.18-.23.21-.1.03-.2.01-.32-.05l-3.49-1.86c-.12-.06-.2-.14-.23-.24-.03-.09-.02-.2.04-.31Zm5.19,2.77c.08-.14.17-.23.29-.27.12-.04.24-.02.38.05.14.07.22.17.25.29.03.12,0,.25-.07.39-.08.15-.17.24-.29.28-.11.04-.24.02-.37-.05-.13-.07-.21-.16-.25-.28s-.01-.25.06-.4Z"/>
    <path d="m82.11,67.75c.07-.11.15-.17.25-.18s.2.01.3.08l3.38,2.2c.11.07.17.15.19.24.02.09,0,.19-.07.29-.07.1-.15.16-.24.18-.09.02-.19,0-.3-.08l-.7-.45.16-.03c.24.32.35.66.35,1.02,0,.36-.12.71-.34,1.04-.2.31-.43.54-.68.67-.25.13-.52.18-.82.13-.3-.05-.62-.19-.97-.41l-2.17-1.42c-.11-.07-.17-.15-.2-.25-.02-.1,0-.19.07-.3.07-.11.15-.17.25-.19.1-.02.2,0,.31.08l2.13,1.39c.37.24.68.34.95.31.26-.03.5-.21.7-.52.24-.36.31-.72.23-1.08-.08-.36-.31-.66-.69-.9l-1.96-1.28c-.23-.15-.27-.33-.12-.55Z"/>
    <path d="m78.26,73.07c.27-.32.59-.53.94-.64.35-.11.73-.11,1.11,0,.39.11.77.32,1.15.64.38.33.66.67.82,1.04.17.37.22.73.17,1.1-.05.37-.22.71-.49,1.03-.28.32-.59.53-.95.63-.36.09-.71.06-1.05-.09l.07-.08,2.19,1.87c.1.08.15.17.16.27,0,.1-.03.19-.11.29-.08.09-.17.14-.26.15-.1,0-.19-.03-.29-.11l-4.68-3.99c-.1-.08-.15-.17-.17-.27-.01-.1.02-.19.11-.29.08-.09.17-.14.27-.15.1,0,.2.03.29.12l.7.6h-.17c-.21-.32-.3-.67-.27-1.05.03-.38.19-.73.46-1.05Zm.37.53c-.19.22-.3.46-.33.72-.03.26.01.52.14.79.13.27.34.52.63.77.45.38.87.57,1.28.57.41,0,.75-.17,1.04-.51.19-.23.31-.47.34-.72.03-.25-.01-.51-.14-.78-.13-.26-.34-.52-.64-.78-.44-.38-.87-.57-1.28-.57-.41,0-.76.16-1.04.5Z"/>
    <path d="m74.92,75.45c-.01-.1,0-.19.04-.25.04-.06.09-.09.16-.1.06,0,.12.01.17.06.05.05.08.13.1.23.02.17.07.32.14.44.07.13.14.23.23.31l-.17-.12c.12-.12.25-.18.39-.17.14,0,.27.06.37.17.11.11.16.23.17.37,0,.14-.05.26-.16.37-.12.12-.25.17-.4.16-.15-.01-.3-.1-.45-.25-.09-.1-.18-.21-.27-.33-.08-.12-.15-.26-.21-.41s-.1-.31-.11-.49Z"/>
    <path d="m70.99,79.85c.4-.3.8-.47,1.21-.52.4-.05.79,0,1.17.18.37.17.71.46,1.01.87.29.39.47.8.53,1.2.06.41.02.8-.13,1.16-.15.37-.4.68-.76.95-.25.19-.51.31-.78.38-.27.06-.53.07-.79.01s-.51-.17-.76-.34c-.24-.17-.47-.4-.68-.69-.06-.08-.08-.16-.06-.23.02-.07.07-.14.16-.21l2.71-2,.3.41-2.56,1.89.05-.19c.21.28.42.49.65.62.23.13.46.19.69.18.24-.01.47-.11.71-.28.26-.2.44-.42.54-.68.09-.26.11-.53.04-.81-.07-.28-.2-.57-.41-.85l-.03-.05c-.35-.48-.74-.76-1.15-.83-.41-.08-.83.04-1.26.35-.18.13-.34.28-.47.46-.14.18-.25.38-.34.61-.04.1-.09.17-.15.21-.06.04-.12.06-.18.05-.06,0-.12-.03-.17-.07-.05-.04-.08-.1-.1-.17-.02-.07,0-.16.03-.25.08-.25.21-.5.39-.74.18-.24.39-.44.62-.61Z"/>
    <path d="m68.44,81.63c.11-.06.21-.08.3-.05.09.03.17.1.23.21l1.98,3.52c.06.11.08.21.06.3-.02.09-.09.17-.19.23-.11.06-.21.08-.3.05-.09-.03-.17-.1-.23-.21l-.41-.73.15.05c.07.39.01.75-.16,1.06-.17.32-.43.57-.78.77-.33.18-.63.28-.91.28s-.54-.08-.79-.26c-.24-.18-.46-.45-.67-.82l-1.27-2.26c-.06-.11-.08-.22-.06-.31.02-.1.09-.17.2-.23.11-.06.22-.08.31-.05s.17.1.24.21l1.25,2.22c.21.38.45.62.7.71.25.09.54.05.86-.14.38-.21.61-.5.7-.86.09-.36.03-.73-.19-1.12l-1.15-2.04c-.13-.24-.08-.42.15-.55Z"/>
    <path d="m62.44,84.63c.34-.15.65-.21.93-.19.28.02.53.13.74.31.21.18.39.45.54.78l.98,2.26.59-.26c.1-.04.19-.05.26-.02.08.03.13.08.17.17.04.09.04.17,0,.24-.03.07-.1.13-.2.17l-.59.26.44,1.02c.05.12.06.22.02.31-.04.09-.11.16-.23.21-.11.05-.21.06-.3.02-.09-.04-.16-.11-.21-.23l-.44-1.02-1.12.49c-.1.04-.19.05-.26.03s-.13-.08-.17-.17c-.04-.09-.04-.17-.01-.24.03-.07.1-.13.2-.18l1.12-.49-.95-2.19c-.15-.34-.33-.56-.55-.67-.22-.11-.49-.1-.81.04-.11.05-.2.1-.27.16-.07.06-.13.1-.18.12-.05.03-.1.03-.16,0-.05-.03-.1-.09-.15-.19-.03-.07-.05-.14-.05-.21,0-.07.03-.13.08-.18.06-.05.14-.12.25-.19.11-.07.21-.13.3-.17Z"/>
    <path d="m60.89,85.27c.12-.04.23-.03.31.01.08.05.14.13.18.26l1.85,5.87c.04.12.04.23,0,.31-.04.08-.12.15-.25.18-.12.04-.22.03-.31,0-.09-.04-.15-.13-.19-.25l-.85-2.7.12-.04c-.02.4-.14.73-.38,1.01-.23.27-.54.47-.92.59-.36.11-.67.14-.95.09-.28-.05-.52-.19-.72-.42-.2-.22-.36-.54-.49-.94l-.78-2.47c-.04-.12-.04-.23,0-.32.04-.09.12-.15.24-.19.12-.04.23-.03.31.01.09.05.15.13.19.26l.77,2.43c.13.42.31.7.53.84.22.14.51.16.87.04.41-.13.7-.36.86-.69.16-.33.18-.71.04-1.13l-.71-2.23c-.08-.26,0-.43.26-.51Z"/>
    <path d="m54.67,86.91c.37-.07.7-.06.97.04.27.09.49.26.66.51s.3.58.37.98l.46,2.55c.02.13,0,.24-.05.31-.06.08-.14.12-.26.15-.13.02-.23,0-.31-.04-.08-.05-.13-.14-.15-.28l-.46-2.54c-.07-.41-.21-.69-.42-.86-.2-.17-.49-.22-.85-.15-.39.07-.69.26-.89.58s-.26.68-.18,1.11l.42,2.3c.02.13,0,.24-.05.31s-.15.13-.27.15c-.12.02-.22,0-.3-.04-.08-.05-.13-.14-.15-.28l-.72-3.97c-.05-.27.05-.42.3-.47.12-.02.22,0,.3.05.08.06.13.15.15.28l.16.87-.15-.11c.06-.4.21-.72.47-.97.25-.25.57-.41.95-.48Z"/>
    <path d="m49.66,87.55c.29-.02.58,0,.88.05.3.05.58.16.84.31.07.04.12.09.15.15.03.06.04.12.04.18,0,.06-.03.12-.07.16-.04.05-.09.08-.15.09-.06.01-.13,0-.21-.03-.26-.14-.51-.23-.75-.28-.24-.05-.47-.06-.71-.05-.37.02-.64.11-.82.26-.18.15-.26.34-.24.57.01.18.08.32.21.42.13.1.33.17.6.21l.89.14c.41.06.72.18.93.37.21.19.33.45.35.78.02.29-.04.54-.18.76-.14.22-.34.4-.61.53-.27.13-.59.21-.95.24-.28.02-.55,0-.81-.06-.26-.06-.5-.16-.71-.31-.07-.04-.11-.09-.14-.15-.03-.06-.03-.12-.02-.18.01-.06.04-.12.08-.16.04-.04.1-.07.16-.08.06-.01.13,0,.21.04.2.12.4.2.61.25s.4.07.59.05c.36-.02.63-.11.81-.27.18-.15.26-.35.24-.58-.01-.18-.08-.32-.2-.43-.12-.11-.31-.18-.56-.22l-.89-.13c-.42-.06-.75-.19-.97-.37s-.34-.44-.37-.78c-.03-.42.12-.77.44-1.05.32-.27.77-.43,1.34-.47Z"/>
    <path d="m46.36,93.56c.16,0,.29.05.38.14.09.09.13.21.13.35,0,.15-.05.27-.14.35-.09.08-.22.12-.38.12-.17,0-.29-.04-.38-.13-.09-.08-.13-.2-.13-.35,0-.15.05-.27.14-.35.09-.09.22-.13.38-.13Zm.07-5.88c.13,0,.23.04.29.11.06.07.09.18.09.32l-.05,3.96c0,.14-.04.24-.1.31-.07.07-.16.1-.29.1-.12,0-.22-.04-.29-.11-.07-.07-.1-.18-.1-.31l.05-3.96c0-.14.04-.24.11-.31s.17-.11.3-.11Z"/>
    <path d="m43.35,87.48c.32.03.6.12.84.27.24.15.43.34.55.57s.18.48.15.75c-.03.35-.15.61-.34.79-.2.18-.5.29-.92.34-.42.04-.98.03-1.68-.04l-.43-.04.05-.51.42.04c.52.05.93.07,1.24.05.3-.02.52-.08.65-.18s.21-.26.23-.47c.03-.26-.04-.49-.21-.67-.17-.19-.41-.29-.72-.32-.26-.03-.49.01-.7.12-.21.1-.38.25-.51.46-.13.2-.21.44-.24.72l-.11,1.1c-.04.4.01.69.16.89.14.19.4.31.76.34.22.02.45.01.68-.02.23-.04.48-.11.74-.21.09-.04.17-.04.24-.02.06.02.11.06.14.12s.05.12.05.18c0,.07-.02.13-.06.19-.04.06-.1.11-.18.14-.3.11-.59.19-.87.23-.28.04-.55.04-.8.02-.4-.04-.73-.14-.98-.29-.25-.16-.43-.38-.53-.65-.1-.28-.13-.63-.09-1.04l.25-2.61c.01-.13.05-.23.12-.29.07-.06.16-.09.28-.08.12.01.21.06.27.13.06.08.08.18.07.31l-.07.75h-.09c.08-.25.19-.45.35-.61.16-.16.35-.28.57-.35s.46-.1.73-.08Z"/>
    <path d="m38.47,86.75c.28.06.56.16.83.29.27.13.51.31.72.53.05.06.09.12.1.18.01.07,0,.13-.01.18s-.06.1-.11.14c-.05.04-.11.05-.17.05-.06,0-.13-.03-.19-.09-.21-.2-.43-.36-.65-.47-.22-.11-.44-.19-.67-.24-.36-.08-.65-.07-.86.03-.21.09-.34.25-.39.48-.04.18,0,.33.09.46.1.13.27.25.52.36l.82.37c.38.17.64.37.79.61.15.24.19.53.12.85-.06.28-.19.51-.38.69-.19.17-.44.29-.73.34-.3.06-.62.05-.98-.03-.28-.06-.53-.15-.77-.28-.23-.13-.43-.29-.6-.49-.05-.06-.08-.12-.09-.18,0-.06,0-.13.03-.18.03-.06.07-.1.12-.13.05-.03.11-.04.18-.04.06,0,.13.04.19.1.16.17.34.3.52.4.18.1.37.17.56.21.35.08.64.06.85-.04.21-.1.34-.26.39-.49.04-.18.01-.33-.08-.47-.09-.14-.25-.26-.48-.36l-.82-.36c-.39-.18-.67-.38-.83-.62-.16-.24-.21-.52-.14-.85.09-.42.33-.71.71-.89.39-.17.86-.2,1.41-.08Z"/>
    <path d="m33.99,85.53c.35.11.63.26.82.46.2.2.32.44.36.72.04.28,0,.59-.1.95l-.73,2.36.62.19c.1.03.18.08.22.15.04.07.04.15.02.24-.03.09-.08.15-.15.19-.07.03-.16.03-.26,0l-.62-.19-.33,1.06c-.04.12-.1.21-.19.25-.09.04-.19.05-.31.01-.12-.04-.2-.1-.24-.18s-.05-.19,0-.31l.33-1.06-1.16-.36c-.11-.03-.18-.08-.22-.15-.04-.07-.05-.15-.02-.24.03-.09.08-.16.15-.19.07-.04.16-.04.26,0l1.16.36.71-2.28c.11-.35.12-.64.03-.87s-.3-.39-.64-.5c-.12-.04-.22-.06-.31-.06-.09,0-.16-.01-.22-.03-.06-.01-.1-.04-.12-.1-.02-.05-.02-.13.01-.24.02-.07.06-.14.1-.19.05-.05.11-.08.18-.08.08,0,.19,0,.31.02.13.02.24.04.34.07Z"/>
    <path d="m30.24,90.46c.15.06.25.14.31.26.05.11.05.24,0,.38-.06.14-.14.24-.25.28-.11.04-.24.04-.4-.02-.16-.06-.26-.14-.31-.25-.05-.11-.05-.23,0-.38.05-.14.14-.23.25-.28.11-.05.25-.04.4.02Zm2.11-5.49c.12.05.2.12.23.21.03.09.03.2-.02.33l-1.42,3.69c-.05.13-.12.21-.2.25-.09.04-.19.04-.31,0-.11-.04-.19-.11-.23-.2-.04-.09-.04-.2.01-.33l1.42-3.69c.05-.13.12-.21.21-.26.09-.04.19-.04.32,0Z"/>
    <path d="m29.05,83.49c.43.2.75.47.97.8.22.33.33.71.34,1.12,0,.41-.1.84-.31,1.28-.16.34-.35.62-.57.84-.22.22-.47.39-.74.49s-.56.14-.86.12-.61-.11-.93-.26c-.21-.1-.41-.24-.61-.41s-.35-.38-.46-.63c-.04-.07-.05-.14-.04-.2.01-.07.04-.12.08-.17.04-.05.1-.08.15-.1.06-.02.12-.02.18,0,.06.02.12.07.16.15.1.19.21.34.35.47.14.12.28.22.42.29.23.11.44.17.65.17.2,0,.4-.03.58-.11.18-.08.35-.2.5-.37.16-.17.3-.38.42-.65.24-.51.31-.96.21-1.37-.1-.41-.37-.72-.81-.93-.15-.07-.31-.12-.48-.14-.18-.03-.37-.02-.58.02-.09.02-.16,0-.21-.03-.06-.03-.09-.08-.12-.14-.02-.06-.03-.12-.01-.18.01-.07.04-.12.09-.17.04-.05.1-.08.18-.09.26-.06.51-.08.77-.04s.48.11.69.21Z"/>
    <path d="m23.46,80.18c.37.27.64.55.82.86.18.31.26.62.25.93-.01.31-.12.6-.32.88-.13.18-.27.32-.43.44-.16.11-.33.2-.52.27-.19.06-.41.1-.65.12-.24.02-.5.02-.79.01l-.37-.02.18-.07c.05.45.06.82.01,1.09-.04.27-.14.52-.3.73-.17.24-.38.41-.63.52-.24.11-.51.13-.79.09-.28-.05-.56-.17-.83-.37-.37-.27-.59-.58-.67-.95-.08-.37,0-.72.25-1.07.14-.19.3-.34.49-.45.19-.11.43-.19.73-.23.29-.04.66-.04,1.1,0l-.14.15-.27-2.71.14.1c-.16.07-.33.17-.5.29-.17.12-.35.26-.52.43-.18.16-.35.34-.52.55-.07.08-.15.13-.23.14s-.17-.01-.25-.08c-.09-.06-.14-.14-.15-.23,0-.09.03-.18.11-.27.21-.25.43-.47.65-.66.22-.2.45-.37.68-.51.23-.14.46-.26.68-.35l-.13.19-.15-1.42c-.02-.12,0-.21.05-.27.05-.06.12-.1.19-.1.08,0,.16.02.25.08.07.05.12.11.15.17.03.06.05.15.07.25l.11,1.11-.16-.12c.42-.11.83-.13,1.25-.06.42.07.81.24,1.17.5Zm-3.99,5c.22.16.45.23.69.2.24-.03.43-.15.59-.36.08-.11.14-.23.18-.35.04-.12.05-.27.05-.45,0-.18-.02-.42-.04-.72l.17.11c-.37-.02-.67-.02-.9,0-.24.02-.43.06-.57.13-.15.07-.27.17-.36.3-.15.2-.2.41-.16.62.04.21.16.39.36.53Zm3.58-4.49c-.3-.22-.61-.35-.93-.39s-.66,0-1,.11l.15-.19.34,3.02-.23-.21.36.02c.33.02.61,0,.83-.02.23-.03.42-.09.57-.19.16-.09.29-.22.42-.39.21-.29.27-.58.19-.89-.08-.31-.31-.6-.69-.87Z"/>
    <path d="m17.84,72.93c.08.1.12.2.11.29-.01.09-.07.18-.17.26l-4.47,3.67c-.1.08-.2.12-.29.11-.09,0-.18-.06-.26-.15-.08-.1-.12-.2-.11-.29,0-.1.06-.18.16-.27l.71-.58-.04.17c-.35.15-.7.18-1.07.08-.36-.1-.68-.31-.95-.64-.27-.32-.42-.67-.47-1.04-.05-.37.02-.73.19-1.1.17-.36.45-.7.84-1.02.38-.32.77-.52,1.16-.62.39-.1.76-.09,1.11.02.35.11.66.33.93.66.27.33.42.68.44,1.05.03.37-.07.71-.28,1.03l-.07-.09,1.94-1.6c.1-.08.2-.12.3-.1.1.01.19.06.26.16Zm-2.98.08c-.19-.23-.41-.38-.65-.46-.25-.08-.51-.08-.8,0-.29.08-.57.24-.87.48-.45.37-.72.76-.79,1.16s.03.77.31,1.11c.18.22.4.38.65.46.25.08.51.08.79,0,.28-.08.58-.24.88-.49.45-.37.71-.75.78-1.16.07-.4-.03-.77-.31-1.11Z"/>
    <path d="m12.31,68.36c.27.42.41.83.44,1.24.02.41-.06.79-.26,1.15-.2.36-.51.67-.94.94-.41.26-.83.41-1.24.44-.41.03-.79-.04-1.15-.22-.36-.18-.65-.45-.89-.83-.17-.27-.28-.54-.32-.8s-.03-.53.04-.79c.07-.26.21-.5.4-.73.19-.23.44-.44.74-.63.09-.06.17-.07.24-.05s.14.08.2.17l1.8,2.85-.43.27-1.7-2.69.19.06c-.29.19-.52.39-.67.6-.15.22-.23.44-.23.68,0,.24.07.48.23.73.18.28.39.47.64.59.25.11.52.15.81.1.29-.05.58-.16.88-.35l.05-.03c.5-.32.81-.68.92-1.09.11-.41.02-.84-.26-1.28-.12-.19-.26-.35-.42-.51-.16-.15-.36-.28-.58-.38-.1-.05-.16-.1-.2-.16-.04-.06-.05-.13-.04-.19.01-.06.04-.11.08-.16.04-.05.1-.08.18-.09.08-.01.16,0,.25.04.24.1.48.25.71.45.23.2.41.42.57.66Z"/>
    <path d="m10.07,64.26c.2.41.27.82.24,1.2-.04.39-.18.74-.43,1.07-.25.32-.6.59-1.05.8-.34.16-.67.26-.98.29s-.61,0-.89-.08c-.28-.09-.53-.23-.75-.43-.22-.2-.4-.45-.55-.76-.2-.41-.27-.82-.24-1.2.04-.39.18-.74.43-1.07.25-.32.6-.59,1.05-.8.34-.16.66-.26.98-.29.31-.03.61,0,.89.08.28.09.53.23.75.43.22.2.4.45.55.76Zm-.57.27c-.12-.26-.3-.46-.52-.6-.22-.14-.48-.2-.78-.19-.3,0-.62.09-.96.26-.53.25-.88.56-1.05.93s-.16.75.03,1.16c.13.27.3.47.52.61.22.14.47.2.77.19.29,0,.62-.09.97-.26.52-.25.87-.56,1.04-.93.17-.37.16-.76-.03-1.15Z"/>
    <path d="m10.33,60.53c.04.12.04.23,0,.31s-.13.14-.25.18l-5.5,1.78c-.12.04-.23.04-.31,0-.08-.04-.15-.12-.18-.24-.04-.12-.04-.23,0-.31.04-.09.13-.15.25-.19l.87-.28-.1.14c-.38.02-.72-.09-1.02-.31-.3-.23-.52-.54-.65-.94-.13-.4-.15-.78-.06-1.14s.28-.68.58-.95c.29-.27.68-.49,1.16-.65.47-.15.91-.2,1.31-.15.4.05.74.19,1.03.42.29.23.49.55.63.96.13.4.14.79.03,1.14-.11.36-.32.64-.63.86l-.04-.11,2.39-.78c.12-.04.23-.04.31.01.09.05.15.13.19.24Zm-2.8-1.01c-.09-.28-.24-.5-.44-.67-.2-.16-.45-.26-.74-.29-.29-.03-.62.01-.98.13-.56.18-.94.44-1.16.79-.21.34-.25.73-.11,1.15.09.28.23.5.43.66.2.17.45.26.74.3.29.03.62-.01,1-.14.55-.18.94-.44,1.15-.79.22-.35.26-.73.12-1.15Z"/>
    <path d="m6.96,54.88c.1.45.04.83-.19,1.13-.22.3-.6.51-1.11.62l-4.82,1.06c-.13.03-.23.02-.31-.03-.08-.05-.13-.14-.16-.26-.03-.12-.01-.22.04-.31.05-.08.14-.14.27-.17l4.76-1.04c.34-.07.58-.2.72-.37.14-.17.18-.39.12-.66-.01-.06-.03-.11-.04-.15-.02-.04-.03-.09-.04-.13-.02-.07-.02-.12.02-.16.03-.04.1-.07.22-.09.11-.03.2-.02.27.02.07.04.12.11.17.22.02.05.04.1.05.16.02.06.03.11.04.16Z"/>
    <path d="m6.46,51.69c.07.49.03.93-.12,1.31-.15.38-.39.69-.72.94-.33.24-.75.4-1.25.46-.49.07-.92.03-1.31-.12-.39-.14-.71-.37-.95-.68-.25-.31-.4-.68-.46-1.12-.04-.31-.03-.6.04-.87.07-.26.2-.5.37-.7.17-.2.4-.37.67-.5.27-.13.58-.22.93-.27.1-.01.18,0,.24.06.06.05.09.13.11.24l.45,3.34-.51.07-.42-3.16.14.14c-.34.05-.63.14-.86.27-.23.13-.39.31-.49.52-.1.21-.13.47-.09.76.04.33.16.59.34.8.18.21.41.35.69.43.28.08.6.1.95.05h.06c.59-.09,1.02-.29,1.29-.61.27-.33.37-.75.3-1.28-.03-.22-.09-.43-.17-.64-.09-.21-.21-.4-.37-.59-.07-.08-.11-.16-.11-.23,0-.07,0-.14.04-.19.04-.05.08-.09.14-.11.06-.02.12-.03.2,0,.07.02.14.07.2.14.18.19.33.42.46.7s.2.56.24.84Z"/>
    <path d="m3.85,48.66c0,.1-.03.18-.09.24-.06.07-.14.1-.23.1-.1,0-.18-.03-.24-.09-.06-.06-.09-.14-.1-.24l-.04-2.18c0-.09.03-.17.09-.23s.14-.1.24-.1c.09,0,.17.03.23.09.06.06.09.14.1.23l.04,2.18Z"/>
    <path d="m6.34,42.94c-.04.46-.18.84-.41,1.16-.23.32-.54.55-.92.7-.38.15-.82.2-1.31.15-.37-.04-.7-.12-.99-.25-.29-.13-.53-.31-.72-.52-.19-.22-.33-.47-.42-.75-.09-.28-.11-.6-.08-.94.04-.46.18-.84.41-1.16.23-.31.54-.55.92-.7s.82-.2,1.31-.15c.37.04.7.12.99.25.29.13.53.31.72.52.2.22.34.47.42.75.09.28.11.6.08.94Zm-.63-.06c.03-.29-.02-.55-.14-.78-.12-.23-.31-.42-.57-.56-.26-.14-.58-.23-.96-.27-.58-.05-1.04.03-1.38.26-.33.23-.52.57-.56,1.01-.03.3.02.56.14.79.12.23.3.41.56.56s.58.23.97.27c.58.05,1.04-.04,1.37-.27.34-.23.53-.57.57-1.01Z"/>
    <path d="m6.8,39.43c-.03.13-.08.22-.16.27-.08.05-.19.07-.31.04l-3.96-.79c-.13-.03-.22-.08-.27-.15-.05-.08-.07-.17-.04-.29.02-.12.08-.21.16-.26.08-.05.18-.07.31-.04l.77.15-.02.1c-.35-.18-.6-.43-.75-.75-.15-.33-.18-.7-.11-1.12.01-.1.05-.17.11-.22.06-.05.15-.06.26-.05.11.01.19.06.24.13.05.07.07.17.06.29v.16c-.06.44.01.8.2,1.07.19.28.49.46.9.54l2.3.46c.13.03.22.08.27.16.06.08.07.18.05.31Z"/>
    <path d="m1.82,34.74c-.04.16-.12.27-.22.33s-.23.08-.38.04c-.15-.04-.25-.11-.31-.22s-.06-.24-.02-.4c.04-.16.11-.27.22-.34.1-.06.23-.08.37-.03.14.04.25.11.31.22.06.11.07.24.03.4Zm5.68,1.52c-.03.12-.09.21-.18.25-.09.04-.2.05-.33.01l-3.82-1.02c-.13-.04-.22-.09-.27-.17-.05-.08-.06-.18-.03-.31.03-.12.09-.2.18-.25s.2-.06.33-.02l3.82,1.02c.13.04.22.09.28.18s.06.19.03.31Z"/>
    <path d="m8.66,32.72c-.17.47-.41.84-.71,1.11-.31.27-.66.44-1.07.5-.41.06-.85,0-1.32-.16-.46-.17-.83-.4-1.11-.71-.28-.31-.46-.65-.53-1.04-.08-.39-.04-.79.11-1.21.11-.3.25-.55.44-.75.19-.2.4-.35.65-.45.25-.1.52-.14.82-.14.3,0,.61.07.95.19.1.04.16.09.18.16.03.07.02.16-.02.26l-1.14,3.17-.48-.17,1.08-2.99.07.19c-.33-.12-.62-.17-.89-.15-.26.02-.49.09-.68.23s-.33.35-.43.63c-.11.31-.14.6-.07.86.06.27.2.5.42.7.21.2.49.36.82.48l.05.02c.56.2,1.03.22,1.42.05.39-.16.67-.5.85-.99.07-.21.12-.42.14-.64.02-.22,0-.45-.06-.69-.02-.1-.02-.19,0-.26.03-.07.07-.12.12-.15.06-.03.11-.04.18-.03.06,0,.12.03.18.09s.1.13.12.22c.07.25.1.53.08.83-.02.3-.08.59-.17.85Z"/>
    <path d="m9.8,29.83c-.06.12-.13.19-.23.21-.09.03-.2,0-.31-.05l-3.6-1.82c-.12-.06-.19-.13-.22-.22-.03-.09-.02-.19.04-.3.06-.11.13-.18.22-.21s.19-.02.31.04l.74.38-.15.04c-.27-.29-.42-.61-.46-.97-.03-.36.04-.72.22-1.07.17-.33.37-.58.6-.74.23-.16.5-.23.8-.22.3.01.64.12,1.01.31l2.31,1.17c.11.06.19.13.22.23.03.09.02.19-.03.3-.06.12-.13.19-.23.21-.09.03-.2.01-.31-.04l-2.27-1.15c-.39-.2-.72-.27-.97-.21s-.47.26-.64.59c-.2.39-.23.75-.11,1.1.12.35.38.62.78.82l2.09,1.06c.24.12.3.3.18.54Z"/>
    <path d="m13.12,24c-.2.31-.42.53-.67.67-.25.14-.51.19-.79.15-.28-.03-.58-.15-.89-.35l-2.08-1.33-.35.55c-.06.09-.13.15-.2.17-.08.02-.16,0-.24-.05s-.13-.12-.14-.19c-.01-.08.01-.16.07-.25l.35-.55-.94-.6c-.11-.07-.17-.15-.19-.25-.02-.1,0-.2.07-.3.07-.1.15-.16.24-.19.09-.02.19,0,.3.07l.94.6.66-1.03c.06-.09.13-.15.2-.17.07-.02.15,0,.23.05s.13.12.14.2c.01.08,0,.16-.07.26l-.66,1.03,2.01,1.29c.31.2.59.28.83.26s.46-.19.65-.48c.07-.1.11-.2.14-.29.03-.09.05-.16.09-.2.03-.05.07-.08.13-.09.06,0,.13.02.23.08.06.04.12.09.16.15.04.06.05.13.03.2-.02.08-.05.18-.1.3-.05.12-.1.22-.16.31Z"/>
    <path d="m15.08,21.35c-.31.39-.65.67-1.02.83s-.77.21-1.17.14c-.41-.07-.81-.26-1.2-.57-.39-.3-.66-.64-.83-1.02-.17-.38-.23-.76-.18-1.16.05-.39.21-.77.48-1.12.2-.25.41-.44.65-.57s.49-.21.76-.22c.27-.02.54.03.82.13.28.1.56.26.84.48.08.06.12.13.13.21,0,.08-.03.16-.1.24l-2.08,2.65-.4-.32,1.97-2.5v.2c-.27-.22-.53-.36-.79-.43-.25-.07-.49-.06-.72,0-.22.08-.43.23-.61.46-.2.26-.32.52-.34.8-.02.27.04.54.17.8s.35.49.63.71l.05.04c.47.37.91.53,1.33.5.42-.03.79-.26,1.12-.68.14-.17.25-.36.34-.57.09-.21.14-.43.16-.68.01-.11.04-.19.09-.24.05-.06.1-.09.16-.1.06,0,.12,0,.18.02.06.03.11.07.14.14.04.07.05.15.04.25,0,.26-.07.53-.19.81-.11.28-.26.53-.43.75Z"/>
    <path d="m18.08,17.98c-.3.29-.63.48-.99.56-.36.08-.73.05-1.11-.09-.38-.14-.74-.38-1.09-.74-.35-.36-.6-.73-.73-1.1-.13-.38-.16-.75-.08-1.11s.27-.69.57-.98c.3-.3.64-.48,1-.54.36-.06.71,0,1.04.18l-.08.07-2.03-2.05c-.09-.09-.14-.19-.14-.28,0-.1.05-.19.14-.28.09-.09.18-.13.27-.13.1,0,.19.05.28.14l4.33,4.37c.09.09.14.19.14.28s-.04.19-.13.28c-.09.09-.18.13-.28.13-.1,0-.19-.05-.28-.14l-.65-.65.17.02c.19.33.25.69.18,1.06-.06.37-.25.71-.55,1.01Zm-.33-.56c.21-.2.34-.43.39-.69.06-.25.03-.52-.07-.8s-.29-.55-.56-.82c-.41-.42-.82-.64-1.22-.68-.4-.04-.76.1-1.08.42-.21.21-.34.44-.4.69-.06.25-.03.51.07.79.1.27.29.55.57.83.41.41.82.64,1.23.67.41.04.77-.1,1.08-.41Z"/>
  </g>
</svg>