<?xml version="1.0" encoding="UTF-8"?>
<svg id="Layer_1" data-name="Layer 1" xmlns="http://www.w3.org/2000/svg" viewBox="0 0 95 95">
  <defs>
    <style>
      .cls-1 {
        fill: #231f20;
      }

      .cls-2 {
        fill: #429ad5;
      }
    </style>
  </defs>
  <path d="m36.39,42.45c0,1.19-.96,2.15-2.15,2.15s-2.15-.96-2.15-2.15.96-2.15,2.15-2.15,2.15.96,2.15,2.15Z"/>
  <path class="cls-2" d="m77.8,33.05H15.92c-1.52,0-2.76,1.23-2.76,2.76,0,18.58,15.12,33.7,33.7,33.7s33.7-15.12,33.7-33.7c0-1.52-1.23-2.76-2.76-2.76Zm-24.68,21.68c-3.39,0-6.34-1.91-7.83-4.71-1.49,2.8-4.44,4.71-7.83,4.71-4.9,0-8.87-3.97-8.87-8.87s3.97-8.87,8.87-8.87c3.39,0,6.34,1.91,7.83,4.71,1.49-2.8,4.44-4.71,7.83-4.71,4.9,0,8.87,3.97,8.87,8.87s-3.97,8.87-8.87,8.87Z"/>
  <path d="m56.32,63.64h-12.79c-.47,0-.85-.38-.85-.85s.38-.85.85-.85h12.5l5.44-4.16c.37-.29.91-.21,1.19.16.29.37.22.91-.16,1.19l-5.67,4.34c-.15.11-.33.18-.52.18Z"/>
  <path d="m51.96,42.45c0,1.19-.96,2.15-2.15,2.15s-2.15-.96-2.15-2.15.96-2.15,2.15-2.15,2.15.96,2.15,2.15Z"/>
  <g>
    <path class="cls-1" d="m15.61,19.05c-.22.25-.48.42-.79.52-.3.1-.61.12-.93.07-.31-.06-.6-.2-.85-.42-.23-.21-.4-.46-.49-.76-.1-.3-.12-.61-.06-.93.06-.32.2-.61.44-.87.22-.24.48-.41.78-.52.3-.1.61-.13.93-.07.32.06.6.2.86.43.25.22.41.48.5.79.09.3.1.61.04.93-.07.31-.21.6-.44.85Z"/>
    <path class="cls-2" d="m22.85,13.89c-.57.43-1.15.67-1.73.75-.58.07-1.14-.02-1.67-.29-.53-.26-1.02-.68-1.45-1.26-.32-.43-.55-.87-.68-1.31-.13-.44-.17-.87-.12-1.29.05-.42.2-.83.44-1.21.24-.39.58-.74,1.01-1.06.29-.21.6-.39.93-.52.33-.13.65-.21.96-.23.16-.01.29.01.4.08.11.07.19.16.23.26.05.11.06.22.04.33-.02.11-.07.21-.16.29-.09.08-.22.13-.39.14-.24.02-.47.07-.69.16-.22.09-.43.21-.62.35-.37.27-.63.58-.77.92-.14.34-.17.7-.09,1.09.08.38.28.78.59,1.2.31.41.63.72.98.91.35.2.7.27,1.07.24s.74-.2,1.11-.47c.2-.15.38-.32.53-.51.16-.19.28-.4.38-.64.06-.15.15-.26.24-.32.1-.06.2-.08.3-.07.11.01.2.05.28.12.08.07.15.16.18.28.04.11.03.24-.01.38-.1.31-.26.61-.49.9s-.49.55-.79.77Z"/>
    <path class="cls-2" d="m26.94,11.3c-.43.24-.86.36-1.27.36-.42,0-.8-.11-1.16-.34-.36-.23-.66-.57-.9-1.01-.19-.34-.3-.66-.35-.98-.05-.32-.03-.63.05-.92.08-.29.23-.56.43-.81.21-.24.47-.46.8-.63.43-.24.86-.36,1.27-.36.42,0,.8.11,1.16.34.36.23.66.56.9,1,.19.34.3.66.35.99.05.32.03.63-.05.92-.08.29-.23.56-.43.81-.21.24-.47.46-.8.63Zm-.45-.81c.21-.12.37-.27.47-.46.1-.19.14-.41.12-.66-.02-.25-.12-.53-.29-.83-.25-.45-.53-.74-.85-.86-.32-.12-.64-.09-.95.09-.21.12-.37.27-.47.46-.1.19-.15.41-.12.66.02.25.12.53.28.83.25.45.53.73.85.86.32.12.64.1.96-.08Z"/>
    <path class="cls-2" d="m30.28,9.6c-.18.07-.34.08-.48.02-.14-.06-.24-.19-.31-.37l-1.35-3.42c-.07-.19-.08-.35-.02-.48.06-.13.18-.24.35-.31.17-.07.33-.07.46-.02.13.06.24.18.31.37l.24.62-.19-.19c0-.37.12-.7.33-.97.22-.28.5-.49.86-.63s.68-.19.96-.15c.28.04.53.18.75.4.22.22.41.54.57.95l.87,2.19c.07.19.08.35.02.49-.06.14-.18.24-.36.31-.18.07-.34.08-.48.02-.14-.06-.25-.18-.32-.37l-.84-2.14c-.14-.34-.3-.57-.49-.67-.19-.11-.42-.1-.69,0-.33.13-.56.34-.67.63-.11.29-.1.6.03.94l.78,1.98c.15.39.04.65-.34.8Z"/>
    <path class="cls-2" d="m36.93,7.36c-.41.11-.77.14-1.08.07s-.57-.21-.77-.44c-.2-.23-.36-.54-.47-.94l-.55-2-.49.13c-.15.04-.28.03-.38-.02-.1-.06-.17-.15-.21-.29-.04-.14-.03-.26.03-.36.06-.1.17-.17.32-.21l.49-.13-.23-.85c-.05-.19-.04-.36.03-.48.08-.13.21-.22.4-.27.19-.05.35-.04.47.03.13.07.22.21.27.4l.23.85,1-.27c.15-.04.28-.04.38.02.1.05.17.15.21.29.04.14.03.26-.03.36-.06.1-.16.17-.31.21l-.99.27.53,1.93c.08.3.21.51.38.62.17.11.41.13.7.05.11-.03.2-.06.27-.11s.15-.07.21-.1c.07-.03.14-.02.21.02.06.04.12.14.16.3.03.13.05.24.03.35-.01.11-.07.2-.16.26-.07.05-.17.1-.3.16-.13.06-.24.1-.34.13Z"/>
    <path class="cls-2" d="m40.47,6.65c-.53.09-1.01.07-1.42-.07-.42-.13-.76-.37-1.03-.7-.27-.33-.45-.75-.53-1.24-.08-.49-.05-.93.09-1.33.14-.4.37-.73.69-1,.32-.27.71-.44,1.16-.52.33-.06.64-.05.93.01.28.06.54.18.76.36s.41.4.56.67c.15.27.25.59.31.96.02.12,0,.21-.08.28-.07.07-.18.12-.33.15l-3.08.51-.12-.69,2.7-.45-.13.17c-.05-.29-.13-.53-.25-.72-.12-.18-.27-.32-.45-.39-.18-.08-.39-.1-.64-.06-.27.05-.49.15-.66.3-.17.16-.28.36-.34.6-.06.24-.07.52-.01.84v.07c.1.52.29.9.58,1.11.29.22.68.29,1.16.21.17-.03.35-.08.55-.16.2-.08.39-.18.55-.31.12-.1.23-.15.34-.16.1,0,.19.02.26.07.07.05.12.13.15.22.03.09.03.19,0,.29-.03.1-.1.2-.2.29-.2.18-.44.33-.72.44-.28.12-.55.19-.79.24Z"/>
    <path class="cls-2" d="m43.65,6.14c-.19,0-.34-.05-.45-.16-.1-.11-.16-.26-.16-.46l-.02-3.68c0-.2.05-.35.15-.46.1-.1.25-.16.44-.16.19,0,.33.05.44.15.1.1.16.26.16.46v.71s-.1-.29-.1-.29c.13-.32.33-.58.6-.77.27-.19.6-.29.97-.29.38,0,.7.09.95.27.25.18.42.46.52.84h-.14c.13-.34.34-.62.64-.82.3-.2.64-.3,1.03-.3.36,0,.66.07.9.21.24.14.42.36.53.65.12.29.18.65.18,1.09v2.36c.01.2-.04.36-.15.46s-.26.16-.45.16c-.19,0-.34-.05-.45-.16-.1-.11-.16-.26-.16-.46v-2.31c-.01-.36-.07-.63-.19-.8-.12-.17-.32-.25-.61-.25-.32,0-.57.11-.75.34-.18.22-.27.54-.27.93v2.09c.01.2-.04.36-.14.46-.1.11-.25.16-.45.16-.19,0-.35-.05-.45-.16-.11-.11-.16-.26-.16-.46v-2.31c-.01-.36-.07-.63-.19-.8-.12-.17-.32-.25-.6-.25-.32,0-.57.11-.75.34-.18.22-.27.54-.27.93v2.09c.01.42-.19.62-.6.63Z"/>
    <path class="cls-2" d="m51.52,8.12c-.19-.03-.33-.11-.42-.23-.09-.12-.11-.28-.08-.48l.88-5.37c.03-.2.11-.34.23-.43.12-.09.27-.11.46-.08.19.03.33.11.42.23s.11.28.08.48l-.12.75-.06-.31c.15-.31.39-.54.72-.69.33-.15.69-.19,1.09-.13.41.07.75.23,1.03.48.28.25.47.57.59.96.11.39.13.84.05,1.34-.08.5-.24.92-.47,1.26s-.52.58-.86.73c-.34.15-.72.19-1.13.12-.39-.06-.72-.22-.98-.46-.26-.24-.42-.53-.47-.86l.12.02-.35,2.16c-.03.2-.11.34-.23.43-.12.08-.28.11-.47.08Zm2.21-2.33c.24.04.45.02.65-.07.2-.09.37-.23.5-.45.14-.21.23-.49.29-.83.08-.51.04-.91-.14-1.2-.18-.29-.44-.46-.8-.52-.24-.04-.45-.02-.65.07-.2.08-.36.23-.5.44-.14.21-.23.49-.29.83-.08.51-.04.91.14,1.2.18.3.44.47.8.53Z"/>
    <path class="cls-2" d="m58.27,7.77c-.52-.14-.87-.4-1.05-.77s-.19-.84-.04-1.42l1.21-4.44c.05-.19.14-.33.27-.4.13-.07.29-.08.47-.03.19.05.32.14.4.27.08.13.09.29.04.48l-1.19,4.39c-.08.29-.07.52,0,.69.09.17.24.29.47.35.05.01.1.02.14.03s.09.02.14.02c.09.01.14.05.16.12s0,.19-.05.37c-.04.16-.11.27-.19.34-.09.07-.2.1-.35.08-.06-.01-.13-.02-.2-.03-.07-.01-.14-.03-.21-.05Z"/>
    <path class="cls-2" d="m60.96,8.65c-.32-.12-.59-.29-.79-.51-.2-.22-.34-.46-.4-.73-.06-.27-.04-.53.06-.8.12-.33.31-.56.55-.68.24-.13.57-.16.99-.1.41.06.94.21,1.59.46l.46.17-.25.66-.45-.17c-.38-.14-.68-.24-.92-.29-.24-.05-.42-.05-.55,0-.13.05-.22.16-.28.32-.08.2-.07.39.02.57.09.18.26.32.51.41.2.08.4.1.59.06.19-.04.36-.12.52-.25.15-.13.27-.3.35-.51l.4-1.05c.11-.3.13-.55.05-.73-.08-.18-.28-.34-.6-.46-.18-.07-.37-.12-.59-.15-.22-.03-.46-.04-.72-.02-.14.01-.24-.01-.32-.07-.08-.06-.13-.13-.15-.23-.02-.09-.01-.19.02-.28.03-.09.09-.17.17-.24.08-.07.19-.1.32-.1.32,0,.62,0,.9.06.28.05.52.11.73.19.44.17.77.37,1,.61.23.24.37.52.4.85.04.32-.02.7-.19,1.12l-.83,2.19c-.07.19-.17.32-.3.38-.13.07-.28.07-.45,0-.17-.06-.28-.16-.34-.3-.06-.14-.05-.3.02-.49l.17-.44.07.03c-.12.2-.28.35-.46.46-.18.11-.38.17-.61.18-.22.01-.45-.03-.69-.12Z"/>
    <path class="cls-2" d="m66.15,10.96c-.38-.19-.66-.41-.85-.67-.19-.25-.28-.54-.28-.84,0-.31.09-.64.28-1.01l.93-1.85-.45-.23c-.14-.07-.23-.16-.27-.27-.04-.11-.03-.23.04-.36.07-.13.16-.22.27-.25.11-.03.23-.01.37.06l.45.23.4-.79c.09-.18.21-.29.35-.34.14-.04.3-.02.47.06.17.09.28.2.33.34.05.14.02.3-.07.48l-.4.79.92.46c.14.07.23.16.27.27.04.11.03.23-.04.36-.06.13-.15.21-.26.24-.11.03-.24.02-.38-.05l-.92-.46-.9,1.79c-.14.28-.18.52-.13.72.05.2.21.37.49.51.1.05.19.08.27.1.08.02.16.04.22.07.07.03.12.08.14.15.02.07,0,.18-.08.34-.06.12-.13.21-.21.28-.08.07-.18.1-.3.08-.09-.01-.2-.04-.33-.08-.13-.04-.24-.08-.34-.13Z"/>
    <path class="cls-2" d="m69.11,12.7c-.42-.27-.72-.58-.92-.95-.2-.37-.28-.76-.25-1.18.03-.42.19-.85.46-1.27.21-.32.44-.58.7-.77.26-.19.54-.32.83-.39.3-.07.6-.07.92,0,.31.07.62.2.94.4.41.27.72.58.92.95.2.37.28.76.25,1.18s-.18.84-.46,1.27c-.21.32-.44.58-.7.78-.26.19-.54.33-.84.39s-.6.07-.92,0c-.31-.07-.62-.2-.94-.4Zm.5-.78c.2.13.41.19.63.19s.43-.07.64-.21c.21-.14.41-.35.59-.64.28-.44.4-.82.35-1.16-.05-.34-.22-.6-.53-.8-.2-.13-.41-.2-.62-.2-.21,0-.43.07-.64.2-.21.14-.41.35-.59.64-.28.43-.39.82-.35,1.16.04.34.22.61.52.81Z"/>
    <path class="cls-2" d="m72.23,14.89c-.16-.13-.24-.27-.26-.42-.02-.15.04-.3.17-.46l2.31-2.86c.13-.16.26-.24.41-.26.15-.02.29.04.44.15.15.12.23.25.24.4.02.15-.04.3-.17.45l-.39.48-.08-.06c.32-.25.64-.36.97-.35.33.01.68.14,1.05.39.11.08.18.17.19.28.01.11-.03.24-.13.38-.09.13-.2.21-.34.24-.13.02-.27-.01-.42-.11l-.18-.12c-.33-.22-.64-.31-.93-.28s-.54.19-.78.48l-1.27,1.57c-.13.16-.26.24-.41.26-.15.02-.3-.04-.46-.16Z"/>
    <path class="cls-1" d="m78.27,19.29c-.21-.24-.35-.51-.41-.81-.06-.3-.05-.6.03-.89.09-.29.25-.55.49-.76.22-.2.48-.33.78-.39.3-.06.6-.05.9.04.3.09.56.26.79.51.21.23.34.5.41.8.07.3.06.6-.03.89-.09.3-.26.55-.5.77-.24.21-.51.34-.81.4-.3.05-.6.03-.89-.06-.29-.1-.55-.26-.76-.51Z"/>
    <path class="cls-1" d="m81.67,25.4c-.17-.28-.27-.56-.29-.84-.03-.29.02-.55.13-.79.11-.24.28-.44.51-.58.3-.18.58-.25.85-.2.26.05.54.22.83.53.29.31.62.76.99,1.37l.23.37-.44.27-.22-.37c-.28-.45-.51-.79-.71-1.02-.2-.23-.38-.37-.54-.41-.16-.04-.33,0-.52.11-.23.14-.36.33-.41.58-.05.25.01.5.18.78.14.22.31.38.52.49.21.1.43.15.68.13s.48-.1.72-.24l.95-.58c.34-.21.55-.43.62-.66.07-.23,0-.51-.19-.82-.12-.19-.26-.37-.43-.53-.17-.16-.37-.32-.62-.47-.09-.05-.14-.11-.16-.18s-.02-.13,0-.19c.02-.06.06-.11.12-.15s.12-.06.19-.07c.07,0,.15.02.22.06.27.17.51.36.71.56.2.2.37.41.5.63.21.35.33.67.36.97.03.3-.04.57-.2.82-.16.25-.42.49-.78.71l-2.25,1.38c-.11.07-.21.09-.31.08-.09-.02-.17-.07-.23-.17-.06-.11-.08-.2-.06-.3.03-.09.1-.17.21-.24l.65-.4.05.07c-.24.08-.47.11-.69.08-.23-.03-.44-.12-.63-.25-.19-.13-.36-.31-.5-.54Z"/>
    <path class="cls-1" d="m83.57,28.67c-.05-.12-.06-.22-.02-.31.04-.09.12-.16.23-.21l3.69-1.68c.12-.05.22-.07.31-.03.09.03.16.1.21.21.05.11.06.21.03.3s-.11.16-.23.22l-.76.35.06-.15c.4-.03.75.05,1.05.25.3.2.54.48.7.85.16.34.22.66.2.94-.02.28-.13.54-.33.77-.2.23-.49.43-.88.6l-2.37,1.08c-.12.05-.22.06-.32.03-.09-.03-.17-.1-.22-.22-.05-.12-.06-.22-.03-.31.04-.09.11-.16.23-.22l2.33-1.06c.4-.18.66-.4.77-.64.11-.24.09-.53-.06-.88-.18-.4-.45-.65-.8-.78s-.73-.09-1.14.1l-2.14.98c-.25.11-.43.05-.54-.19Z"/>
    <path class="cls-1" d="m85.95,34.56c-.1-.31-.13-.61-.08-.89.04-.28.15-.53.31-.74.17-.21.38-.35.64-.44.33-.11.62-.1.87,0,.25.11.47.35.68.72s.41.89.63,1.57l.13.42-.49.16-.13-.41c-.16-.5-.31-.89-.44-1.16-.14-.27-.28-.45-.43-.53-.15-.08-.32-.09-.53-.02-.25.08-.43.23-.54.46-.11.23-.11.49-.01.8.08.25.21.45.38.6.18.15.38.25.62.29.24.04.49.02.76-.06l1.06-.33c.38-.12.64-.29.76-.49s.13-.49.01-.84c-.07-.22-.16-.42-.29-.62-.12-.2-.29-.4-.49-.6-.07-.07-.11-.14-.11-.21,0-.07.01-.13.05-.18s.09-.09.15-.12c.06-.03.13-.03.2-.02.07.01.14.05.2.12.22.23.41.47.55.71.15.25.26.49.33.73.12.39.16.73.11,1.03s-.18.54-.4.75-.53.37-.93.5l-2.52.8c-.12.04-.23.04-.32,0-.09-.04-.15-.11-.18-.22-.04-.12-.03-.22.02-.3.05-.08.13-.14.26-.18l.72-.23.03.08c-.25.02-.48,0-.69-.09-.21-.09-.4-.22-.55-.39-.16-.17-.28-.39-.36-.64Z"/>
    <path class="cls-1" d="m87.18,39.29c-.1-.46-.04-.84.19-1.14.23-.3.6-.51,1.12-.62l4.85-1.05c.13-.03.23-.02.31.03.08.05.13.14.16.26.03.12.01.22-.04.31-.05.08-.14.14-.27.17l-4.8,1.04c-.34.07-.58.2-.72.37-.14.17-.18.39-.12.66.01.06.03.11.04.15.02.04.03.09.04.13.02.07.02.12-.02.16-.03.04-.11.07-.22.09-.11.02-.21.02-.27-.02s-.12-.11-.17-.22c-.02-.05-.04-.1-.05-.16-.02-.06-.03-.11-.04-.16Z"/>
    <path class="cls-1" d="m85.83,41.64c-.01-.1,0-.18.05-.24.04-.06.11-.11.19-.13.09-.02.18-.02.27.01l1.58.48-.34.04,4.08-2.4c.09-.05.18-.07.27-.07.09,0,.16.03.22.09.06.06.1.15.11.26.01.1,0,.19-.04.25-.04.06-.11.13-.22.19l-3.68,2.07-.03-.26,4.08,1.12c.12.04.21.08.26.13.05.05.09.13.1.24.01.1,0,.19-.05.25-.04.06-.11.1-.19.12-.08.02-.17.02-.27,0l-6.03-1.75c-.12-.04-.21-.08-.26-.14-.05-.06-.09-.14-.1-.25Z"/>
    <path class="cls-1" d="m87.97,47.13c0-.37.05-.68.18-.94.13-.25.32-.44.57-.57.25-.13.56-.2.93-.21l2.48-.06-.02-.65c0-.11.02-.2.08-.25.05-.06.13-.09.23-.09.1,0,.17.03.23.08.05.06.08.14.08.25l.02.65,1.12-.03c.13,0,.23.03.3.1.07.07.11.17.11.29s-.03.22-.1.29c-.07.07-.16.11-.29.11l-1.12.03.03,1.23c0,.11-.02.2-.07.25-.05.06-.12.09-.22.09-.1,0-.17-.02-.23-.08-.06-.06-.09-.14-.09-.25l-.03-1.23-2.4.06c-.37,0-.65.09-.84.25-.19.16-.28.42-.27.77,0,.12.02.23.05.32.03.09.04.16.04.22,0,.06-.01.11-.05.15-.04.04-.12.06-.23.06-.08,0-.15-.01-.22-.04s-.11-.08-.14-.15c-.03-.08-.05-.18-.08-.3-.03-.13-.04-.24-.04-.34Z"/>
    <path class="cls-1" d="m87.96,48.9c0-.13.05-.23.12-.29.08-.06.18-.09.32-.08l3.98.16c.14,0,.24.04.31.11.07.07.1.17.09.3,0,.12-.04.22-.12.29-.07.07-.18.1-.32.09l-3.98-.16c-.14,0-.24-.04-.31-.12-.07-.07-.11-.17-.1-.3Zm5.92.24c0-.16.06-.29.15-.37s.21-.13.36-.12c.16,0,.27.06.35.15.08.09.11.22.11.38,0,.17-.05.3-.14.38-.09.08-.21.12-.36.12-.15,0-.27-.05-.35-.15-.08-.09-.12-.22-.12-.39Z"/>
    <path class="cls-1" d="m87.61,52.56c.06-.47.21-.86.45-1.18.25-.32.57-.54.96-.68.39-.14.83-.18,1.32-.12.37.04.7.14.99.27.28.14.52.32.7.55.19.22.32.48.39.78.08.29.09.62.05.97-.03.23-.09.47-.19.71-.1.24-.25.46-.45.64-.05.06-.11.09-.18.11-.07.01-.13,0-.19-.02-.06-.03-.11-.07-.14-.12-.04-.05-.05-.11-.05-.18,0-.07.03-.14.09-.2.15-.15.26-.31.33-.48.07-.17.12-.33.14-.49.03-.25.02-.48-.04-.67-.06-.2-.15-.37-.29-.51-.13-.15-.3-.27-.52-.36-.21-.09-.46-.16-.75-.19-.56-.07-1.02.01-1.38.24-.36.23-.56.58-.62,1.07-.02.16-.01.33.02.51.03.18.1.36.21.55.04.08.06.15.04.21-.01.06-.04.12-.09.16-.05.04-.1.06-.17.07-.07,0-.13,0-.19-.03-.06-.03-.11-.07-.14-.14-.14-.23-.24-.47-.28-.72-.04-.25-.05-.5-.03-.73Z"/>
    <path class="cls-1" d="m86.96,56.2c.07-.32.2-.58.38-.81.18-.22.4-.38.65-.47.25-.1.51-.11.77-.05.34.08.59.23.75.45.16.22.23.54.22.96-.01.42-.1.98-.26,1.67l-.1.43-.5-.12.1-.42c.12-.51.19-.92.21-1.23.02-.31-.01-.53-.1-.67-.09-.14-.23-.24-.44-.29-.26-.06-.49-.02-.7.12-.21.14-.35.37-.42.68-.06.25-.05.49.02.71.08.22.2.41.39.57.18.16.41.27.68.33l1.08.25c.39.09.69.08.9-.04.21-.12.36-.36.44-.72.05-.22.07-.45.07-.68,0-.23-.04-.49-.11-.77-.02-.1-.02-.18.01-.24.03-.06.08-.1.14-.13.06-.03.12-.03.19-.03s.13.04.18.09c.06.05.09.12.11.2.07.31.11.61.11.9,0,.29-.03.55-.09.8-.09.4-.23.71-.42.94-.19.23-.43.38-.72.44-.29.06-.64.05-1.05-.05l-2.57-.6c-.13-.03-.22-.08-.27-.16-.06-.08-.07-.17-.04-.29.03-.12.08-.2.17-.25.08-.05.19-.06.32-.03l.74.17-.02.08c-.23-.11-.41-.25-.55-.43-.14-.18-.23-.39-.27-.62-.05-.23-.04-.48.02-.73Z"/>
    <path class="cls-1" d="m85.61,60.9c.15-.44.4-.74.74-.88.35-.14.78-.13,1.28.04l4.71,1.57c.12.04.21.1.25.19.04.08.05.19,0,.31-.04.12-.1.2-.19.24-.09.05-.19.05-.32,0l-4.66-1.55c-.33-.11-.6-.13-.81-.05-.21.08-.35.25-.44.51-.02.06-.03.11-.04.15,0,.04-.02.09-.03.13-.02.07-.05.11-.09.13-.05.02-.12,0-.24-.03-.11-.04-.19-.09-.22-.16-.04-.07-.05-.16-.03-.28.01-.05.02-.11.03-.16.01-.06.03-.11.04-.16Z"/>
    <path class="cls-1" d="m84.18,62.31c-.05-.09-.07-.17-.06-.24.01-.07.05-.12.1-.16.06-.03.12-.04.18-.02.07.02.13.08.18.17.09.15.19.26.3.35.12.09.23.15.34.2l-.2-.04c.06-.16.16-.26.29-.32s.27-.05.41,0c.14.06.25.15.3.27.06.12.06.26,0,.4-.06.16-.17.26-.31.31-.14.05-.31.03-.51-.05-.13-.05-.25-.12-.38-.19-.13-.08-.25-.18-.36-.29-.11-.12-.21-.25-.3-.4Z"/>
    <path class="cls-1" d="m82.47,67.72c.21-.36.48-.63.82-.8.33-.17.7-.24,1.1-.2.4.04.82.18,1.25.43.44.26.77.55,1,.88.23.33.35.69.36,1.06.01.37-.09.74-.3,1.1-.22.37-.49.63-.83.79s-.69.19-1.06.09l.05-.09,2.51,1.46c.11.07.18.14.2.24.02.09,0,.2-.06.31-.06.11-.14.17-.23.2-.09.02-.2,0-.31-.06l-5.35-3.12c-.11-.07-.18-.14-.21-.24-.03-.09-.01-.19.06-.31.06-.11.14-.17.24-.19.1-.02.2,0,.31.06l.8.47-.17.02c-.27-.28-.42-.6-.45-.98-.04-.38.06-.75.27-1.12Zm.46.46c-.15.25-.21.51-.2.77.01.26.11.51.28.76.18.24.43.46.76.65.51.3.97.41,1.37.34.4-.07.72-.3.94-.69.15-.26.22-.52.21-.77-.01-.26-.1-.51-.27-.75-.17-.24-.43-.46-.77-.66-.5-.29-.96-.41-1.37-.34-.41.07-.72.3-.94.68Z"/>
    <path class="cls-1" d="m79.29,72.48c.3-.4.64-.68,1.02-.84.38-.17.77-.22,1.18-.15.41.06.81.25,1.22.56.39.3.67.64.85,1.02.17.38.24.76.2,1.16-.04.4-.2.77-.47,1.13-.19.25-.41.45-.65.58-.24.14-.49.21-.76.23s-.54-.02-.83-.12c-.28-.1-.57-.26-.85-.47-.08-.06-.13-.13-.13-.21,0-.08.03-.16.1-.25l2.06-2.69.41.31-1.95,2.54v-.2c.27.21.54.35.8.42.26.07.5.06.72-.02.22-.08.43-.24.61-.47.2-.26.31-.53.33-.81.02-.28-.04-.54-.19-.8-.14-.26-.36-.49-.64-.71l-.05-.04c-.47-.36-.92-.52-1.35-.48-.42.04-.8.27-1.12.69-.13.17-.24.37-.33.57-.09.21-.14.44-.16.68,0,.11-.04.19-.09.25-.05.06-.1.09-.16.1-.06.01-.12,0-.18-.02-.06-.02-.11-.07-.15-.14-.04-.07-.05-.15-.04-.25,0-.26.06-.54.18-.82.11-.28.25-.54.43-.77Z"/>
    <path class="cls-1" d="m76.2,76.03c.25-.27.51-.45.78-.54.27-.09.54-.09.81,0,.27.08.54.25.81.51l1.81,1.7.45-.48c.08-.08.15-.12.23-.13.08,0,.16.03.23.09.07.07.11.14.1.22,0,.08-.04.16-.12.24l-.45.48.82.77c.09.09.14.18.14.28,0,.1-.04.19-.13.28-.08.09-.17.14-.27.14-.1,0-.19-.04-.29-.13l-.82-.77-.84.9c-.08.08-.15.12-.23.13-.08,0-.15-.02-.22-.09-.07-.07-.11-.14-.11-.22s.04-.16.11-.24l.84-.9-1.76-1.64c-.27-.25-.53-.39-.77-.41-.25-.02-.49.1-.73.36-.08.09-.15.18-.19.26-.04.08-.08.14-.12.19-.04.05-.08.07-.14.07-.06,0-.13-.04-.21-.12-.06-.05-.1-.11-.13-.18-.03-.07-.03-.13,0-.2.03-.07.09-.17.16-.27.07-.11.14-.2.21-.28Z"/>
    <path class="cls-1" d="m74.19,77.93c.24-.21.5-.36.78-.43.28-.07.54-.08.8,0,.26.07.48.2.66.41.23.26.35.53.34.8,0,.27-.13.57-.38.91-.25.33-.65.74-1.19,1.21l-.33.29-.34-.39.32-.28c.4-.35.69-.64.89-.87s.3-.44.31-.6c.01-.17-.05-.33-.19-.49-.18-.2-.39-.3-.64-.31s-.49.1-.73.31c-.2.17-.33.37-.39.59-.07.22-.07.45-.02.69.06.24.18.46.36.67l.73.84c.27.3.52.47.76.5.24.03.5-.08.78-.32.17-.15.32-.32.46-.51.13-.19.25-.42.36-.69.04-.09.09-.16.15-.19.06-.03.12-.04.18-.03.06.01.12.04.17.09.05.05.08.11.1.18.02.07,0,.15-.03.23-.12.3-.27.56-.43.79-.17.23-.35.43-.54.6-.31.27-.61.44-.89.52-.29.08-.57.05-.84-.06-.27-.12-.55-.33-.83-.65l-1.74-1.99c-.09-.1-.13-.19-.13-.29,0-.09.04-.18.13-.26.09-.08.19-.12.28-.11.1.01.19.07.27.16l.5.57-.07.06c-.12-.22-.19-.44-.19-.67s.04-.45.14-.66c.1-.21.25-.41.45-.58Z"/>
    <path class="cls-1" d="m71.22,80.38c.1-.08.21-.1.3-.08.1.02.19.09.27.2l2.36,3.21c.08.11.12.21.11.31,0,.1-.07.18-.17.26-.1.07-.2.1-.3.09-.1-.02-.19-.08-.27-.19l-2.36-3.21c-.08-.11-.12-.22-.1-.32.01-.1.07-.19.17-.27Zm3.5,4.77c.13-.1.26-.14.38-.12s.23.09.32.21c.09.13.13.25.1.37-.03.12-.1.23-.23.32-.14.1-.26.14-.38.13-.12-.01-.22-.08-.32-.21-.09-.12-.12-.24-.1-.36s.1-.23.23-.33Z"/>
    <path class="cls-1" d="m68.6,82.12c.39-.25.77-.33,1.13-.22.36.11.69.38.98.83l2.7,4.17c.07.11.1.21.08.3s-.08.17-.19.24c-.1.07-.2.09-.3.07-.1-.02-.18-.08-.25-.19l-2.67-4.12c-.19-.29-.39-.48-.6-.54-.21-.07-.43-.03-.66.12-.05.03-.09.06-.13.09-.03.03-.07.06-.11.08-.06.04-.11.06-.15.04-.05-.02-.1-.07-.16-.17s-.09-.19-.08-.26.06-.16.15-.24c.04-.03.08-.07.13-.11.05-.04.09-.07.13-.1Z"/>
    <path class="cls-1" d="m68.52,84.91c.09-.05.17-.06.26-.03s.15.07.19.15c.05.09.06.17.03.26-.03.09-.08.15-.17.2l-1.93,1.04c-.08.04-.16.05-.25.03-.09-.02-.15-.08-.2-.16-.04-.08-.05-.16-.02-.25.03-.09.08-.15.16-.19l1.93-1.04Z"/>
    <path class="cls-1" d="m62.24,85.33c.43-.17.84-.22,1.22-.16.39.06.74.23,1.04.5.31.27.55.64.74,1.11.14.35.21.69.23,1,.01.32-.03.62-.14.89-.11.27-.27.51-.48.72-.21.21-.48.37-.8.5-.43.17-.84.22-1.22.16-.39-.06-.74-.23-1.04-.5-.31-.27-.55-.64-.74-1.11-.14-.35-.21-.68-.23-1-.01-.32.03-.61.14-.89.11-.28.27-.52.48-.73.22-.21.48-.37.8-.5Zm.23.59c-.27.11-.48.27-.64.48-.15.21-.23.47-.25.77-.01.3.05.62.19.98.22.55.51.92.86,1.11.36.19.75.21,1.16.04.28-.11.49-.27.64-.48.15-.21.23-.46.25-.76.01-.29-.05-.63-.2-.99-.22-.54-.5-.91-.87-1.11-.36-.2-.75-.21-1.16-.05Z"/>
    <path class="cls-1" d="m58.83,86.57c.12-.04.23-.03.31.02.09.05.15.14.18.26l1.13,3.9c.04.12.03.23-.01.31-.04.08-.12.14-.24.18-.12.03-.22.03-.3-.02-.08-.05-.15-.13-.18-.26l-.22-.76.09-.03c0,.4-.1.74-.32,1.02-.22.28-.54.49-.95.62-.09.03-.17.03-.24,0-.07-.03-.12-.1-.16-.21-.04-.1-.04-.2,0-.27.04-.08.11-.14.23-.19l.14-.06c.41-.16.7-.39.86-.69.16-.3.18-.65.06-1.06l-.66-2.26c-.04-.12-.03-.23.01-.32s.13-.15.26-.19Z"/>
    <path class="cls-1" d="m55.64,87.42c.13-.03.23-.01.31.05.08.06.13.15.16.29l.86,3.89c.03.13.02.24-.03.33-.05.08-.14.14-.26.17-.12.03-.22.01-.31-.04-.09-.05-.14-.15-.17-.28l-.85-3.89c-.03-.13-.02-.24.03-.33.05-.09.14-.15.27-.17Zm1.27,5.78c.16-.04.29-.02.4.05.11.07.18.17.21.32.03.15.01.28-.06.38-.07.1-.19.17-.34.2-.16.04-.3.02-.4-.04-.1-.06-.17-.17-.2-.32-.03-.15-.01-.27.05-.38.07-.1.18-.17.35-.21Z"/>
    <path class="cls-1" d="m51.9,88.02c.5-.07.93-.02,1.32.13.38.15.7.39.94.73.24.33.4.75.46,1.26.06.49.02.93-.12,1.32-.15.39-.37.71-.68.96-.31.25-.69.4-1.13.46-.32.04-.61.03-.87-.05-.27-.07-.5-.2-.7-.37-.2-.18-.37-.4-.5-.67-.13-.27-.22-.58-.27-.94-.01-.1,0-.18.06-.24s.13-.09.24-.11l3.36-.44.07.51-3.18.42.14-.15c.05.35.14.64.27.86.13.23.31.39.52.5.21.1.47.13.76.1.33-.04.6-.16.81-.34.21-.18.35-.41.43-.7.08-.28.1-.6.05-.95v-.06c-.09-.59-.29-1.02-.61-1.3-.33-.27-.75-.37-1.28-.3-.22.03-.43.09-.64.17-.21.09-.41.21-.59.37-.08.07-.16.11-.24.11-.07,0-.14,0-.19-.04-.05-.04-.09-.08-.11-.14-.02-.06-.03-.13,0-.2s.07-.14.14-.21c.19-.18.43-.33.71-.46.28-.12.56-.2.84-.24Z"/>
    <path class="cls-1" d="m48.76,88.34c.13,0,.23.03.29.11.07.07.1.17.1.3l.03,4.06c0,.13-.03.23-.1.3-.06.07-.16.1-.28.1-.12,0-.22-.03-.29-.1-.07-.07-.1-.17-.1-.3v-.84s.1.12.1.12c-.13.38-.35.66-.66.86-.31.19-.66.29-1.06.29-.38,0-.69-.06-.94-.2s-.44-.34-.56-.61c-.12-.28-.19-.62-.19-1.05l-.02-2.61c0-.13.03-.23.1-.3.07-.07.16-.11.29-.11.13,0,.23.03.3.11.07.07.1.17.1.3l.02,2.56c0,.44.09.76.26.97.17.2.45.3.82.3.43,0,.78-.14,1.03-.41.26-.27.38-.63.38-1.08v-2.36c-.02-.27.12-.41.38-.41Z"/>
    <path class="cls-1" d="m41.97,88.05c.37.04.67.13.91.29.24.16.4.37.5.64.1.27.13.58.09.95l-.24,2.47.65.06c.11.01.19.05.24.11.05.06.07.14.06.24s-.05.17-.11.21c-.06.05-.15.06-.26.05l-.65-.06-.11,1.11c-.01.13-.06.22-.14.29-.08.06-.18.09-.3.07-.12-.01-.21-.06-.28-.13s-.09-.18-.07-.31l.11-1.11-1.22-.12c-.11-.01-.19-.04-.24-.1-.05-.06-.07-.13-.07-.23s.05-.17.11-.22c.06-.05.15-.07.26-.06l1.22.12.23-2.39c.04-.37-.01-.66-.15-.86-.14-.21-.38-.33-.73-.36-.12-.01-.23,0-.32,0-.09.02-.16.02-.22.02-.06,0-.11-.02-.14-.07-.03-.05-.05-.13-.04-.24,0-.08.03-.15.06-.21.04-.06.09-.1.16-.12.08-.02.18-.03.31-.04.13-.01.24-.01.35,0Z"/>
    <path class="cls-1" d="m38.66,87.5c.49.1.89.28,1.21.54.31.26.53.59.66.99.12.4.14.84.04,1.34-.1.48-.27.89-.54,1.21-.26.32-.58.55-.95.69s-.78.16-1.22.08c-.31-.06-.58-.17-.81-.32-.23-.15-.41-.35-.55-.58-.14-.23-.22-.5-.26-.8-.04-.3-.02-.62.05-.97.02-.1.06-.17.13-.21s.15-.04.26-.02l3.32.66-.1.51-3.14-.62.18-.09c-.07.34-.07.65-.02.9.06.26.17.47.34.64.17.17.4.28.69.34.32.06.62.04.87-.06.26-.1.47-.28.63-.52.17-.24.28-.54.35-.89v-.06c.13-.59.07-1.06-.15-1.42-.22-.36-.6-.59-1.12-.7-.22-.04-.44-.06-.66-.04-.22.02-.45.07-.68.16-.1.04-.19.05-.26.03-.07-.02-.13-.05-.16-.1-.04-.05-.06-.11-.06-.17,0-.06.02-.13.06-.19.04-.06.11-.11.2-.15.24-.11.51-.18.82-.21.3-.03.59-.01.87.04Z"/>
    <path class="cls-1" d="m34.24,86.34c.4.13.72.34.95.63.24.29.38.64.43,1.04.05.4,0,.84-.16,1.32-.16.48-.38.87-.66,1.16-.28.29-.6.49-.96.57-.36.09-.74.07-1.14-.07-.41-.13-.72-.35-.94-.65-.22-.3-.33-.64-.31-1.02l.1.03-.91,2.75c-.04.12-.1.21-.19.25-.09.04-.19.04-.31,0-.12-.04-.2-.1-.24-.19-.04-.09-.04-.19,0-.31l1.95-5.88c.04-.12.1-.21.19-.26.08-.05.19-.05.31,0,.12.04.2.1.24.19.04.09.04.2,0,.32l-.29.88-.06-.16c.21-.32.5-.53.87-.65s.75-.1,1.15.03Zm-.36.55c-.28-.09-.54-.1-.8-.04-.25.07-.48.21-.68.43s-.36.51-.48.88c-.19.56-.2,1.03-.05,1.41.15.38.44.64.87.78.28.09.55.11.8.04.25-.06.48-.21.67-.42.2-.22.36-.51.48-.89.18-.55.2-1.02.04-1.41-.15-.38-.44-.64-.86-.78Z"/>
    <path class="cls-1" d="m26.95,83.18c.39.23.7.48.91.77.22.29.33.59.35.9.02.31-.05.62-.23.91-.11.19-.24.35-.38.48-.14.13-.31.24-.49.32-.19.08-.4.15-.63.19-.23.05-.5.08-.79.1l-.37.02.18-.09c.1.45.15.81.13,1.09-.01.28-.09.53-.22.77-.15.26-.34.46-.57.59-.23.13-.49.19-.78.17-.29-.02-.57-.11-.87-.28-.39-.23-.65-.52-.78-.88-.12-.36-.08-.72.13-1.1.12-.2.26-.37.44-.5.18-.13.41-.23.7-.31.29-.07.65-.11,1.1-.12l-.12.17-.57-2.68.15.09c-.16.09-.31.21-.47.35-.16.14-.32.3-.48.48-.16.18-.31.38-.46.6-.07.09-.14.14-.22.17-.08.02-.17,0-.26-.05-.1-.05-.15-.12-.17-.21-.02-.09,0-.18.08-.28.18-.27.38-.51.58-.74s.41-.42.62-.58c.21-.17.43-.31.65-.42l-.11.21-.31-1.4c-.03-.12-.03-.21.02-.28.04-.07.1-.11.18-.12.08-.01.16,0,.25.06.08.05.13.1.17.16.03.06.07.14.1.24l.23,1.09-.18-.1c.4-.16.82-.22,1.25-.2.43.03.83.15,1.22.37Zm-3.44,5.43c.24.14.48.18.71.13.23-.05.41-.2.55-.43.07-.12.12-.25.14-.37.02-.13.02-.28,0-.46-.02-.18-.06-.42-.12-.71l.18.09c-.37.02-.67.05-.91.09-.23.04-.42.11-.56.19-.14.09-.25.2-.33.34-.13.22-.16.43-.09.64.06.2.2.37.42.49Zm3.08-4.89c-.32-.18-.65-.28-.97-.29-.33,0-.66.06-.99.22l.13-.21.67,2.99-.26-.18.36-.02c.33-.02.61-.06.83-.11.22-.06.41-.14.55-.25.15-.11.27-.26.37-.44.18-.31.21-.61.09-.91-.11-.3-.38-.56-.79-.8Z"/>
    <path class="cls-1" d="m22.16,77.94c.1.09.15.18.15.27,0,.09-.04.19-.12.29l-3.84,4.38c-.09.1-.18.15-.27.16-.09,0-.19-.03-.28-.11-.1-.09-.15-.18-.16-.27,0-.1.03-.19.12-.29l.61-.7v.17c-.33.21-.68.29-1.06.26-.37-.04-.72-.2-1.05-.48-.32-.28-.53-.6-.63-.95s-.1-.73,0-1.12.34-.77.67-1.15c.33-.38.68-.64,1.05-.81.37-.16.74-.22,1.11-.16.37.05.71.22,1.03.5.32.28.53.61.61.97s.05.72-.11,1.07l-.09-.08,1.67-1.9c.09-.1.18-.15.28-.15.1,0,.19.03.29.12Zm-2.94.57c-.22-.2-.47-.31-.72-.35-.26-.04-.52,0-.79.13-.27.13-.53.33-.78.62-.39.44-.59.87-.6,1.28,0,.41.16.76.49,1.05.22.19.46.31.72.35.26.04.52,0,.79-.12.27-.12.53-.33.79-.63.39-.44.58-.86.59-1.28,0-.41-.15-.76-.49-1.06Z"/>
    <path class="cls-1" d="m17.03,75.55c.09.1.13.19.12.29,0,.1-.06.19-.15.28l-2.99,2.75c-.1.09-.19.13-.28.13-.09,0-.18-.05-.27-.14-.08-.09-.12-.18-.12-.28,0-.1.05-.19.15-.28l.58-.53.07.07c-.35.18-.7.24-1.05.16-.35-.07-.68-.26-.98-.57-.07-.07-.11-.14-.11-.22,0-.08.03-.16.12-.24.08-.08.16-.12.25-.12.09,0,.18.04.27.12l.12.1c.33.3.66.45,1,.46.34,0,.66-.13.97-.42l1.73-1.6c.1-.09.19-.13.29-.13.1,0,.19.05.28.15Z"/>
    <path class="cls-1" d="m13.98,71.9c.28.37.44.75.48,1.14.04.39-.03.77-.21,1.14-.18.37-.47.7-.87,1-.3.23-.6.39-.91.49-.3.1-.6.13-.89.1-.29-.03-.57-.13-.82-.28-.26-.15-.49-.37-.69-.64-.28-.37-.44-.75-.48-1.14-.04-.39.03-.77.21-1.14.18-.37.47-.7.87-1,.3-.23.6-.39.9-.48.3-.1.6-.13.89-.1.29.03.57.12.83.27.26.15.49.37.69.64Zm-.51.38c-.18-.23-.39-.4-.63-.49-.25-.09-.52-.1-.81-.04-.29.07-.59.22-.9.45-.47.35-.75.73-.85,1.13-.09.4,0,.78.27,1.13.18.24.39.4.63.49s.51.1.79.04c.29-.07.59-.22.91-.45.47-.35.75-.73.84-1.13s0-.78-.26-1.13Z"/>
    <path class="cls-1" d="m10.96,67.24c.21.37.3.75.26,1.13s-.2.7-.47.97l-.15-.04.78-.44c.11-.06.22-.08.31-.06.1.02.17.09.23.2.06.11.08.22.05.31-.03.09-.1.17-.22.23l-5.39,3.05c-.11.06-.21.08-.31.06-.09-.02-.17-.09-.23-.2-.06-.11-.08-.21-.05-.3.02-.1.09-.18.21-.24l2.53-1.43.06.1c-.37.08-.72.04-1.06-.12-.34-.16-.61-.43-.82-.8-.21-.37-.31-.74-.29-1.11s.15-.72.38-1.05c.23-.33.57-.62,1.01-.87.44-.25.85-.38,1.26-.41.4-.03.77.04,1.1.22.33.18.6.45.81.81Zm-.47.46c-.15-.26-.34-.45-.57-.57s-.5-.16-.79-.13c-.3.03-.61.14-.94.33-.51.29-.84.63-.98,1.01-.14.38-.1.77.12,1.16.14.25.33.44.56.57.23.12.49.17.79.14.29-.03.61-.14.96-.33.51-.29.83-.62.98-1.01.14-.39.11-.77-.11-1.16Z"/>
    <path class="cls-1" d="m9,63.21c.19.43.2.81.04,1.15s-.49.62-.97.84l-4.54,2.01c-.12.05-.22.06-.31.03-.09-.03-.16-.11-.21-.23-.05-.11-.06-.22-.02-.31.03-.09.11-.17.23-.22l4.49-1.99c.32-.14.53-.31.63-.51.1-.2.1-.42-.01-.67-.02-.05-.05-.1-.07-.14-.02-.04-.05-.08-.06-.12-.03-.06-.04-.12-.02-.16.02-.04.09-.09.2-.13s.2-.06.27-.04c.07.02.14.09.21.18.03.04.06.09.08.14.03.05.05.1.08.15Z"/>
    <path class="cls-1" d="m7.84,60.11c.16.47.2.91.13,1.32-.07.4-.25.76-.53,1.06-.28.3-.66.54-1.14.7-.47.16-.91.2-1.32.14-.41-.07-.77-.23-1.07-.48-.31-.26-.53-.6-.68-1.02-.1-.3-.14-.59-.12-.86s.1-.53.23-.76c.13-.23.32-.44.56-.62.24-.18.53-.33.87-.44.1-.03.18-.03.25,0,.06.04.11.11.15.22l1.09,3.21-.49.17-1.03-3.03.17.11c-.33.11-.6.26-.79.43-.2.18-.33.38-.38.61s-.04.49.05.77c.11.31.27.56.49.72s.47.27.77.29c.29.02.61-.02.95-.14l.06-.02c.57-.19.95-.47,1.15-.85.2-.37.22-.81.05-1.32-.07-.21-.17-.41-.29-.59-.12-.19-.29-.36-.48-.51-.08-.07-.14-.14-.16-.21-.02-.07-.02-.14,0-.19.03-.06.06-.1.12-.14.05-.03.12-.05.2-.05s.15.04.23.1c.22.15.41.35.59.6.17.25.31.51.4.78Z"/>
    <path class="cls-1" d="m6.84,57.15c.02.13,0,.23-.06.31-.06.08-.15.13-.28.15l-4,.69c-.13.02-.23,0-.31-.05-.08-.05-.13-.14-.15-.26-.02-.12,0-.22.05-.3.06-.08.15-.13.27-.15l.84-.15-.12.13c-.38-.06-.69-.21-.93-.45-.24-.24-.4-.55-.46-.92-.07-.4-.03-.73.12-1.01.15-.28.41-.49.79-.65l.02.14c-.38-.05-.7-.21-.96-.47-.26-.26-.42-.59-.49-.99-.06-.35-.04-.65.05-.9.1-.25.27-.46.52-.62.25-.16.59-.28,1-.35l2.57-.44c.13-.02.23,0,.31.05.08.06.13.15.16.27.02.12,0,.22-.06.3s-.15.13-.28.15l-2.53.44c-.43.07-.73.2-.91.38-.18.18-.23.45-.17.8.07.38.25.66.55.84.3.18.68.22,1.14.15l2.3-.4c.13-.02.23,0,.31.05.08.06.13.15.16.27.02.12,0,.22-.06.3-.06.08-.15.13-.28.15l-2.53.44c-.43.07-.73.2-.91.39-.18.19-.23.45-.17.8.07.38.25.66.55.84.3.17.68.22,1.14.15l2.3-.4c.27-.05.43.06.47.32Z"/>
    <path class="cls-1" d="m5.79,45.67c-.01.29-.06.58-.14.88-.08.29-.22.56-.4.81-.05.06-.1.11-.17.13-.06.02-.12.03-.19.02-.06-.01-.11-.04-.16-.08-.04-.04-.07-.1-.08-.16,0-.06,0-.13.05-.21.17-.25.28-.49.35-.72.07-.23.11-.47.12-.7.01-.37-.04-.65-.17-.84-.13-.19-.31-.29-.54-.3-.18,0-.33.05-.44.17-.11.12-.2.31-.27.57l-.23.88c-.1.41-.26.7-.47.89-.22.19-.49.28-.82.27-.29-.01-.54-.1-.74-.26-.21-.16-.36-.38-.47-.67-.11-.28-.15-.61-.14-.98.01-.29.06-.55.14-.81.08-.25.21-.48.38-.68.05-.06.1-.1.17-.13.06-.02.12-.02.19,0,.06.02.11.05.15.1.04.05.06.1.07.17s-.02.13-.07.2c-.14.19-.24.38-.31.58-.07.2-.11.4-.12.59-.01.36.05.64.18.84.14.19.32.29.55.3.18,0,.33-.05.45-.16.12-.11.21-.29.27-.54l.22-.88c.11-.42.26-.73.47-.93.21-.2.48-.3.82-.28.43.02.76.2,1,.56.24.35.35.82.33,1.39Z"/>
    <path class="cls-1" d="m6.25,40.91c-.07.46-.23.83-.48,1.14-.25.3-.57.52-.96.64-.39.13-.83.15-1.33.07-.37-.06-.7-.16-.98-.31-.28-.15-.51-.34-.69-.57-.18-.23-.31-.49-.38-.78-.07-.29-.08-.6-.02-.94.07-.46.23-.83.48-1.14.25-.3.57-.52.96-.64.39-.13.83-.15,1.33-.07.37.06.7.16.98.31s.51.34.69.57c.18.23.31.49.38.78.07.29.08.61.02.95Zm-.63-.1c.05-.29.01-.55-.09-.79s-.29-.44-.54-.6c-.25-.16-.57-.27-.94-.33-.58-.09-1.05-.03-1.4.18-.35.21-.56.54-.63.98-.05.29-.02.56.09.8.1.24.28.43.53.6.25.16.57.27.96.33.58.09,1.04.03,1.39-.19.35-.21.56-.54.63-.98Z"/>
    <path class="cls-1" d="m7.23,36.36c-.12.45-.34.76-.68.93-.34.17-.76.19-1.28.05l-4.81-1.23c-.13-.03-.21-.09-.26-.17-.05-.08-.06-.18-.03-.31.03-.12.09-.21.17-.26.08-.05.19-.06.31-.03l4.75,1.22c.34.09.61.08.81,0,.2-.09.34-.27.4-.53.01-.06.02-.11.03-.15,0-.05.01-.09.02-.13.01-.07.04-.12.08-.13.05-.02.12-.01.24.02.11.03.19.08.24.14.04.06.06.16.05.27,0,.05-.01.11-.02.17,0,.06-.02.11-.03.16Z"/>
    <path class="cls-1" d="m8.07,33.61c-.04.1-.1.19-.18.24-.09.06-.2.09-.34.11l-4.27.28c-.11.01-.2,0-.27-.04-.08-.04-.13-.1-.15-.18s-.02-.17.02-.28c.03-.1.08-.17.15-.21.06-.04.16-.06.28-.07l4.21-.21-.09.25-3.14-2.83c-.1-.08-.15-.16-.18-.23-.02-.07-.02-.16.02-.26.03-.1.09-.16.15-.2.07-.03.14-.04.22-.03.08.02.16.06.24.13l3.15,2.92c.11.09.18.18.2.28.03.1.02.21-.01.32Z"/>
    <path class="cls-1" d="m10.06,28.96c-.22.45-.5.79-.83,1.03-.34.24-.71.37-1.12.38-.41.02-.85-.08-1.3-.3-.44-.22-.79-.49-1.03-.83-.24-.34-.39-.7-.42-1.1-.04-.4.04-.8.24-1.2.14-.29.31-.52.52-.7.21-.18.44-.31.7-.38.26-.07.54-.09.84-.05.3.04.61.14.93.3.09.05.15.11.17.18.02.07,0,.16-.05.26l-1.49,3.05-.46-.23,1.4-2.88.05.2c-.31-.15-.61-.24-.87-.25-.26-.01-.5.04-.7.16-.2.12-.37.32-.5.58-.15.3-.2.58-.16.86.04.27.15.52.34.75.19.22.45.41.77.57l.05.03c.54.26,1.01.33,1.41.21.41-.12.73-.42.96-.9.1-.2.17-.41.21-.63.04-.22.05-.45.02-.7-.01-.11,0-.19.03-.26.04-.07.08-.11.14-.13.06-.02.12-.03.18-.02.06.01.12.05.17.11.05.06.08.14.09.23.05.26.04.54,0,.84-.05.3-.14.58-.27.83Z"/>
    <path class="cls-1" d="m11.57,26.13c-.07.11-.15.18-.25.2-.1.02-.2,0-.31-.07l-3.46-2.13c-.11-.07-.18-.15-.2-.24-.02-.09,0-.19.06-.29.06-.1.14-.17.24-.19s.2,0,.31.07l.67.41-.05.08c-.27-.29-.42-.61-.44-.97-.02-.36.07-.72.29-1.09.05-.09.1-.14.18-.17s.16,0,.26.05c.1.05.16.12.18.2.02.08,0,.18-.04.29l-.07.14c-.2.4-.26.76-.17,1.09.08.33.3.61.66.83l2.01,1.24c.11.07.18.15.2.25.02.1,0,.2-.06.31Z"/>
  </g>
</svg>