<?xml version="1.0" encoding="UTF-8"?>
<svg id="Layer_1" data-name="Layer 1" xmlns="http://www.w3.org/2000/svg" viewBox="0 0 95 95">
  <defs>
    <style>
      .cls-1 {
        fill: #30b354;
      }
    </style>
  </defs>
  <path d="m42.11,46.66c0,1.04-.84,1.87-1.87,1.87s-1.87-.84-1.87-1.87.84-1.87,1.87-1.87,1.87.84,1.87,1.87Z"/>
  <path class="cls-1" d="m78.45,61.46l-25.77-42.78c-1.79-2.96-6.08-2.96-7.87,0l-25.77,42.78c-1.84,3.06.36,6.96,3.93,6.96h51.54c3.57,0,5.78-3.9,3.93-6.96Zm-38.15-7.02c-4.28,0-7.75-3.47-7.75-7.75s3.47-7.75,7.75-7.75,7.75,3.47,7.75,7.75-3.47,7.75-7.75,7.75Zm16.25,0c-4.28,0-7.75-3.47-7.75-7.75s3.47-7.75,7.75-7.75,7.75,3.47,7.75,7.75-3.47,7.75-7.75,7.75Z"/>
  <path d="m58.36,46.66c0,1.04-.84,1.87-1.87,1.87s-1.87-.84-1.87-1.87.84-1.87,1.87-1.87,1.87.84,1.87,1.87Z"/>
  <path d="m47.97,63.53c-6.15,0-12.1-2.28-16.74-6.41-.3-.27-.33-.73-.06-1.04.27-.3.73-.33,1.04-.06,4.37,3.9,9.97,6.04,15.76,6.04s11.69-2.26,16.11-6.36c.3-.28.76-.26,1.04.04.28.3.26.76-.04,1.04-4.69,4.36-10.77,6.76-17.11,6.76Z"/>
  <path d="m72.62,46.02h-7.63c-.48-4.24-4.08-7.54-8.44-7.54-3.82,0-7.06,2.54-8.13,6.02-1.06-3.48-4.3-6.02-8.13-6.02-4.36,0-7.96,3.31-8.44,7.54h-8.57c-.37,0-.67.3-.67.67s.3.67.67.67h8.54c.2,4.51,3.92,8.11,8.48,8.11,3.82,0,7.06-2.54,8.13-6.02,1.06,3.48,4.3,6.02,8.13,6.02,4.56,0,8.27-3.61,8.48-8.11h7.6c.37,0,.67-.3.67-.67s-.3-.67-.67-.67Zm-32.32,7.95c-3.86,0-7-3.14-7-7s3.14-7,7-7,7,3.14,7,7-3.14,7-7,7Zm16.25,0c-3.86,0-7-3.14-7-7s3.14-7,7-7,7,3.14,7,7-3.14,7-7,7Z"/>
  <g>
    <path d="m18.64,18.03c-.23.23-.5.38-.81.46-.3.08-.61.08-.91,0-.31-.08-.57-.23-.8-.47-.21-.22-.36-.48-.43-.78-.08-.3-.07-.61,0-.92.08-.31.24-.59.49-.83.23-.22.5-.37.8-.46.31-.08.61-.08.92,0,.31.08.58.24.81.48.23.23.37.5.44.81.07.3.06.61-.02.91-.08.3-.25.57-.49.8Z"/>
    <path class="cls-1" d="m25.9,13.55c-.61.4-1.22.62-1.82.66-.6.04-1.16-.09-1.69-.4-.53-.3-1-.76-1.4-1.38-.3-.46-.51-.92-.61-1.38-.11-.46-.12-.9-.04-1.33.08-.43.25-.83.52-1.21.27-.38.64-.72,1.09-1.02.31-.2.63-.36.98-.47.35-.11.68-.17,1-.17.16,0,.3.03.41.11s.18.17.22.28c.04.11.05.22.02.34-.03.11-.09.21-.19.28s-.23.11-.41.12c-.25,0-.48.04-.72.12-.23.08-.45.19-.66.32-.4.26-.68.56-.84.9s-.22.71-.16,1.1c.06.4.24.82.53,1.26.29.44.6.77.94.99.34.22.7.32,1.08.31s.77-.15,1.16-.41c.21-.14.4-.3.58-.49.17-.19.31-.4.42-.63.08-.15.16-.26.27-.31.1-.06.21-.07.31-.06.11.02.2.06.28.14.08.08.14.18.17.29.03.12.02.25-.03.39-.12.31-.3.6-.56.89-.25.29-.54.54-.85.74Z"/>
    <path class="cls-1" d="m30.08,11.25c-.46.22-.9.31-1.32.29-.42-.03-.81-.17-1.16-.42-.35-.26-.64-.62-.86-1.09-.17-.35-.27-.69-.3-1.02-.03-.33,0-.64.11-.94.1-.29.27-.56.49-.8.23-.24.51-.44.85-.6.46-.22.9-.31,1.32-.29.42.02.81.16,1.16.42s.64.61.86,1.08c.17.35.27.7.3,1.03.03.33,0,.65-.11.94-.1.3-.27.56-.49.8-.23.24-.51.44-.85.6Zm-.41-.85c.22-.11.39-.25.51-.44.12-.19.17-.41.16-.67,0-.26-.09-.54-.24-.86-.23-.48-.5-.79-.82-.93-.32-.14-.64-.13-.98.03-.22.11-.39.25-.51.44-.12.18-.17.41-.16.66,0,.26.09.55.24.86.23.47.5.78.82.93.32.15.65.14.98-.02Z"/>
    <path class="cls-1" d="m34.48,9.45c-.52.19-.96.18-1.33-.02-.37-.2-.66-.59-.87-1.17l-1.6-4.44c-.07-.19-.07-.36,0-.5.06-.14.19-.24.38-.31.19-.07.35-.07.49,0,.14.06.24.19.31.38l1.58,4.38c.1.29.24.48.41.57.17.09.37.1.6.02.05-.02.1-.04.14-.05.04-.02.08-.04.13-.06.08-.04.15-.04.2,0,.05.05.11.16.18.34.06.16.07.29.04.4-.03.11-.12.2-.25.27-.06.03-.12.06-.19.09-.07.03-.13.06-.2.08Z"/>
    <path class="cls-1" d="m37.16,8.64c-.53.15-.97.11-1.33-.12-.35-.23-.62-.64-.78-1.23l-1.29-4.54c-.06-.2-.05-.36.03-.5.07-.13.21-.22.4-.28.19-.05.35-.04.49.03.13.07.23.21.29.41l1.27,4.48c.08.29.21.5.37.6.17.1.36.12.59.06.05-.01.1-.03.14-.05.04-.02.09-.03.13-.05.09-.04.15-.03.2.02.05.05.1.17.15.36.05.16.05.29.01.4-.04.11-.13.19-.27.25-.06.02-.13.05-.2.08-.07.03-.14.05-.21.07Z"/>
    <path class="cls-1" d="m39.81,8.04c-.35.06-.67.05-.96-.03-.3-.08-.54-.23-.74-.43-.2-.2-.32-.45-.37-.73-.06-.35-.02-.65.12-.89.15-.24.42-.44.81-.61.4-.17.94-.31,1.63-.44l.49-.09.13.71-.48.09c-.41.07-.73.15-.96.23s-.39.18-.48.29c-.08.11-.11.25-.08.43.04.22.15.38.32.49.18.11.4.14.67.09.22-.04.4-.12.55-.26.15-.13.26-.29.32-.49s.08-.41.04-.64l-.2-1.13c-.06-.33-.17-.55-.34-.67-.17-.12-.43-.15-.76-.08-.19.03-.39.09-.6.18-.21.09-.43.21-.65.36-.11.08-.22.12-.32.11-.1,0-.18-.05-.25-.12-.07-.07-.11-.16-.13-.26s0-.2.03-.3c.04-.1.11-.19.23-.26.28-.18.55-.32.82-.42.27-.1.52-.17.75-.22.47-.08.87-.08,1.2,0,.33.09.6.26.8.53.2.26.35.63.43,1.08l.43,2.36c.04.2.02.37-.06.49-.08.13-.21.21-.39.24-.18.03-.34,0-.46-.08-.12-.09-.2-.24-.24-.44l-.09-.47h.08c0,.22-.06.44-.16.63-.1.19-.25.35-.44.48s-.41.22-.67.26Z"/>
    <path class="cls-1" d="m45.93,7.34c-.41.02-.78-.07-1.1-.26-.32-.19-.54-.46-.65-.8l.1-.25.04.73c.01.21-.04.37-.14.48-.1.12-.25.18-.44.19-.2.01-.35-.04-.47-.14-.11-.1-.17-.26-.18-.47l-.29-5.92c-.01-.21.04-.36.14-.48.1-.11.25-.17.45-.18.2,0,.36.04.47.14.12.1.18.25.19.46l.13,2.59h-.12c.09-.33.28-.6.58-.81.3-.21.65-.33,1.05-.35.43-.02.81.06,1.14.25s.59.47.79.84c.2.37.31.81.33,1.34.03.52-.04.97-.2,1.36-.16.39-.4.7-.71.92-.31.22-.68.34-1.1.36Zm-.4-.93c.25-.01.46-.08.64-.21.18-.13.32-.31.41-.55.09-.24.13-.54.11-.89-.03-.53-.16-.92-.4-1.17-.24-.25-.54-.37-.92-.35-.25.01-.46.08-.64.2-.18.13-.32.31-.41.55-.09.24-.13.54-.11.89.03.52.16.92.4,1.17.24.26.54.38.92.36Z"/>
    <path class="cls-1" d="m50.81,7.46c-.5-.04-.93-.18-1.29-.42-.35-.24-.62-.55-.79-.95s-.24-.86-.19-1.37c.03-.39.12-.74.26-1.03.14-.3.33-.55.57-.75.24-.2.51-.35.83-.44.31-.09.66-.12,1.04-.09.5.04.93.18,1.29.42.35.24.62.55.79.95.17.39.24.85.2,1.37-.03.39-.12.74-.26,1.04-.14.3-.33.56-.57.76-.24.2-.51.35-.83.44-.31.09-.66.12-1.04.09Zm.08-.94c.25.02.47-.02.66-.12.2-.1.35-.27.48-.5.12-.23.2-.52.23-.87.04-.53-.04-.94-.24-1.22-.2-.28-.49-.44-.86-.47-.24-.02-.47.02-.66.12-.2.1-.35.26-.48.49-.12.23-.2.52-.23.87-.04.52.04.93.24,1.22.2.29.49.45.86.48Z"/>
    <path class="cls-1" d="m54.51,7.91c-.2-.04-.35-.12-.43-.25-.09-.13-.11-.29-.07-.5l.72-3.7c.04-.2.12-.34.25-.43.12-.08.28-.11.47-.07.19.04.33.12.41.24.08.13.11.29.07.49l-.12.62-.1-.02c.17-.37.4-.64.71-.79.31-.15.69-.2,1.14-.15.14.01.24.07.31.17.07.1.09.23.07.4-.02.17-.08.29-.19.38-.11.08-.25.12-.43.1l-.22-.02c-.41-.04-.73.03-.97.19-.24.17-.4.44-.47.81l-.4,2.03c-.04.2-.12.35-.25.44-.13.09-.29.11-.49.07Z"/>
    <path class="cls-1" d="m58.77,8.93c-.34-.1-.62-.26-.84-.47-.22-.21-.38-.45-.46-.72-.08-.27-.08-.54,0-.82.1-.34.28-.59.52-.73.24-.15.57-.2,1-.17.43.03.98.15,1.65.36l.48.15-.21.69-.47-.14c-.39-.12-.72-.2-.96-.23-.25-.03-.43-.02-.56.04-.13.06-.22.18-.27.34-.06.21-.04.4.06.58s.29.31.55.39c.21.06.41.07.6.02.19-.05.36-.15.51-.29.15-.14.26-.33.32-.55l.33-1.1c.1-.32.1-.57,0-.75-.1-.18-.31-.32-.64-.42-.19-.06-.39-.09-.62-.11-.23-.02-.47-.01-.74.02-.14.02-.25,0-.33-.05-.08-.05-.14-.13-.17-.22-.03-.09-.03-.19,0-.29.03-.09.08-.18.16-.26.08-.08.19-.12.32-.13.33-.03.64-.03.92,0,.29.03.54.08.76.15.46.14.81.32,1.07.55.25.23.41.51.47.84.06.33.02.71-.11,1.16l-.7,2.29c-.06.2-.15.33-.28.41-.13.08-.28.09-.46.03-.18-.05-.3-.15-.37-.28-.07-.13-.07-.3,0-.5l.14-.46.08.02c-.11.21-.26.37-.44.5-.18.12-.38.2-.61.23-.22.03-.46,0-.72-.07Z"/>
    <path class="cls-1" d="m64.07,10.88c-.4-.17-.7-.38-.91-.62-.21-.25-.32-.53-.34-.84s.05-.67.22-1.05l.82-1.96-.48-.2c-.15-.06-.24-.15-.29-.26-.05-.11-.04-.23.01-.37.06-.14.14-.23.26-.27.11-.04.24-.03.39.03l.48.2.35-.84c.08-.19.19-.31.33-.37.14-.05.31-.04.49.03.18.08.3.19.36.33.06.14.04.3-.04.49l-.35.84.97.41c.15.06.25.15.29.25.05.11.04.23-.02.37-.06.14-.14.22-.25.27-.11.04-.24.03-.39-.03l-.97-.41-.8,1.89c-.12.29-.15.54-.09.74.07.2.24.36.53.48.1.04.2.07.29.09.09.01.16.03.23.05.08.02.13.07.15.15.03.07,0,.19-.06.35-.05.12-.12.22-.2.3-.08.08-.18.11-.3.11-.09,0-.2-.03-.34-.06-.14-.03-.26-.07-.35-.11Z"/>
    <path class="cls-1" d="m67.06,12.39c-.44-.25-.78-.55-1-.91-.23-.36-.34-.76-.33-1.19,0-.43.13-.88.38-1.33.19-.34.41-.62.66-.84s.53-.37.83-.45c.3-.09.61-.11.94-.06.32.05.65.16.98.35.44.24.78.55,1,.91.23.36.34.76.33,1.19,0,.43-.13.87-.38,1.33-.19.34-.41.62-.66.84-.25.22-.53.37-.83.46-.3.09-.61.11-.94.06s-.65-.16-.98-.34Zm.46-.83c.21.12.43.17.65.16.22-.02.43-.1.64-.26.2-.16.39-.39.56-.7.26-.46.35-.87.28-1.21-.07-.34-.27-.6-.59-.78-.22-.12-.43-.17-.65-.16-.22.01-.43.1-.64.25-.2.16-.39.39-.56.7-.25.46-.35.86-.28,1.21.07.35.26.61.59.79Z"/>
    <path class="cls-1" d="m70.23,14.31c-.17-.12-.27-.26-.29-.41-.03-.15.02-.31.14-.48l2.17-3.08c.12-.17.25-.27.4-.29.15-.03.3.02.46.13.16.11.25.24.28.39.03.15-.02.31-.14.47l-.36.51-.08-.06c.31-.27.63-.41.97-.43.34-.01.71.1,1.1.32.12.07.19.16.21.28.02.12-.01.25-.1.4-.08.14-.19.23-.33.26-.13.03-.28,0-.44-.08l-.19-.11c-.35-.2-.68-.28-.96-.22-.29.05-.54.23-.76.54l-1.19,1.69c-.12.17-.25.27-.4.29-.15.03-.31-.02-.48-.13Z"/>
    <path d="m76.42,18.16c-.23-.23-.39-.49-.48-.8-.09-.3-.09-.61-.03-.91.07-.31.22-.58.45-.82.21-.22.47-.37.77-.45.3-.08.61-.09.92-.02.31.07.59.23.84.47.23.22.39.49.48.79.09.3.1.61.03.92-.07.31-.22.58-.46.83-.23.23-.49.39-.8.46-.3.08-.61.07-.91,0-.31-.08-.58-.23-.82-.47Z"/>
    <path d="m80.2,24.04c-.23-.32-.36-.63-.39-.92-.03-.29.03-.57.19-.84.16-.27.41-.53.76-.78l2.18-1.55c.11-.08.22-.11.31-.09s.18.08.25.18c.08.11.11.21.09.31-.01.1-.08.18-.19.27l-2.17,1.54c-.35.25-.56.5-.62.77-.07.26,0,.55.23.86.24.34.55.53.92.58.38.05.75-.06,1.12-.32l1.97-1.4c.11-.08.22-.11.31-.09.1.02.18.08.26.19.07.1.1.2.09.3-.01.1-.08.18-.19.26l-3.39,2.41c-.23.16-.42.14-.57-.07-.07-.1-.1-.2-.08-.3.02-.1.08-.19.19-.26l.74-.52-.04.19c-.4.12-.77.11-1.11-.01-.34-.13-.63-.35-.86-.68Z"/>
    <path d="m82.33,27.19c-.06-.12-.08-.22-.04-.32.03-.09.11-.17.23-.23l3.67-1.96c.12-.06.22-.08.32-.06.09.03.17.1.23.21.06.11.08.21.05.31-.03.09-.1.17-.22.24l-.76.4.05-.15c.41-.06.77,0,1.09.19.32.19.58.46.77.82.18.34.27.66.27.95,0,.29-.1.56-.29.8-.19.25-.48.47-.86.67l-2.36,1.26c-.12.06-.22.08-.32.05-.1-.03-.18-.1-.23-.21-.06-.12-.08-.23-.05-.32.03-.1.11-.17.22-.24l2.31-1.24c.4-.21.65-.45.75-.7.1-.25.06-.55-.12-.89-.21-.39-.5-.64-.87-.74-.37-.1-.75-.04-1.16.17l-2.13,1.14c-.25.13-.43.08-.56-.16Z"/>
    <path d="m85.16,33.17c-.15-.4-.19-.79-.11-1.17.08-.37.26-.71.55-1.01.29-.3.67-.54,1.15-.72.48-.18.93-.26,1.35-.23.41.03.77.16,1.08.39.3.23.53.55.69.95.15.41.19.8.09,1.17s-.3.67-.61.9l-.04-.1,2.78-1.05c.12-.05.23-.05.32-.01.09.04.16.12.21.25.04.12.05.22,0,.31-.04.09-.12.16-.25.21l-5.93,2.24c-.12.05-.23.05-.32.02-.09-.04-.16-.12-.21-.24-.04-.12-.04-.22,0-.31.04-.09.13-.16.25-.21l.89-.34-.09.15c-.39.03-.75-.06-1.07-.27-.32-.22-.56-.53-.72-.94Zm.67-.07c.11.28.27.5.48.66.22.16.48.25.78.26.3.02.64-.04,1.01-.18.56-.21.95-.5,1.15-.87.2-.37.22-.76.06-1.19-.11-.29-.27-.51-.48-.67-.21-.16-.47-.25-.77-.26-.3-.02-.64.04-1.02.19-.56.21-.94.5-1.15.87-.21.37-.23.77-.07,1.19Z"/>
    <path d="m86.83,38.59c-.12-.5-.12-.95-.01-1.35.11-.41.32-.75.64-1.04.32-.28.73-.49,1.23-.61.49-.12.94-.12,1.35-.02.41.11.76.3,1.05.59.29.29.49.66.59,1.11.08.32.09.61.04.89-.05.28-.15.53-.31.76-.16.23-.37.42-.63.58-.26.16-.57.29-.93.37-.1.02-.19.01-.25-.03-.06-.05-.11-.12-.13-.23l-.81-3.37.51-.12.76,3.19-.16-.12c.35-.08.63-.21.85-.37.22-.16.37-.36.45-.59.08-.23.09-.49.02-.79-.08-.33-.22-.59-.43-.78-.21-.19-.46-.31-.75-.37-.3-.05-.62-.04-.98.05h-.06c-.6.16-1.01.41-1.25.77-.24.36-.3.81-.17,1.34.05.22.13.43.25.63.11.2.26.39.44.57.08.08.13.15.14.23.02.07,0,.14-.02.2-.03.05-.08.1-.13.13-.06.03-.13.04-.2.03-.08-.01-.15-.05-.22-.13-.21-.18-.39-.4-.54-.67s-.26-.55-.33-.83Z"/>
    <path d="m87.44,41.64c-.02-.13,0-.24.07-.32.06-.08.16-.13.29-.15l4.12-.56c.13-.02.24,0,.31.06.08.06.13.15.14.27.02.12,0,.23-.06.31-.06.08-.16.13-.29.15l-.8.11v-.1c.39.05.72.21.97.48.25.27.41.62.49,1.05.02.1,0,.18-.03.25-.04.07-.12.11-.24.13-.11.02-.2,0-.28-.04-.07-.05-.13-.14-.16-.26l-.04-.16c-.1-.44-.29-.77-.57-.97-.28-.21-.63-.28-1.06-.22l-2.39.32c-.13.02-.24,0-.32-.06s-.13-.16-.15-.29Z"/>
    <path d="m87.83,45.94c-.01-.3.01-.6.07-.91.06-.31.17-.59.34-.86.04-.07.1-.12.16-.15.06-.03.12-.04.19-.03.06,0,.12.03.17.07.05.04.08.09.09.16.01.06,0,.14-.04.22-.15.27-.25.52-.3.77-.05.25-.07.49-.06.73.02.38.1.66.25.85.15.19.34.28.58.27.19,0,.33-.08.44-.21.1-.13.18-.33.23-.61l.16-.91c.07-.42.2-.74.41-.95.2-.21.48-.32.81-.34.3-.01.56.05.78.2.22.15.4.36.53.64s.21.61.22.99c.01.29-.01.57-.08.84-.06.27-.18.51-.33.73-.04.07-.1.12-.16.14-.06.03-.12.03-.19.02-.06-.01-.12-.04-.16-.09-.05-.04-.07-.1-.08-.17,0-.07,0-.14.05-.21.12-.21.21-.41.27-.62.05-.21.08-.41.07-.61-.02-.37-.1-.65-.26-.84-.15-.19-.35-.27-.59-.26-.19,0-.34.08-.45.2-.11.13-.19.31-.24.57l-.15.92c-.07.44-.21.77-.4.99-.19.23-.46.34-.81.36-.44.02-.79-.14-1.07-.48-.27-.34-.42-.8-.45-1.39Z"/>
    <path d="m87.77,50.59c.02-.38.1-.69.25-.94.15-.25.36-.43.63-.54.27-.11.59-.16.97-.14l2.54.12.03-.67c0-.11.04-.2.1-.25.06-.06.14-.08.24-.08.1,0,.17.04.23.1.05.06.07.15.07.26l-.03.67,1.15.06c.13,0,.23.05.3.12.07.08.1.18.09.31,0,.12-.05.22-.12.29s-.18.1-.31.09l-1.15-.06-.06,1.25c0,.11-.04.2-.09.26-.06.06-.13.08-.23.08s-.18-.04-.23-.1c-.05-.06-.08-.15-.07-.26l.06-1.26-2.46-.12c-.38-.02-.67.05-.87.2-.2.15-.31.4-.33.76,0,.13,0,.24.02.33.02.09.03.17.03.23,0,.06-.02.11-.07.15-.05.04-.13.05-.24.05-.08,0-.15-.02-.22-.06-.07-.03-.11-.09-.13-.16-.02-.08-.04-.19-.06-.32-.02-.13-.02-.25-.02-.36Z"/>
    <path d="m87.48,53.24c.05-.33.16-.61.32-.85.17-.24.37-.42.62-.54.25-.12.51-.16.78-.12.35.05.62.18.8.4.18.21.28.53.3.96.02.43-.02,1.01-.12,1.73l-.07.44-.52-.08.06-.43c.08-.53.12-.96.11-1.27,0-.31-.06-.54-.16-.68-.1-.14-.26-.22-.48-.26-.27-.04-.5.02-.7.18-.2.16-.32.4-.37.73-.04.26-.01.5.08.72.1.22.24.4.44.55.2.15.44.24.72.28l1.12.17c.41.06.71.02.92-.12.21-.14.34-.39.39-.77.03-.23.04-.46.01-.7-.03-.24-.08-.5-.18-.77-.03-.1-.04-.18,0-.24.03-.06.07-.11.13-.14.06-.03.12-.04.19-.04.07,0,.14.03.2.08.06.04.1.11.13.19.1.31.17.61.19.91.02.29.02.57-.02.82-.06.41-.18.75-.35,1-.17.25-.41.42-.7.51-.29.09-.65.1-1.08.04l-2.67-.4c-.13-.02-.23-.07-.29-.14-.06-.07-.09-.17-.07-.29.02-.12.07-.22.15-.27.08-.06.19-.07.32-.05l.77.11v.09c-.26-.09-.45-.22-.61-.4-.16-.17-.27-.38-.33-.61-.07-.23-.08-.48-.04-.75Z"/>
    <path d="m86.86,56.87c.04-.13.1-.21.19-.26.09-.04.2-.05.32-.01l4.01,1.11c.13.04.22.1.27.18.05.08.06.19.02.31-.03.12-.09.21-.18.26-.09.05-.19.06-.32.02l-.83-.23.15-.07c.33.24.55.53.66.89.1.36.1.73,0,1.13-.1.37-.26.66-.46.87-.2.21-.46.34-.76.38-.31.05-.67.01-1.08-.1l-2.58-.71c-.13-.03-.22-.1-.27-.18-.05-.09-.06-.19-.03-.31.04-.13.1-.22.19-.27.09-.05.2-.05.33-.02l2.53.7c.44.12.78.12,1.03,0,.25-.11.42-.36.53-.73.12-.43.08-.81-.12-1.13-.2-.33-.51-.55-.96-.67l-2.33-.64c-.27-.08-.37-.24-.29-.51Z"/>
    <path d="m84.8,63.15c.17-.4.41-.71.72-.92.31-.22.68-.33,1.09-.35.42-.02.86.08,1.33.27.48.2.86.46,1.13.76s.45.65.51,1.03c.06.38,0,.76-.16,1.16-.17.41-.42.71-.74.91-.32.2-.68.28-1.06.23l.04-.1,2.74,1.15c.12.05.2.12.24.21.04.09.03.2-.02.32-.05.12-.12.19-.21.23-.09.04-.2.03-.32-.02l-5.85-2.46c-.12-.05-.2-.12-.25-.21-.04-.09-.04-.2.02-.32.05-.12.12-.19.21-.23.09-.04.2-.03.33.02l.87.37-.17.05c-.31-.25-.5-.56-.59-.94-.09-.38-.04-.77.13-1.18Zm.53.41c-.12.28-.15.55-.1.81.05.26.17.51.38.73.21.22.5.41.86.56.56.24,1.04.29,1.43.17s.69-.4.87-.82c.12-.28.16-.55.11-.81-.05-.26-.17-.5-.38-.72-.21-.22-.5-.41-.87-.57-.55-.23-1.03-.29-1.43-.16-.4.13-.69.4-.87.81Z"/>
    <path d="m83.15,66.74c.06-.12.14-.19.24-.21.1-.02.21,0,.33.06l3.6,1.92c.12.07.2.15.23.24.03.09.02.2-.04.32-.06.11-.14.18-.24.21-.1.03-.21.01-.33-.05l-3.6-1.92c-.12-.06-.2-.15-.24-.24-.03-.1-.02-.2.04-.32Zm5.35,2.85c.08-.15.18-.24.3-.28s.25-.02.39.05c.14.08.23.17.26.29.03.12,0,.26-.07.4-.08.15-.18.25-.3.29-.12.04-.24.02-.38-.05-.14-.07-.22-.17-.26-.29-.04-.12-.01-.26.07-.41Z"/>
    <path d="m82.21,68.43c.07-.11.16-.17.26-.19.1-.02.2.01.31.09l3.48,2.27c.11.07.18.16.2.25.02.09,0,.19-.07.3s-.15.17-.25.19c-.1.02-.2,0-.31-.08l-.72-.47.16-.03c.25.33.37.68.36,1.05,0,.37-.13.73-.35,1.07-.21.32-.44.55-.7.69-.26.14-.54.18-.84.13-.31-.05-.64-.19-1-.43l-2.24-1.46c-.11-.07-.18-.16-.2-.26-.02-.1,0-.2.07-.31.07-.11.16-.18.26-.19.1-.02.21,0,.32.08l2.2,1.43c.38.25.7.35.98.32.27-.03.51-.21.72-.53.24-.37.32-.74.23-1.12-.09-.37-.32-.68-.71-.93l-2.02-1.32c-.23-.15-.28-.34-.13-.57Z"/>
    <path d="m76.78,72.84c.23-.27.49-.5.77-.7.28-.2.58-.35.89-.44.09-.03.16-.03.23,0,.07.02.12.06.16.11.04.05.06.11.07.18,0,.07,0,.13-.04.19-.03.06-.08.1-.15.13-.33.1-.6.24-.83.4-.22.16-.42.34-.59.53-.31.36-.44.71-.41,1.06.03.35.23.68.6.99l.85.73-.06.07c-.23-.33-.32-.69-.28-1.08.04-.39.2-.75.48-1.08.29-.34.62-.56.99-.68.37-.11.75-.12,1.14-.02.39.1.77.31,1.13.62.27.23.49.48.65.75.16.27.26.54.29.82s0,.56-.08.84c-.09.28-.24.55-.46.8-.29.33-.62.55-.99.64-.38.1-.74.06-1.09-.12l-.03-.15.7.6c.1.09.16.18.16.28,0,.1-.03.19-.11.29-.09.1-.18.15-.27.16-.1,0-.2-.04-.3-.12l-3.16-2.71c-.56-.48-.86-.98-.91-1.51-.04-.52.17-1.06.63-1.6Zm2.09,1.64c-.2.24-.32.49-.36.75-.04.27,0,.53.12.8.12.27.32.52.59.75.41.35.82.52,1.24.52.42,0,.78-.18,1.08-.53.2-.23.32-.48.36-.75.04-.26,0-.53-.12-.79-.12-.27-.32-.51-.59-.75-.41-.35-.82-.53-1.24-.53-.42,0-.78.17-1.08.52Z"/>
    <path d="m74.97,76.13c-.01-.11,0-.19.05-.25.04-.06.1-.1.16-.1.07,0,.12.01.18.06.05.05.09.13.1.24.02.17.07.33.14.46.07.13.15.24.23.32l-.17-.12c.12-.12.26-.18.4-.18.15,0,.27.06.39.18.11.11.17.24.17.38,0,.14-.05.27-.17.38-.12.12-.26.17-.42.16-.15-.01-.31-.1-.46-.26-.1-.1-.19-.21-.27-.34-.09-.13-.16-.27-.22-.42-.06-.16-.1-.32-.11-.5Z"/>
    <path d="m71.51,77.99c.11-.08.21-.11.3-.09.09.02.18.08.26.19l3.49,4.84c.08.11.11.21.1.3-.01.1-.07.18-.17.25-.11.08-.21.11-.31.09-.1-.02-.19-.08-.26-.19l-.55-.77.17.05c.14.37.14.74.01,1.1-.12.37-.37.68-.72.93-.35.25-.72.39-1.1.42-.38.02-.75-.06-1.11-.27s-.7-.51-1-.93c-.3-.42-.49-.83-.56-1.23-.08-.41-.05-.79.09-1.14s.39-.66.74-.92c.36-.26.73-.39,1.11-.39.38,0,.73.11,1.04.35l-.1.07-1.52-2.1c-.08-.11-.11-.21-.09-.31.02-.1.08-.19.18-.26Zm-.11,3.07c-.25.18-.42.39-.52.64-.09.25-.11.52-.05.82.06.3.21.61.44.92.35.49.73.79,1.14.89.41.1.79.02,1.17-.25.24-.17.41-.39.51-.64.1-.25.12-.52.06-.82-.06-.29-.21-.61-.45-.94-.35-.48-.73-.78-1.14-.88-.41-.1-.8-.02-1.16.24Z"/>
    <path d="m66.58,83.3c.45-.24.88-.37,1.31-.37.42,0,.81.12,1.17.35.36.23.66.57.91,1.03.24.44.37.88.37,1.3,0,.42-.09.82-.3,1.17s-.51.64-.91.86c-.29.16-.57.25-.85.28-.28.03-.55,0-.81-.1-.26-.09-.5-.24-.73-.45-.23-.21-.43-.48-.6-.8-.05-.09-.06-.18-.03-.25.03-.07.09-.14.19-.19l3.04-1.67.25.46-2.88,1.57.08-.19c.17.32.36.56.58.72s.44.26.68.28c.24.02.5-.04.76-.19.3-.16.51-.37.64-.62.13-.25.18-.53.16-.82s-.13-.61-.31-.93l-.03-.05c-.29-.54-.65-.87-1.06-1.01-.41-.14-.86-.08-1.34.19-.2.11-.38.24-.55.4-.17.16-.31.35-.43.58-.05.1-.11.16-.18.2-.07.03-.13.04-.2.03-.06-.02-.11-.05-.16-.09-.04-.05-.07-.11-.08-.19,0-.08.01-.16.06-.25.12-.24.28-.48.5-.7.22-.22.46-.4.72-.54Z"/>
    <path d="m62.36,85.26c.44-.18.86-.23,1.25-.17.4.06.75.24,1.07.51.31.28.57.66.76,1.13.14.36.22.7.24,1.03.02.33-.03.63-.14.91s-.28.53-.5.74c-.22.21-.49.38-.82.52-.44.17-.86.23-1.25.17-.4-.06-.75-.23-1.07-.51-.31-.28-.57-.66-.76-1.13-.14-.36-.22-.7-.24-1.02-.01-.32.03-.63.14-.91.11-.28.27-.53.49-.74.22-.21.49-.38.82-.52Zm.24.6c-.28.11-.5.27-.65.5-.16.22-.24.48-.25.79-.01.3.06.64.2,1,.22.56.52.94.89,1.14.37.2.77.21,1.19.04.28-.11.5-.28.66-.49.15-.21.24-.47.25-.77.01-.3-.06-.64-.21-1.02-.22-.56-.52-.93-.89-1.13-.37-.2-.77-.21-1.19-.05Z"/>
    <path d="m58.67,84.72c.13-.03.23-.02.32.03.08.05.14.14.17.27l1.47,5.78c.03.13.03.24-.02.32-.05.08-.13.14-.25.17-.13.03-.24.02-.32-.03-.08-.05-.14-.14-.18-.27l-.23-.92.14.11c0,.39-.14.74-.39,1.03-.25.29-.59.49-1.02.6-.42.11-.81.1-1.17-.02-.36-.12-.68-.33-.94-.66-.26-.32-.46-.73-.59-1.24-.13-.5-.15-.95-.07-1.35.08-.41.25-.75.5-1.03.26-.28.6-.47,1.03-.58.42-.11.82-.09,1.17.05.36.14.64.38.84.71l-.12.03-.64-2.51c-.03-.13-.02-.24.03-.32.05-.08.14-.15.26-.17Zm-1.23,2.81c-.3.07-.54.21-.71.41-.18.2-.29.45-.34.75-.05.3-.03.64.07,1.02.15.59.39,1,.73,1.24.34.24.73.31,1.18.19.29-.07.53-.21.71-.4.18-.19.3-.44.35-.74.05-.3.03-.64-.07-1.04-.15-.58-.39-.99-.74-1.24-.34-.25-.74-.31-1.17-.2Z"/>
    <path d="m52.81,87.77c.47-.07.86.02,1.15.27.29.25.48.65.56,1.19l.77,5.03c.02.13,0,.24-.05.32-.06.08-.15.13-.28.15-.12.02-.23,0-.31-.06-.08-.06-.13-.15-.15-.28l-.76-4.97c-.05-.35-.16-.61-.33-.76-.17-.15-.39-.21-.67-.17-.06,0-.11.02-.16.03-.04.01-.09.02-.14.03-.07.02-.12,0-.16-.03-.04-.03-.06-.11-.08-.23-.02-.12,0-.21.04-.28.04-.07.12-.12.24-.16.05-.01.11-.03.17-.04.06-.02.11-.03.17-.04Z"/>
    <path d="m49.61,88.06c.51-.03.96.04,1.34.23.38.18.68.45.91.81.22.36.35.8.38,1.32.03.5-.04.95-.22,1.34-.18.39-.43.7-.77.93-.34.23-.73.36-1.19.39-.32.02-.62-.02-.89-.11-.27-.09-.5-.24-.69-.43-.2-.19-.35-.44-.46-.72-.11-.29-.18-.61-.2-.98,0-.11.02-.19.08-.24.06-.05.14-.08.25-.09l3.46-.21.03.53-3.28.2.15-.14c.02.36.09.66.21.9s.29.42.5.54c.21.12.47.17.77.15.34-.02.62-.12.85-.29.23-.17.39-.4.49-.68.1-.28.14-.61.12-.97v-.06c-.04-.61-.21-1.07-.53-1.37-.31-.3-.74-.44-1.29-.4-.23.01-.45.06-.67.13-.22.07-.43.19-.63.34-.09.06-.17.1-.25.1-.08,0-.14-.02-.19-.06-.05-.04-.08-.09-.1-.15-.02-.06-.02-.13,0-.21.03-.07.08-.14.16-.2.21-.17.46-.31.75-.41s.59-.16.88-.18Z"/>
    <path d="m46.47,90.53c.1,0,.18.04.24.11.06.07.09.15.09.24,0,.1-.04.18-.11.24-.07.06-.15.09-.25.08l-2.24-.11c-.09,0-.17-.04-.23-.11-.06-.07-.09-.15-.09-.25,0-.09.04-.17.11-.23.07-.06.15-.09.24-.08l2.24.11Z"/>
    <path d="m40.92,87.58c.47.08.85.25,1.16.5.31.26.52.59.65.99.13.4.15.85.06,1.36-.06.38-.17.71-.33,1-.15.29-.35.52-.59.71-.24.18-.51.31-.81.38-.3.07-.62.07-.97.02-.47-.08-.85-.25-1.16-.5-.31-.26-.52-.59-.65-.99-.13-.4-.15-.85-.06-1.36.06-.38.17-.71.33-1,.15-.29.35-.52.59-.71.24-.19.51-.31.81-.38.3-.07.62-.07.97-.02Zm-.11.64c-.3-.05-.57-.02-.81.09-.25.11-.45.29-.62.54-.17.26-.28.58-.35.97-.1.6-.04,1.07.17,1.43.21.36.55.57,1,.65.3.05.57.02.82-.08.24-.1.45-.28.61-.54.17-.25.28-.58.35-.98.1-.59.04-1.07-.18-1.43-.22-.36-.55-.58-.99-.65Z"/>
    <path d="m37.49,86.88c.13.04.22.1.26.19.05.09.05.2.02.33l-1.09,4.01c-.04.13-.09.22-.18.27-.08.05-.18.06-.31.03-.12-.03-.21-.09-.26-.18-.05-.09-.06-.19-.02-.32l.21-.78.1.03c-.21.35-.48.59-.82.72-.34.13-.73.14-1.16.04-.1-.02-.17-.06-.21-.13-.04-.06-.05-.15-.03-.27.02-.11.07-.19.15-.24s.18-.06.3-.04l.16.02c.45.08.82.03,1.12-.15.3-.18.51-.47.62-.89l.63-2.33c.04-.13.1-.22.18-.27s.19-.06.32-.03Z"/>
    <path d="m32.43,91.72c.16.05.27.14.32.25.06.11.06.24.01.39-.05.15-.13.25-.25.3-.11.05-.25.05-.41,0-.16-.06-.27-.14-.33-.24-.06-.11-.06-.24-.01-.39.05-.15.13-.24.24-.3.11-.06.25-.06.42,0Zm1.96-5.74c.13.04.21.11.25.2.04.09.04.21-.01.34l-1.32,3.86c-.04.13-.11.22-.2.27-.09.05-.19.05-.32,0-.12-.04-.2-.11-.25-.2-.05-.09-.05-.21,0-.34l1.32-3.86c.04-.13.11-.22.2-.27.09-.05.2-.05.32-.01Z"/>
    <path d="m30.97,84.59c.47.2.83.48,1.09.81.26.33.4.71.44,1.13.04.42-.05.87-.26,1.35-.2.46-.47.83-.8,1.09-.33.26-.7.43-1.11.48-.41.06-.82,0-1.24-.19-.3-.13-.54-.3-.74-.5-.19-.2-.33-.44-.42-.7-.08-.26-.11-.55-.08-.85.03-.31.12-.63.26-.96.04-.1.1-.16.18-.18.08-.02.16,0,.27.04l3.18,1.39-.21.48-3.01-1.31.2-.06c-.14.33-.22.63-.22.9,0,.27.06.51.2.71.13.2.34.36.62.49.31.14.61.18.88.13.28-.05.53-.18.75-.38.22-.21.4-.47.55-.81l.02-.06c.25-.56.3-1.05.15-1.46-.14-.41-.46-.73-.96-.94-.21-.09-.42-.15-.65-.19-.23-.03-.47-.03-.72.01-.11.02-.2,0-.27-.02-.07-.03-.12-.08-.14-.14-.02-.06-.03-.12-.02-.18.01-.06.04-.12.1-.18.06-.05.14-.09.24-.1.27-.06.55-.07.86-.03.31.04.6.12.87.24Z"/>
    <path d="m28.2,83.29c.11.07.18.15.2.25.02.1,0,.2-.07.32l-2.13,3.58c-.07.11-.15.18-.24.21-.09.03-.19,0-.3-.06-.11-.06-.17-.14-.2-.24-.02-.1,0-.2.06-.31l.44-.74.03.16c-.32.26-.66.39-1.03.4-.37,0-.73-.1-1.09-.31-.33-.2-.57-.42-.72-.67-.15-.25-.21-.53-.17-.84.04-.31.16-.65.38-1.02l1.37-2.3c.07-.11.15-.18.25-.21.1-.03.2,0,.31.06.11.07.18.15.21.25.02.1,0,.2-.07.32l-1.34,2.25c-.23.39-.33.72-.28.99.04.27.23.5.56.7.38.23.76.29,1.12.19.37-.1.67-.35.9-.75l1.23-2.07c.14-.24.33-.29.57-.15Z"/>
    <path d="m22.57,79.56c.3.22.52.47.64.73.12.26.16.54.1.82-.05.29-.2.58-.42.88l-1.52,2.04.54.4c.09.07.14.14.16.22.01.08,0,.16-.07.24s-.13.12-.21.13c-.08,0-.16-.02-.26-.09l-.54-.4-.68.92c-.08.11-.17.17-.27.18-.1.01-.2-.02-.3-.09-.1-.08-.16-.16-.17-.26-.01-.1.02-.2.1-.31l.68-.92-1.01-.75c-.09-.07-.14-.14-.16-.22-.02-.08,0-.16.06-.24.06-.08.13-.13.21-.13.08,0,.17.02.26.09l1.01.75,1.47-1.98c.23-.3.33-.58.32-.83-.01-.25-.16-.49-.45-.7-.1-.08-.2-.13-.28-.16-.09-.03-.16-.07-.2-.1-.05-.03-.08-.08-.08-.14,0-.06.03-.14.09-.23.05-.06.1-.11.17-.15.06-.04.13-.04.21-.02.08.03.18.07.3.13.12.06.22.12.31.18Z"/>
    <path d="m20.09,77.44c.38.34.64.71.77,1.11.14.4.15.8.06,1.22-.1.41-.32.81-.67,1.19-.34.37-.71.63-1.11.78-.4.14-.8.18-1.2.1-.4-.08-.77-.27-1.11-.58-.24-.22-.42-.46-.54-.71-.12-.25-.18-.52-.17-.8,0-.28.07-.56.19-.84.12-.28.31-.56.56-.83.07-.08.15-.12.22-.11s.16.04.24.12l2.57,2.33-.35.39-2.43-2.21h.2c-.24.28-.41.54-.5.79-.09.26-.1.5-.04.74.06.24.2.46.43.66.25.23.52.36.8.41.28.04.56,0,.83-.12.27-.12.53-.32.78-.59l.04-.04c.41-.45.61-.9.61-1.33,0-.44-.21-.84-.61-1.2-.17-.15-.35-.28-.56-.39-.2-.1-.43-.18-.68-.22-.11-.02-.19-.06-.25-.11-.05-.05-.08-.11-.09-.18,0-.06,0-.12.04-.18.03-.06.08-.1.15-.14.07-.03.16-.04.26-.02.27.03.54.11.82.25.28.14.53.3.74.5Z"/>
    <path d="m16.96,74.21c.28.33.45.68.5,1.06s0,.76-.18,1.14c-.17.38-.45.73-.84,1.07-.39.34-.79.56-1.19.67-.4.11-.78.11-1.15,0-.36-.11-.69-.33-.97-.66-.28-.33-.45-.69-.48-1.07-.04-.38.05-.73.27-1.05l.07.08-2.26,1.93c-.1.09-.2.12-.3.12-.1,0-.19-.06-.28-.16-.08-.1-.12-.19-.11-.29s.06-.19.16-.28l4.82-4.12c.1-.09.2-.13.3-.12.1,0,.19.06.28.16.08.1.12.19.11.29,0,.1-.07.19-.17.28l-.72.62.04-.17c.36-.16.72-.2,1.1-.11.38.09.71.31.99.64Zm-.6.29c-.19-.23-.42-.38-.68-.46-.26-.08-.53-.07-.83.02-.29.09-.59.26-.89.51-.46.39-.72.8-.79,1.21-.07.41.05.79.34,1.14.2.23.42.39.68.46.25.08.52.07.81-.01.29-.08.59-.26.9-.52.46-.39.72-.79.79-1.21.07-.42-.04-.8-.34-1.14Z"/>
    <path d="m12.46,67.89c.23.41.36.79.39,1.16.03.37-.02.7-.17.98-.15.28-.37.51-.68.68-.2.11-.39.19-.59.23-.2.04-.4.05-.6.02-.21-.03-.43-.08-.66-.17-.23-.08-.48-.19-.74-.33l-.34-.18h.2c-.15.46-.3.8-.46,1.04-.16.24-.36.42-.6.56-.27.15-.54.22-.81.21-.27,0-.53-.09-.77-.26-.24-.17-.45-.4-.61-.7-.23-.41-.3-.8-.22-1.18.08-.38.31-.68.7-.89.21-.12.43-.18.66-.21s.49.01.78.1c.29.09.63.25,1.03.48l-.19.09.92-2.65.09.16c-.18,0-.38.01-.6.05-.21.04-.44.1-.67.17-.24.07-.48.17-.73.29-.11.04-.2.05-.28.03-.08-.02-.15-.08-.21-.18-.05-.1-.07-.19-.04-.27.03-.08.1-.15.22-.2.3-.14.6-.25.9-.34.29-.09.58-.15.85-.18.27-.03.54-.04.79-.03l-.2.13.47-1.39c.03-.12.09-.2.16-.23.07-.04.15-.04.23-.01.08.03.14.09.19.18.04.08.07.16.06.23,0,.07-.02.16-.04.26l-.38,1.08-.1-.18c.44.07.84.24,1.2.49.36.25.65.57.88.97Zm-5.9,2.94c.14.25.33.41.56.49.23.08.47.05.71-.08.13-.07.24-.16.32-.25.09-.1.17-.23.24-.4.08-.17.17-.4.27-.69l.11.18c-.34-.18-.62-.31-.84-.4-.23-.09-.42-.13-.59-.13-.17,0-.32.04-.47.12-.23.13-.37.3-.42.51-.05.21-.02.43.11.66Zm5.29-2.65c-.18-.33-.42-.59-.7-.77-.28-.18-.61-.29-.99-.34l.22-.11-.99,2.97-.13-.29.32.17c.3.16.57.27.79.34.23.07.43.09.62.07.19-.02.37-.08.56-.19.32-.18.51-.43.56-.75.06-.32-.03-.69-.27-1.12Z"/>
    <path d="m11.17,61.07c.04.13.04.23,0,.32-.05.08-.13.15-.26.19l-5.68,1.81c-.13.04-.23.04-.32,0-.09-.04-.15-.12-.19-.24-.04-.13-.04-.23,0-.32.05-.09.13-.15.26-.19l.9-.29-.1.15c-.39.01-.74-.1-1.05-.33-.31-.23-.53-.56-.66-.98-.13-.41-.15-.8-.05-1.17s.29-.69.6-.98c.3-.28.7-.5,1.2-.66.49-.15.94-.21,1.35-.15.41.05.76.2,1.06.44.29.24.51.57.64.99.13.42.14.81.02,1.18-.12.36-.34.66-.66.88l-.04-.11,2.47-.79c.13-.04.24-.04.32.01.09.05.15.13.19.25Zm-2.88-1.06c-.09-.29-.24-.52-.45-.69-.21-.17-.46-.27-.76-.3-.3-.03-.64.01-1.02.13-.58.18-.98.45-1.2.81-.22.35-.26.75-.12,1.19.09.28.24.51.44.69.2.17.46.27.76.31.3.03.64-.01,1.03-.13.57-.18.97-.45,1.19-.81.22-.36.27-.75.13-1.18Z"/>
    <path d="m7.67,54.74c.09.5.07.96-.06,1.35-.13.4-.36.73-.69,1-.33.27-.75.45-1.26.54-.5.09-.95.07-1.35-.05-.41-.13-.74-.35-1.02-.65-.27-.31-.45-.68-.53-1.13-.06-.32-.06-.62,0-.89.06-.27.18-.52.35-.74.17-.22.39-.4.66-.55.27-.15.59-.25.94-.32.11-.02.19,0,.25.05.06.05.1.13.12.24l.63,3.41-.52.1-.59-3.23.16.13c-.35.06-.64.17-.87.32-.23.15-.39.34-.48.56-.09.22-.11.49-.06.79.06.33.19.6.39.81.2.2.44.34.73.41.29.07.62.07.98,0h.06c.6-.12,1.03-.35,1.29-.7.26-.35.34-.79.24-1.33-.04-.22-.11-.44-.21-.65-.1-.21-.24-.4-.41-.59-.08-.08-.12-.16-.13-.23-.01-.08,0-.14.04-.19.03-.05.08-.09.14-.12.06-.03.13-.03.21-.02.08.02.15.06.22.14.2.19.36.42.5.7.14.28.24.56.29.85Z"/>
    <path d="m7.22,51.68c.01.13-.02.24-.08.31-.07.07-.17.12-.3.13l-4.15.34c-.13.01-.24-.01-.31-.07-.08-.06-.12-.15-.13-.28-.01-.13.02-.23.08-.3.06-.08.16-.12.29-.13l.81-.07v.1c-.39-.07-.71-.25-.95-.53s-.38-.64-.43-1.08c-.02-.1,0-.18.04-.24.05-.06.13-.1.25-.12.11-.02.2,0,.27.06.07.05.12.14.14.27l.03.16c.08.45.25.78.52,1s.62.31,1.05.28l2.41-.2c.13-.01.24.02.32.08.08.06.12.16.13.29Z"/>
    <path d="m7.06,47.34c0,.3-.04.6-.12.9-.08.3-.21.58-.39.84-.05.07-.1.11-.17.14-.06.03-.13.03-.19.02-.06-.01-.12-.04-.16-.08-.05-.04-.07-.1-.08-.16,0-.06,0-.13.05-.21.16-.26.28-.51.34-.75.07-.24.1-.48.1-.72,0-.38-.06-.66-.2-.86-.14-.19-.33-.29-.57-.29-.19,0-.33.06-.45.19-.11.13-.2.32-.26.6l-.21.91c-.09.42-.24.73-.46.93-.21.2-.49.3-.83.3-.3,0-.56-.08-.77-.24-.21-.16-.38-.38-.5-.67-.12-.29-.17-.62-.17-1,0-.29.04-.57.12-.83.08-.26.2-.5.37-.71.05-.07.1-.11.17-.13.06-.02.13-.03.19,0,.06.02.12.05.16.1.04.05.07.1.07.17,0,.07-.02.14-.06.21-.14.2-.24.4-.3.6-.07.21-.1.41-.1.61,0,.37.07.66.21.85s.34.29.58.3c.19,0,.34-.06.46-.18.12-.12.21-.3.27-.56l.2-.91c.1-.43.25-.75.45-.97.21-.21.48-.32.83-.32.44,0,.79.18,1.04.54.25.36.38.83.37,1.41Z"/>
    <path d="m1.13,43.64c-.01.17-.07.29-.17.38-.1.09-.22.12-.38.11-.16-.01-.28-.07-.35-.17-.07-.1-.1-.23-.09-.4.02-.17.07-.3.16-.38.09-.08.22-.12.38-.1.15.01.27.07.35.17.08.1.11.23.1.4Zm6.04.54c-.01.13-.06.23-.14.29-.08.06-.19.08-.33.07l-4.06-.36c-.14-.01-.24-.06-.31-.13-.07-.07-.09-.18-.08-.31.01-.13.06-.22.14-.29.08-.07.19-.09.33-.08l4.06.36c.14.01.24.06.31.13.07.08.1.18.09.31Z"/>
    <path d="m7.61,41.05c-.05.3-.14.59-.26.87s-.29.54-.51.77c-.06.06-.12.09-.19.11s-.13.01-.19,0c-.06-.02-.11-.06-.15-.1-.04-.05-.06-.11-.06-.17,0-.06.03-.13.08-.2.2-.23.35-.46.45-.69.1-.23.17-.46.21-.7.06-.38.04-.67-.07-.88-.11-.21-.28-.34-.51-.38-.18-.03-.34,0-.47.11-.13.11-.25.29-.35.55l-.35.86c-.15.4-.35.68-.6.85-.24.16-.53.22-.87.16-.3-.05-.54-.17-.72-.36-.19-.19-.32-.44-.39-.74-.07-.3-.07-.64-.01-1.01.05-.29.13-.56.25-.8.12-.25.28-.46.48-.64.06-.06.12-.09.18-.11.07-.01.13,0,.19.02.06.03.11.07.14.12.04.05.05.11.05.18,0,.07-.04.13-.09.2-.16.17-.29.36-.39.55-.1.19-.16.39-.19.58-.06.37-.04.66.08.87.11.21.29.34.52.38.18.03.34,0,.48-.1.14-.1.25-.27.35-.51l.34-.86c.16-.41.36-.71.6-.89.24-.18.52-.24.87-.18.43.07.75.3.95.69.2.39.25.88.15,1.45Z"/>
    <path d="m8.64,36.51c-.1.37-.24.66-.44.87-.2.21-.44.35-.72.4-.29.06-.61.04-.98-.06l-2.46-.65-.17.65c-.03.11-.08.19-.15.23-.07.04-.15.05-.25.03-.1-.03-.16-.07-.2-.14-.04-.07-.04-.16-.01-.27l.17-.65-1.11-.29c-.13-.03-.22-.09-.27-.18-.05-.09-.06-.19-.02-.32.03-.12.09-.21.18-.26.09-.05.19-.06.32-.02l1.11.29.32-1.21c.03-.11.08-.19.14-.23.07-.04.15-.05.24-.03.1.02.16.07.2.15.04.07.04.16.02.27l-.32,1.22,2.38.63c.37.1.67.09.9-.01.23-.1.39-.33.48-.68.03-.12.05-.23.04-.32,0-.09,0-.17.02-.23,0-.06.04-.1.1-.13.06-.03.14-.03.25,0,.08.02.14.05.2.1.06.05.09.11.1.18,0,.08,0,.19,0,.32,0,.13-.03.25-.06.35Z"/>
    <path d="m9.68,33.41c-.18.48-.43.86-.74,1.13-.32.28-.69.44-1.11.51s-.87,0-1.36-.18c-.47-.18-.85-.42-1.14-.74-.28-.32-.46-.68-.54-1.08-.08-.4-.04-.82.12-1.25.11-.31.27-.56.46-.77.19-.21.42-.36.67-.46.26-.1.54-.15.85-.13.31.01.63.08.98.21.1.04.16.09.19.17.03.07.02.16-.02.27l-1.2,3.26-.5-.18,1.14-3.08.07.19c-.34-.12-.64-.18-.91-.17-.27.01-.5.09-.7.24s-.35.36-.45.65c-.12.32-.14.62-.08.89s.21.52.42.73c.22.21.5.38.84.5l.06.02c.57.21,1.06.23,1.46.07.4-.17.7-.51.89-1.02.08-.21.13-.43.15-.66.02-.23,0-.47-.05-.72-.02-.11-.02-.2,0-.27.03-.07.07-.12.13-.15.06-.03.12-.04.18-.03.06,0,.13.04.18.09.06.05.1.13.12.23.07.26.1.55.08.86-.02.31-.08.6-.19.88Z"/>
    <path d="m10.81,30.58c-.06.12-.14.19-.24.21-.1.03-.2,0-.32-.05l-3.69-1.91c-.12-.06-.19-.14-.22-.23-.03-.09-.02-.19.04-.3.06-.11.13-.18.23-.21.09-.03.2-.01.32.05l.76.39-.16.04c-.28-.3-.43-.64-.46-1.01-.03-.37.05-.74.24-1.11.18-.34.39-.6.63-.76.24-.16.52-.24.83-.22.31.02.66.13,1.04.32l2.37,1.23c.12.06.19.14.23.23.03.1.02.2-.04.31-.06.12-.14.19-.24.22-.1.03-.2.01-.32-.05l-2.33-1.21c-.4-.21-.74-.28-1-.22-.27.06-.49.26-.67.6-.21.4-.25.77-.12,1.13.12.36.39.65.8.86l2.14,1.11c.25.13.31.31.18.56Z"/>
    <path d="m14.22,24.72c-.21.32-.44.54-.69.68-.25.14-.53.19-.81.15-.29-.04-.59-.16-.91-.37l-2.13-1.39-.37.56c-.06.09-.13.15-.21.17-.08.02-.16,0-.25-.05-.08-.05-.13-.12-.14-.2-.01-.08.01-.17.08-.26l.37-.56-.96-.63c-.11-.07-.18-.16-.19-.26-.02-.1,0-.2.08-.31.07-.11.15-.17.25-.19.1-.02.2,0,.31.08l.96.63.69-1.05c.06-.09.13-.15.21-.17.08-.02.16,0,.24.05.08.05.13.12.15.2.01.08,0,.17-.07.26l-.69,1.05,2.06,1.35c.32.21.6.3.85.27.25-.03.48-.19.67-.49.07-.11.12-.2.14-.29.03-.09.06-.16.09-.21.03-.05.07-.08.13-.09.06,0,.14.02.23.08.07.04.12.1.16.16.04.06.05.13.03.21-.02.08-.06.18-.11.3-.05.12-.11.23-.17.32Z"/>
  </g>
</svg>