<svg width="48" height="48" viewBox="0 0 48 48" fill="none" xmlns="http://www.w3.org/2000/svg">
<rect width="48" height="48" rx="24" fill="#F1F3F4"/>
<path d="M27.75 12.75H18.75C17.7554 12.75 16.8016 13.1451 16.0983 13.8483C15.3951 14.5516 15 15.5054 15 16.5V29.25C15 30.2446 15.3951 31.1984 16.0983 31.9016C16.8016 32.6049 17.7554 33 18.75 33H27V30.6667C26.0386 29.6884 25.5 28.3716 25.5 27C25.5 24.105 27.8558 21.75 30.75 21.75C31.005 21.75 31.254 21.7747 31.5 21.81V16.5C31.5 16.0075 31.403 15.5199 31.2145 15.0649C31.0261 14.61 30.7499 14.1966 30.4017 13.8483C30.0534 13.5001 29.64 13.2239 29.1851 13.0355C28.7301 12.847 28.2425 12.75 27.75 12.75ZM22.635 29.25H18.75C18.5511 29.25 18.3603 29.171 18.2197 29.0303C18.079 28.8897 18 28.6989 18 28.5C18 28.3011 18.079 28.1103 18.2197 27.9697C18.3603 27.829 18.5511 27.75 18.75 27.75H22.635C22.8339 27.75 23.0247 27.829 23.1653 27.9697C23.306 28.1103 23.385 28.3011 23.385 28.5C23.385 28.6989 23.306 28.8897 23.1653 29.0303C23.0247 29.171 22.8339 29.25 22.635 29.25ZM22.815 25.5H18.75C18.5511 25.5 18.3603 25.421 18.2197 25.2803C18.079 25.1397 18 24.9489 18 24.75C18 24.5511 18.079 24.3603 18.2197 24.2197C18.3603 24.079 18.5511 24 18.75 24H22.815C23.0139 24 23.2047 24.079 23.3453 24.2197C23.486 24.3603 23.565 24.5511 23.565 24.75C23.565 24.9489 23.486 25.1397 23.3453 25.2803C23.2047 25.421 23.0139 25.5 22.815 25.5ZM25.0875 21.75H18.75C18.5511 21.75 18.3603 21.671 18.2197 21.5303C18.079 21.3897 18 21.1989 18 21C18 20.8011 18.079 20.6103 18.2197 20.4697C18.3603 20.329 18.5511 20.25 18.75 20.25H25.0875C25.2864 20.25 25.4772 20.329 25.6178 20.4697C25.7585 20.6103 25.8375 20.8011 25.8375 21C25.8375 21.1989 25.7585 21.3897 25.6178 21.5303C25.4772 21.671 25.2864 21.75 25.0875 21.75ZM27.75 18H18.75C18.5511 18 18.3603 17.921 18.2197 17.7803C18.079 17.6397 18 17.4489 18 17.25C18 17.0511 18.079 16.8603 18.2197 16.7197C18.3603 16.579 18.5511 16.5 18.75 16.5H27.75C27.9489 16.5 28.1397 16.579 28.2803 16.7197C28.421 16.8603 28.5 17.0511 28.5 17.25C28.5 17.4489 28.421 17.6397 28.2803 17.7803C28.1397 17.921 27.9489 18 27.75 18ZM30.75 32.25C29.9438 32.25 29.1825 32.0625 28.5 31.7377V34.4985C28.5 34.6343 28.5368 34.7675 28.6066 34.884C28.6764 35.0005 28.7765 35.0958 28.8962 35.1599C29.0159 35.224 29.1508 35.2543 29.2864 35.2477C29.422 35.2411 29.5533 35.1979 29.6663 35.1225L30.75 34.3995L31.8337 35.1225C31.9467 35.1979 32.078 35.2411 32.2136 35.2477C32.3492 35.2543 32.4841 35.224 32.6038 35.1599C32.7235 35.0958 32.8236 35.0005 32.8934 34.884C32.9632 34.7675 33 34.6343 33 34.4985V31.7377C32.2976 32.0742 31.5288 32.2492 30.75 32.25Z" fill="#78909C"/>
<path d="M30.75 30.75C32.8211 30.75 34.5 29.0711 34.5 27C34.5 24.9289 32.8211 23.25 30.75 23.25C28.6789 23.25 27 24.9289 27 27C27 29.0711 28.6789 30.75 30.75 30.75Z" fill="#78909C"/>
</svg>
