<svg width="48" height="48" viewBox="0 0 48 48" fill="none" xmlns="http://www.w3.org/2000/svg">
<rect width="48" height="48" rx="24" fill="#F1F3F4"/>
<path d="M32.113 16.25H31V14.75C31 14.5511 30.921 14.3603 30.7803 14.2197C30.6397 14.079 30.4489 14 30.25 14C30.0511 14 29.8603 14.079 29.7197 14.2197C29.579 14.3603 29.5 14.5511 29.5 14.75V16.25H24.25V14.75C24.25 14.5511 24.171 14.3603 24.0303 14.2197C23.8897 14.079 23.6989 14 23.5 14C23.3011 14 23.1103 14.079 22.9697 14.2197C22.829 14.3603 22.75 14.5511 22.75 14.75V16.25H17.5V14.75C17.5 14.5511 17.421 14.3603 17.2803 14.2197C17.1397 14.079 16.9489 14 16.75 14C16.5511 14 16.3603 14.079 16.2197 14.2197C16.079 14.3603 16 14.5511 16 14.75V16.25H14.887C14.3868 16.2508 13.9073 16.4499 13.5536 16.8036C13.1999 17.1573 13.0008 17.6368 13 18.137V33.1138C13.001 33.6138 13.2001 34.0932 13.5538 34.4467C13.9075 34.8002 14.3869 34.9992 14.887 35H32.113C32.6132 34.9992 33.0927 34.8001 33.4464 34.4464C33.8001 34.0927 33.9992 33.6132 34 33.113V18.137C33.9992 17.6368 33.8001 17.1573 33.4464 16.8036C33.0927 16.4499 32.6132 16.2508 32.113 16.25ZM22.5392 25.0243H24.46C25.2262 25.025 25.9609 25.3297 26.5028 25.8715C27.0446 26.4132 27.3495 27.1478 27.3505 27.914C27.3497 28.6804 27.0449 29.4151 26.503 29.957C25.9611 30.4989 25.2264 30.8037 24.46 30.8045H24.25V31.4323C24.25 31.6312 24.171 31.8219 24.0303 31.9626C23.8897 32.1032 23.6989 32.1823 23.5 32.1823C23.3011 32.1823 23.1103 32.1032 22.9697 31.9626C22.829 31.8219 22.75 31.6312 22.75 31.4323V30.8045H22.5392C21.773 30.8035 21.0385 30.4986 20.4967 29.9568C19.955 29.4149 19.6503 28.6802 19.6495 27.914C19.6495 27.7151 19.7285 27.5243 19.8692 27.3837C20.0098 27.243 20.2006 27.164 20.3995 27.164C20.5984 27.164 20.7892 27.243 20.9298 27.3837C21.0705 27.5243 21.1495 27.7151 21.1495 27.914C21.1495 28.6805 21.7727 29.3045 22.5392 29.3045H24.46C24.8287 29.3041 25.1821 29.1575 25.4428 28.8968C25.7035 28.6361 25.8501 28.2827 25.8505 27.914C25.8499 27.5455 25.7032 27.1922 25.4425 26.9317C25.1819 26.6712 24.8285 26.5246 24.46 26.5243H22.5392C21.773 26.5233 21.0385 26.2184 20.4967 25.6765C19.955 25.1346 19.6503 24.4 19.6495 23.6337C19.6505 22.8676 19.9553 22.1332 20.497 21.5915C21.0387 21.0498 21.7731 20.745 22.5392 20.744H22.75V20.1163C22.75 19.9173 22.829 19.7266 22.9697 19.5859C23.1103 19.4453 23.3011 19.3663 23.5 19.3663C23.6989 19.3663 23.8897 19.4453 24.0303 19.5859C24.171 19.7266 24.25 19.9173 24.25 20.1163V20.744H24.46C25.2262 20.7448 25.9609 21.0495 26.5028 21.5912C27.0446 22.133 27.3495 22.8675 27.3505 23.6337C27.3505 23.8327 27.2715 24.0234 27.1308 24.1641C26.9902 24.3047 26.7994 24.3837 26.6005 24.3837C26.4016 24.3837 26.2108 24.3047 26.0702 24.1641C25.9295 24.0234 25.8505 23.8327 25.8505 23.6337C25.8499 23.2652 25.7032 22.912 25.4425 22.6514C25.1819 22.3909 24.8285 22.2444 24.46 22.244H22.5392C22.1708 22.2444 21.8175 22.3909 21.557 22.6515C21.2964 22.912 21.1499 23.2653 21.1495 23.6337C21.1495 24.401 21.7727 25.0243 22.5392 25.0243Z" fill="#78909C"/>
</svg>
