<svg width="30" height="30" viewBox="0 0 30 30" fill="none" xmlns="http://www.w3.org/2000/svg">
<rect width="30" height="30" fill="#F5F5F5"/>
<rect width="1440" height="1580" transform="translate(-1294 -190)" fill="#FAFAFA"/>
<rect x="-951.5" y="-3.5" width="985" height="37" rx="18.5" fill="white" stroke="#E0E0E0"/>
<ellipse cx="15.1796" cy="15" rx="14.8196" ry="15" fill="#F05D61"/>
<path d="M12.86 6.71411C14.5839 6.71411 16.2372 7.39893 17.4562 8.61792C18.6752 9.8369 19.36 11.4902 19.36 13.2141C19.36 14.8241 18.77 16.3041 17.8 17.4441L18.07 17.7141H18.86L23.86 22.7141L22.36 24.2141L17.36 19.2141V18.4241L17.09 18.1541C15.95 19.1241 14.47 19.7141 12.86 19.7141C11.1361 19.7141 9.48278 19.0293 8.26379 17.8103C7.0448 16.5913 6.35999 14.938 6.35999 13.2141C6.35999 11.4902 7.0448 9.8369 8.26379 8.61792C9.48278 7.39893 11.1361 6.71411 12.86 6.71411ZM12.86 8.71411C10.36 8.71411 8.35999 10.7141 8.35999 13.2141C8.35999 15.7141 10.36 17.7141 12.86 17.7141C15.36 17.7141 17.36 15.7141 17.36 13.2141C17.36 10.7141 15.36 8.71411 12.86 8.71411Z" fill="white"/>
</svg>
