<svg width="43" height="43" viewBox="0 0 43 43" fill="none" xmlns="http://www.w3.org/2000/svg">
<rect x="0.5" y="0.5" width="42" height="42" rx="7.5" fill="#F1F1F1" fill-opacity="0.2" stroke="#F8B318"/>
<g clip-path="url(#clip0_2709_10228)">
<path d="M32.2363 29.8361L28.709 26.3088C30.2363 23.9088 29.9453 20.6725 27.8363 18.5997C25.3999 16.1634 21.4726 16.1634 19.0363 18.5997C16.5999 21.0361 16.5999 24.9634 19.0363 27.3997C21.0363 29.3997 24.1999 29.8725 26.7453 28.2725L30.2726 31.7997C30.8181 32.3452 31.6908 32.3452 32.2363 31.7997C32.7817 31.2543 32.7817 30.3816 32.2363 29.8361ZM19.5453 26.8906C17.3999 24.7452 17.3999 21.2543 19.5453 19.1088C21.6544 16.9997 25.1453 16.927 27.3272 19.1088C29.4726 21.2543 29.4726 24.7452 27.3272 26.8906C25.1817 29.0361 21.6908 29.0725 19.5453 26.8906Z" fill="#F8B318"/>
<path d="M23.4366 23.2903C24.382 23.2903 25.182 22.5267 25.182 21.5449C25.182 20.5994 24.4184 19.7994 23.4366 19.7994C22.4911 19.7994 21.6911 20.563 21.6911 21.5449C21.6911 22.4903 22.4911 23.2539 23.4366 23.2903C21.6548 23.2903 20.2002 24.563 19.8729 26.2358C21.6184 28.1994 24.8548 28.4903 26.9639 26.2358C26.6729 24.5267 25.2184 23.2903 23.4366 23.2903ZM14.0184 10.0176C10.4548 13.5449 9.83658 14.1994 9.61839 14.4176L9.58203 14.4539H14.0184V10.0176Z" fill="#F8B318"/>
<path d="M23.4365 29.9816C21.582 29.9816 19.8365 29.2544 18.5274 27.9453C15.8001 25.218 15.8001 20.818 18.5274 18.0907C19.8365 16.7816 21.582 16.0543 23.4365 16.0543C24.2001 16.0543 24.9638 16.1634 25.6547 16.418V10.8907C25.6547 10.2725 25.182 9.7998 24.5638 9.7998H14.7456V14.818C14.7456 15.0362 14.6001 15.1816 14.382 15.1816H9.36377V31.1089C9.36377 31.7271 9.87286 32.1998 10.4547 32.1998H24.5638C25.182 32.1998 25.6547 31.7271 25.6547 31.1089V29.618C25.0729 29.7998 24.2729 29.9816 23.4365 29.9816ZM17.291 11.9816H22.382C22.6001 11.9816 22.7456 12.1271 22.7456 12.3453C22.7456 12.5634 22.6001 12.7089 22.382 12.7089H17.291C17.0729 12.7089 16.9274 12.5634 16.9274 12.3453C16.9274 12.1634 17.0729 11.9816 17.291 11.9816ZM17.291 14.5634H22.382C22.6001 14.5634 22.7456 14.7089 22.7456 14.9271C22.7456 15.1453 22.6001 15.2907 22.382 15.2907H17.291C17.0729 15.2907 16.9274 15.1453 16.9274 14.9271C16.9274 14.7453 17.0729 14.5634 17.291 14.5634ZM12.382 18.9634H16.7456C16.9638 18.9634 17.1092 19.1089 17.1092 19.3271C17.1092 19.5453 16.9638 19.6907 16.7456 19.6907H12.382C12.1638 19.6907 12.0183 19.5453 12.0183 19.3271C12.0183 19.1453 12.1638 18.9634 12.382 18.9634ZM12.382 22.2725H15.182C15.4001 22.2725 15.5456 22.418 15.5456 22.6362C15.5456 22.8544 15.4001 22.9998 15.182 22.9998H12.382C12.1638 22.9998 12.0183 22.8544 12.0183 22.6362C12.0183 22.4544 12.1638 22.2725 12.382 22.2725ZM12.382 25.5816H15.182C15.4001 25.5816 15.5456 25.7271 15.5456 25.9453C15.5456 26.1634 15.4001 26.3089 15.182 26.3089H12.382C12.1638 26.3089 12.0183 26.1634 12.0183 25.9453C12.0183 25.7271 12.1638 25.5816 12.382 25.5816ZM16.7456 29.618H12.382C12.1638 29.618 12.0183 29.4725 12.0183 29.2544C12.0183 29.0362 12.1638 28.8907 12.382 28.8907H16.7456C16.9638 28.8907 17.1092 29.0362 17.1092 29.2544C17.1092 29.4362 16.9274 29.618 16.7456 29.618Z" fill="#F8B318"/>
</g>
<defs>
<clipPath id="clip0_2709_10228">
<rect width="24" height="24" fill="white" transform="translate(9 9)"/>
</clipPath>
</defs>
</svg>
