<svg width="68" height="20" viewBox="0 0 68 20" fill="none" xmlns="http://www.w3.org/2000/svg">
<path d="M25.8346 14.126C25.4146 14.126 24.9899 14.0747 24.5606 13.972C24.1406 13.8693 23.7486 13.692 23.3846 13.44C23.2913 13.3747 23.2259 13.3 23.1886 13.216C23.1513 13.1227 23.1373 13.034 23.1466 12.95C23.1653 12.8567 23.2026 12.7773 23.2586 12.712C23.3239 12.6467 23.3986 12.6093 23.4826 12.6C23.5759 12.5813 23.6786 12.6 23.7906 12.656C24.1546 12.88 24.5046 13.0387 24.8406 13.132C25.1859 13.216 25.5266 13.258 25.8626 13.258C26.3946 13.258 26.7959 13.16 27.0666 12.964C27.3373 12.768 27.4726 12.502 27.4726 12.166C27.4726 11.9047 27.3839 11.6993 27.2066 11.55C27.0293 11.3913 26.7493 11.27 26.3666 11.186L25.0926 10.906C24.5046 10.7847 24.0659 10.5747 23.7766 10.276C23.4966 9.97733 23.3566 9.59 23.3566 9.114C23.3566 8.694 23.4639 8.33467 23.6786 8.036C23.9026 7.728 24.2153 7.49 24.6166 7.322C25.0179 7.154 25.4846 7.07 26.0166 7.07C26.4273 7.07 26.8146 7.126 27.1786 7.238C27.5519 7.34067 27.8879 7.50867 28.1866 7.742C28.2799 7.80733 28.3406 7.88667 28.3686 7.98C28.4059 8.064 28.4106 8.15267 28.3826 8.246C28.3639 8.33 28.3219 8.40467 28.2566 8.47C28.1913 8.526 28.1119 8.55867 28.0186 8.568C27.9253 8.57733 27.8273 8.54933 27.7246 8.484C27.4446 8.29733 27.1599 8.162 26.8706 8.078C26.5813 7.98467 26.2966 7.938 26.0166 7.938C25.4939 7.938 25.0973 8.04067 24.8266 8.246C24.5559 8.45133 24.4206 8.722 24.4206 9.058C24.4206 9.31933 24.5046 9.534 24.6726 9.702C24.8406 9.87 25.1019 9.99133 25.4566 10.066L26.7306 10.332C27.3373 10.4627 27.7899 10.6727 28.0886 10.962C28.3966 11.242 28.5506 11.6247 28.5506 12.11C28.5506 12.726 28.3033 13.216 27.8086 13.58C27.3139 13.944 26.6559 14.126 25.8346 14.126ZM33.8568 14.126C33.1942 14.126 32.6202 13.9813 32.1348 13.692C31.6495 13.4027 31.2715 12.9967 31.0008 12.474C30.7395 11.942 30.6088 11.3167 30.6088 10.598C30.6088 10.0567 30.6835 9.57133 30.8328 9.142C30.9822 8.70333 31.2015 8.33 31.4908 8.022C31.7802 7.714 32.1208 7.48067 32.5128 7.322C32.9142 7.154 33.3622 7.07 33.8568 7.07C34.5195 7.07 35.0935 7.21467 35.5788 7.504C36.0642 7.79333 36.4375 8.204 36.6988 8.736C36.9695 9.25867 37.1048 9.87933 37.1048 10.598C37.1048 11.1393 37.0302 11.6247 36.8808 12.054C36.7315 12.4833 36.5122 12.8567 36.2228 13.174C35.9335 13.482 35.5882 13.72 35.1868 13.888C34.7948 14.0467 34.3515 14.126 33.8568 14.126ZM33.8568 13.216C34.2768 13.216 34.6455 13.1133 34.9628 12.908C35.2802 12.7027 35.5228 12.404 35.6908 12.012C35.8682 11.62 35.9568 11.1487 35.9568 10.598C35.9568 9.74867 35.7655 9.1 35.3828 8.652C35.0095 8.204 34.5008 7.98 33.8568 7.98C33.4275 7.98 33.0542 8.08267 32.7368 8.288C32.4288 8.484 32.1862 8.778 32.0088 9.17C31.8408 9.55267 31.7568 10.0287 31.7568 10.598C31.7568 11.438 31.9482 12.0867 32.3308 12.544C32.7135 12.992 33.2222 13.216 33.8568 13.216ZM40.1321 14.098C39.9455 14.098 39.8008 14.0467 39.6981 13.944C39.6048 13.8413 39.5581 13.6967 39.5581 13.51V7.672C39.5581 7.48533 39.6048 7.34533 39.6981 7.252C39.7915 7.14933 39.9268 7.098 40.1041 7.098C40.2815 7.098 40.4168 7.14933 40.5101 7.252C40.6128 7.34533 40.6641 7.48533 40.6641 7.672V8.806H40.5241C40.6735 8.25533 40.9581 7.83067 41.3781 7.532C41.7981 7.23333 42.3161 7.07467 42.9321 7.056C43.0721 7.04667 43.1841 7.07933 43.2681 7.154C43.3521 7.21933 43.3988 7.336 43.4081 7.504C43.4175 7.66267 43.3801 7.78867 43.2961 7.882C43.2121 7.97533 43.0815 8.03133 42.9041 8.05L42.6801 8.078C42.0455 8.134 41.5555 8.33933 41.2101 8.694C40.8741 9.03933 40.7061 9.51533 40.7061 10.122V13.51C40.7061 13.6967 40.6548 13.8413 40.5521 13.944C40.4588 14.0467 40.3188 14.098 40.1321 14.098ZM48.4249 14.126C47.8929 14.126 47.4449 14.0327 47.0809 13.846C46.7262 13.65 46.4602 13.37 46.2829 13.006C46.1055 12.6327 46.0169 12.18 46.0169 11.648V8.078H45.0789C44.9202 8.078 44.7989 8.04067 44.7149 7.966C44.6309 7.882 44.5889 7.77 44.5889 7.63C44.5889 7.49 44.6309 7.38267 44.7149 7.308C44.7989 7.23333 44.9202 7.196 45.0789 7.196H46.0169V5.586C46.0169 5.39933 46.0682 5.25933 46.1709 5.166C46.2735 5.06333 46.4135 5.012 46.5909 5.012C46.7682 5.012 46.9035 5.06333 46.9969 5.166C47.0995 5.25933 47.1509 5.39933 47.1509 5.586V7.196H48.9149C49.0735 7.196 49.1949 7.23333 49.2789 7.308C49.3629 7.38267 49.4049 7.49 49.4049 7.63C49.4049 7.77 49.3629 7.882 49.2789 7.966C49.1949 8.04067 49.0735 8.078 48.9149 8.078H47.1509V11.536C47.1509 12.068 47.2629 12.474 47.4869 12.754C47.7109 13.0247 48.0749 13.16 48.5789 13.16C48.7562 13.16 48.9055 13.1413 49.0269 13.104C49.1575 13.0667 49.2649 13.048 49.3489 13.048C49.4329 13.0387 49.5029 13.0667 49.5589 13.132C49.6149 13.1973 49.6429 13.3093 49.6429 13.468C49.6429 13.58 49.6195 13.6827 49.5729 13.776C49.5355 13.8693 49.4655 13.9347 49.3629 13.972C49.2509 14.0093 49.1015 14.042 48.9149 14.07C48.7375 14.1073 48.5742 14.126 48.4249 14.126Z" fill="white"/>
<path d="M14.25 13.25H16.5L13.5 16.25L10.5 13.25H12.75V2.75H14.25M1.5 13.25H9V14.75H1.5M4.5 4.25V5.75H1.5V4.25M1.5 8.75H6.75V10.25H1.5V8.75Z" fill="white"/>
<path d="M59 12.25L55.25 8.5H62.75L59 12.25Z" fill="white"/>
</svg>
