<svg width="68" height="23" viewBox="0 0 68 23" fill="none" xmlns="http://www.w3.org/2000/svg">
<path d="M25.8346 15.126C25.4146 15.126 24.9899 15.0747 24.5606 14.972C24.1406 14.8693 23.7486 14.692 23.3846 14.44C23.2913 14.3747 23.2259 14.3 23.1886 14.216C23.1513 14.1227 23.1373 14.034 23.1466 13.95C23.1653 13.8567 23.2026 13.7773 23.2586 13.712C23.3239 13.6467 23.3986 13.6093 23.4826 13.6C23.5759 13.5813 23.6786 13.6 23.7906 13.656C24.1546 13.88 24.5046 14.0387 24.8406 14.132C25.1859 14.216 25.5266 14.258 25.8626 14.258C26.3946 14.258 26.7959 14.16 27.0666 13.964C27.3373 13.768 27.4726 13.502 27.4726 13.166C27.4726 12.9047 27.3839 12.6993 27.2066 12.55C27.0293 12.3913 26.7493 12.27 26.3666 12.186L25.0926 11.906C24.5046 11.7847 24.0659 11.5747 23.7766 11.276C23.4966 10.9773 23.3566 10.59 23.3566 10.114C23.3566 9.694 23.4639 9.33467 23.6786 9.036C23.9026 8.728 24.2153 8.49 24.6166 8.322C25.0179 8.154 25.4846 8.07 26.0166 8.07C26.4273 8.07 26.8146 8.126 27.1786 8.238C27.5519 8.34067 27.8879 8.50867 28.1866 8.742C28.2799 8.80733 28.3406 8.88667 28.3686 8.98C28.4059 9.064 28.4106 9.15267 28.3826 9.246C28.3639 9.33 28.3219 9.40467 28.2566 9.47C28.1913 9.526 28.1119 9.55867 28.0186 9.568C27.9253 9.57733 27.8273 9.54933 27.7246 9.484C27.4446 9.29733 27.1599 9.162 26.8706 9.078C26.5813 8.98467 26.2966 8.938 26.0166 8.938C25.4939 8.938 25.0973 9.04067 24.8266 9.246C24.5559 9.45133 24.4206 9.722 24.4206 10.058C24.4206 10.3193 24.5046 10.534 24.6726 10.702C24.8406 10.87 25.1019 10.9913 25.4566 11.066L26.7306 11.332C27.3373 11.4627 27.7899 11.6727 28.0886 11.962C28.3966 12.242 28.5506 12.6247 28.5506 13.11C28.5506 13.726 28.3033 14.216 27.8086 14.58C27.3139 14.944 26.6559 15.126 25.8346 15.126ZM33.8568 15.126C33.1942 15.126 32.6202 14.9813 32.1348 14.692C31.6495 14.4027 31.2715 13.9967 31.0008 13.474C30.7395 12.942 30.6088 12.3167 30.6088 11.598C30.6088 11.0567 30.6835 10.5713 30.8328 10.142C30.9822 9.70333 31.2015 9.33 31.4908 9.022C31.7802 8.714 32.1208 8.48067 32.5128 8.322C32.9142 8.154 33.3622 8.07 33.8568 8.07C34.5195 8.07 35.0935 8.21467 35.5788 8.504C36.0642 8.79333 36.4375 9.204 36.6988 9.736C36.9695 10.2587 37.1048 10.8793 37.1048 11.598C37.1048 12.1393 37.0302 12.6247 36.8808 13.054C36.7315 13.4833 36.5122 13.8567 36.2228 14.174C35.9335 14.482 35.5882 14.72 35.1868 14.888C34.7948 15.0467 34.3515 15.126 33.8568 15.126ZM33.8568 14.216C34.2768 14.216 34.6455 14.1133 34.9628 13.908C35.2802 13.7027 35.5228 13.404 35.6908 13.012C35.8682 12.62 35.9568 12.1487 35.9568 11.598C35.9568 10.7487 35.7655 10.1 35.3828 9.652C35.0095 9.204 34.5008 8.98 33.8568 8.98C33.4275 8.98 33.0542 9.08267 32.7368 9.288C32.4288 9.484 32.1862 9.778 32.0088 10.17C31.8408 10.5527 31.7568 11.0287 31.7568 11.598C31.7568 12.438 31.9482 13.0867 32.3308 13.544C32.7135 13.992 33.2222 14.216 33.8568 14.216ZM40.1321 15.098C39.9455 15.098 39.8008 15.0467 39.6981 14.944C39.6048 14.8413 39.5581 14.6967 39.5581 14.51V8.672C39.5581 8.48533 39.6048 8.34533 39.6981 8.252C39.7915 8.14933 39.9268 8.098 40.1041 8.098C40.2815 8.098 40.4168 8.14933 40.5101 8.252C40.6128 8.34533 40.6641 8.48533 40.6641 8.672V9.806H40.5241C40.6735 9.25533 40.9581 8.83067 41.3781 8.532C41.7981 8.23333 42.3161 8.07467 42.9321 8.056C43.0721 8.04667 43.1841 8.07933 43.2681 8.154C43.3521 8.21933 43.3988 8.336 43.4081 8.504C43.4175 8.66267 43.3801 8.78867 43.2961 8.882C43.2121 8.97533 43.0815 9.03133 42.9041 9.05L42.6801 9.078C42.0455 9.134 41.5555 9.33933 41.2101 9.694C40.8741 10.0393 40.7061 10.5153 40.7061 11.122V14.51C40.7061 14.6967 40.6548 14.8413 40.5521 14.944C40.4588 15.0467 40.3188 15.098 40.1321 15.098ZM48.4249 15.126C47.8929 15.126 47.4449 15.0327 47.0809 14.846C46.7262 14.65 46.4602 14.37 46.2829 14.006C46.1055 13.6327 46.0169 13.18 46.0169 12.648V9.078H45.0789C44.9202 9.078 44.7989 9.04067 44.7149 8.966C44.6309 8.882 44.5889 8.77 44.5889 8.63C44.5889 8.49 44.6309 8.38267 44.7149 8.308C44.7989 8.23333 44.9202 8.196 45.0789 8.196H46.0169V6.586C46.0169 6.39933 46.0682 6.25933 46.1709 6.166C46.2735 6.06333 46.4135 6.012 46.5909 6.012C46.7682 6.012 46.9035 6.06333 46.9969 6.166C47.0995 6.25933 47.1509 6.39933 47.1509 6.586V8.196H48.9149C49.0735 8.196 49.1949 8.23333 49.2789 8.308C49.3629 8.38267 49.4049 8.49 49.4049 8.63C49.4049 8.77 49.3629 8.882 49.2789 8.966C49.1949 9.04067 49.0735 9.078 48.9149 9.078H47.1509V12.536C47.1509 13.068 47.2629 13.474 47.4869 13.754C47.7109 14.0247 48.0749 14.16 48.5789 14.16C48.7562 14.16 48.9055 14.1413 49.0269 14.104C49.1575 14.0667 49.2649 14.048 49.3489 14.048C49.4329 14.0387 49.5029 14.0667 49.5589 14.132C49.6149 14.1973 49.6429 14.3093 49.6429 14.468C49.6429 14.58 49.6195 14.6827 49.5729 14.776C49.5355 14.8693 49.4655 14.9347 49.3629 14.972C49.2509 15.0093 49.1015 15.042 48.9149 15.07C48.7375 15.1073 48.5742 15.126 48.4249 15.126Z" fill="white"/>
<path d="M14.25 14.25H16.5L13.5 17.25L10.5 14.25H12.75V3.75H14.25M1.5 14.25H9V15.75H1.5M4.5 5.25V6.75H1.5V5.25M1.5 9.75H6.75V11.25H1.5V9.75Z" fill="white"/>
<path d="M59 13.25L55.25 9.5H62.75L59 13.25Z" fill="white"/>
</svg>
