<svg width="112" height="112" viewBox="0 0 112 112" fill="none" xmlns="http://www.w3.org/2000/svg">
<rect width="112" height="112" fill="#F5F5F5"/>
<g clip-path="url(#clip0_0_1)">
<rect width="1440" height="1024" transform="translate(-649 -905)" fill="white"/>
<g filter="url(#filter0_dd_0_1)">
<rect x="8" y="4" width="96" height="96" rx="48" fill="#F05D61"/>
</g>
<path d="M51.2 51.0938C50.6696 51.0938 50.1609 51.3078 49.7858 51.6887C49.4107 52.0696 49.2 52.5863 49.2 53.125C49.2 53.6637 49.4107 54.1804 49.7858 54.5613C50.1609 54.9422 50.6696 55.1562 51.2 55.1562C51.4626 55.1562 51.7227 55.1037 51.9654 55.0016C52.208 54.8995 52.4285 54.7499 52.6142 54.5613C52.7999 54.3727 52.9472 54.1488 53.0478 53.9023C53.1483 53.6559 53.2 53.3917 53.2 53.125C53.2 52.8583 53.1483 52.5941 53.0478 52.3477C52.9472 52.1012 52.7999 51.8773 52.6142 51.6887C52.4285 51.5001 52.208 51.3505 51.9654 51.2484C51.7227 51.1463 51.4626 51.0938 51.2 51.0938ZM60.8 51.0938C60.2696 51.0938 59.7609 51.3078 59.3858 51.6887C59.0107 52.0696 58.8 52.5863 58.8 53.125C58.8 53.6637 59.0107 54.1804 59.3858 54.5613C59.7609 54.9422 60.2696 55.1562 60.8 55.1562C61.3304 55.1562 61.8391 54.9422 62.2142 54.5613C62.5893 54.1804 62.8 53.6637 62.8 53.125C62.8 52.5863 62.5893 52.0696 62.2142 51.6887C61.8391 51.3078 61.3304 51.0938 60.8 51.0938ZM56 35.25C53.8989 35.25 51.8183 35.6703 49.8771 36.487C47.9359 37.3036 46.172 38.5006 44.6863 40.0095C41.6857 43.057 40 47.1902 40 51.5C40 55.8098 41.6857 59.943 44.6863 62.9905C46.172 64.4994 47.9359 65.6964 49.8771 66.513C51.8183 67.3297 53.8989 67.75 56 67.75C60.2435 67.75 64.3131 66.038 67.3137 62.9905C70.3143 59.943 72 55.8098 72 51.5C72 49.366 71.5861 47.2529 70.7821 45.2814C69.978 43.3099 68.7994 41.5185 67.3137 40.0095C65.828 38.5006 64.0641 37.3036 62.1229 36.487C60.1817 35.6703 58.1012 35.25 56 35.25ZM56 64.5C48.944 64.5 43.2 58.6663 43.2 51.5C43.2 51.0288 43.2 50.5575 43.28 50.1025C47.056 48.3963 50.048 45.26 51.616 41.3762C54.512 45.5363 59.28 48.25 64.672 48.25C65.92 48.25 67.12 48.1037 68.272 47.8275C68.608 48.9812 68.8 50.2163 68.8 51.5C68.8 58.6663 63.056 64.5 56 64.5Z" fill="white"/>
</g>
<defs>
<filter id="filter0_dd_0_1" x="0" y="0" width="112" height="112" filterUnits="userSpaceOnUse" color-interpolation-filters="sRGB">
<feFlood flood-opacity="0" result="BackgroundImageFix"/>
<feColorMatrix in="SourceAlpha" type="matrix" values="0 0 0 0 0 0 0 0 0 0 0 0 0 0 0 0 0 0 127 0" result="hardAlpha"/>
<feOffset dy="2"/>
<feGaussianBlur stdDeviation="2"/>
<feColorMatrix type="matrix" values="0 0 0 0 0.952941 0 0 0 0 0.666667 0 0 0 0 0.0941176 0 0 0 0.24 0"/>
<feBlend mode="multiply" in2="BackgroundImageFix" result="effect1_dropShadow_0_1"/>
<feColorMatrix in="SourceAlpha" type="matrix" values="0 0 0 0 0 0 0 0 0 0 0 0 0 0 0 0 0 0 127 0" result="hardAlpha"/>
<feOffset dy="4"/>
<feGaussianBlur stdDeviation="4"/>
<feColorMatrix type="matrix" values="0 0 0 0 0.952941 0 0 0 0 0.666667 0 0 0 0 0.0941176 0 0 0 0.16 0"/>
<feBlend mode="multiply" in2="effect1_dropShadow_0_1" result="effect2_dropShadow_0_1"/>
<feBlend mode="normal" in="SourceGraphic" in2="effect2_dropShadow_0_1" result="shape"/>
</filter>
<clipPath id="clip0_0_1">
<rect width="1440" height="1024" fill="white" transform="translate(-649 -905)"/>
</clipPath>
</defs>
</svg>
